<!-- <svg xmlns="http://www.w3.org/2000/svg" viewBox="0 0 100 100">
  <style type="text/css"> .st0{fill:#CECECE;} </style>
  <path class="st0" d="M1 32.4c53.2 67.6 99 0 99 0C46.8-35.3 1 32.4 1 32.4zM50.4 57c-13.6 0-24.6-11-24.6-24.6s11-24.6 24.6-24.6C64 7.8 75 18.8 75 32.4S64 57 50.4 57z" />
  <path class="st0" d="M50.5 20.8c-6.4 0-11.6 5.2-11.6 11.6C38.8 38.8 44 44 50.5 44c6.4 0 11.6-5.2 11.6-11.6S56.9 20.8 50.5 20.8z" />
</svg> -->
<svg xmlns="http://www.w3.org/2000/svg"
  fill="currentColor"
  class="bi bi-eye-fill"
  viewBox="0 0 16 16">
  <style type="text/css"> .st0{fill:#CECECE;} </style>
  <path class="st0"
    d="M10.5 8a2.5 2.5 0 1 1-5 0 2.5 2.5 0 0 1 5 0z" />
  <path class="st0"
    d="M0 8s3-5.5 8-5.5S16 8 16 8s-3 5.5-8 5.5S0 8 0 8zm8 3.5a3.5 3.5 0 1 0 0-7 3.5 3.5 0 0 0 0 7z" />
</svg>
