<svg xmlns="http://www.w3.org/2000/svg" viewBox="0 0 100 100"><style type="text/css">  
    .st0{fill:#CECECE;}
</style><path class="st0" d="M56.2 35.5c-8-3.3-17.2 0.5-20.5 8.6 -3.3 8 0.5 17.2 8.6 20.5 8 3.3 17.2-0.5 20.5-8.6C68.1 48 64.2 38.8 56.2 35.5zM55.9 52.4c-1.3 3.1-4.9 4.6-8 3.4 -3.1-1.3-4.6-4.9-3.4-8 1.3-3.1 4.9-4.6 8-3.4C55.7 45.7 57.2 49.2 55.9 52.4z"/><path class="st0" d="M99.6 42.9c-6 1.6-12.4-1.4-14.8-7.2C82.3 29.8 84.7 23.1 90 20c-2.8-3.7-6.2-7.1-10-10 -3 5.4-9.7 7.8-15.6 5.4 -5.9-2.4-8.9-8.8-7.3-14.8C52.4 0 47.6 0 43 0.7c1.7 6-1.3 12.4-7.2 14.8s-12.5 0.1-15.6-5.3c-3.7 2.8-7.1 6.2-10 10 5.4 3 7.8 9.7 5.4 15.6 -2.4 5.9-8.8 8.9-14.8 7.3 -0.7 4.8-0.6 9.5 0.1 14.1 6-1.7 12.4 1.3 14.8 7.2s0.1 12.5-5.3 15.6c2.8 3.7 6.2 7.1 10 10 3-5.4 9.7-7.8 15.6-5.4s8.9 8.8 7.3 14.8c4.8 0.7 9.5 0.6 14.1-0.1 -1.7-6 1.3-12.4 7.2-14.8 5.9-2.5 12.5-0.1 15.6 5.3 3.7-2.8 7.1-6.2 10-10 -5.4-3-7.8-9.7-5.4-15.6 2.4-5.9 8.8-8.9 14.8-7.3C100.3 52.2 100.2 47.5 99.6 42.9zM77.7 61.3c-6.2 15.2-23.6 22.4-38.8 16.2 -15.2-6.2-22.4-23.6-16.2-38.8C29 23.6 46.3 16.3 61.5 22.6 76.7 28.8 83.9 46.2 77.7 61.3z"/></svg>
