<svg xmlns="http://www.w3.org/2000/svg" viewBox="0 0 100 100"><style type="text/css"> .st0{fill:#e2e721;} </style><path class="st0"  d="M93.8 6.3c-0.5 2.6-2.5 12.4-2.5 12.4 -0.3 1.6-0.7 3.1-1.1 4.6 -2.7-4.8-5.6-7.7-10-11.2 -8.3-6.6-19-10.6-30.8-10.6 -25.9 0-47 19.4-47 43.3 0 8.9 2.9 17.2 8 24.1 0 0 3 3.8 4.8 5.6 -1.9 2-2.7 3.1-2.7 4.5 0 2.5 2 4 3.9 5.3 0 0 23.1 14.3 24.2 14.3 0.9 0 1.7-0.3 2.3-1 0.7-0.8 1-1.9 0.9-3.3v0c0-0.2-0.4-4.2-0.9-7.7 13.6-1.7 30.5-15.4 34.4-19.9 2.7-3 7.7-9.4 11.9-19.1 4.1-9.5 6-19 5.8-28.4C94.9 19.1 94.8 10.2 93.8 6.3zM78.8 15.3c2.7 2.2 5 4.8 7 7.5H79c-0.6-1.3-1.3-2.6-2-3.8 -2.4-4-5.3-7.5-8.6-10.3C72.2 10.5 75.7 12.7 78.8 15.3zM49.4 4.8c4 0 8.4 6.9 10.9 18.1H38.5C41 11.6 45.3 4.8 49.4 4.8zM30.4 8.8c-4.3 3.6-8 8.5-10.6 14.1H13C17.3 16.9 23.3 11.9 30.4 8.8zM10.9 26.1h7.5c-2.1 5.6-3.3 11.8-3.4 18.4H5.9C5.9 37.9 7.7 31.6 10.9 26.1zM12.6 66.1C8.9 60.7 6.5 54.4 6 47.7h9.1c0.3 6.7 1.9 12.9 4.4 18.4H12.6zM17.6 72.1c-1-1-1.6-1.7-2.6-2.7l5.4 0C18.7 71 17.2 72.4 17.6 72.1zM23.4 66.3c-2.6-5.4-4.5-11.9-4.8-18.6h14.2c0.1 3.2 0.2 5.7 0.6 8.8C31.6 58.2 27.3 62.5 23.4 66.3zM32.7 44.5H18.5c0-6.6 1.3-12.9 3.6-18.4h12.2C33.3 31.9 32.7 38.3 32.7 44.5zM23.6 22.9C27.7 14.7 34.1 8.5 41.7 6c-3 3.8-5.2 9.8-6.8 16.9H23.6zM62 57.3c-4.2 2.9-18.6 10.2-21.4 10.2l-1-8.8c0-3.9-2-4.3-2.9-4.3 0 0-0.1 0-0.2 0 -0.2-2.2-0.3-4.4-0.3-6.7h26.3C62.4 51.3 62.4 54.2 62 57.3zM59.8 44.5H36.2c0-6.8 0.6-13 1.6-18.4h23.1c0.8 4.5 1.4 9.7 1.6 15.3 0 1 0 2.1 0 3.2H59.8zM57.1 6c7.5 2.5 14 8.7 18.1 16.9 -2.6 0-11.4 0-11.4 0C62.3 15.9 60.1 9.9 57.1 6zM65.6 54.9c0.2-2.5 0.4-4.7 0.4-7.2l8.8 0C74.3 48 70.4 51.6 65.6 54.9zM78 44.6l-12-0.1c0-2.4-0.1-4.9-0.3-7.3 -0.3-3.8-0.7-7.6-1.3-11.1h8.8 3.4c2.1 5.1 3.3 10 3.5 16.1C79.5 42.9 78.7 43.8 78 44.6zM83.2 38.1c-0.5-4.6-1.4-8-2.9-12h7.5c0.4 0.7 0.6 0.9 0.9 1.6C87 32.1 83.9 37 83.2 38.1z"/></svg>
