<?xml version="1.0" encoding="utf-8"?> <svg xmlns="http://www.w3.org/2000/svg" viewBox="0 0 83.5 100"><style type="text/css"> .st0{fill:#333333;} </style><path class="st0" d="M75.2 0.5l-3.7 3.6C75.7 8.3 78 14 77.8 20c0.2 5.9-2.1 11.6-6.3 15.7l3.8 3.8c5.2-5 8.2-11.9 8.2-19.2C83.4 12.9 80.5 5.8 75.2 0.5z"/><path class="st0" d="M62.2 32.5c3.5-3.2 5.5-7.7 5.6-12.5 0-4.6-2.2-9-5.4-12.5l-3.4 3.4c2.2 2.3 3.4 5.4 3.5 8.6 0 3.5-1.4 6.8-3.9 9.3L62.2 32.5z"/><path class="st0" d="M24.5 28.6c-2.2-2.3-3.5-5.5-3.5-8.7 0.1-3.5 1.5-6.8 3.9-9.2l-3.5-3.6c-3.5 3.2-5.6 7.7-5.7 12.4 0.1 4.7 2.1 9.2 5.4 12.5L24.5 28.6z"/><path class="st0" d="M41.5 21.3c3.1-0.1 5.6-2.6 5.5-5.7 0-3.1-2.5-5.6-5.6-5.6 -3.1 0-5.6 2.5-5.7 5.6C35.8 18.8 38.3 21.3 41.5 21.3z"/><path class="st0" d="M5.5 19.8C5.4 13.8 7.7 8.1 12 3.9L8.2 0C3 5.1 0 12.1 0 19.4 0.1 26.8 3.1 34 8.3 39.3l3.7-3.8C7.8 31.3 5.4 25.7 5.5 19.8z"/><path class="st0" d="M46.3 24.2l-4-2.8h-1.7l-4.1 2.8L9.4 94c-0.9 2.3 0.3 4.9 2.6 5.8 0.5 0.2 1 0.2 1.6 0.2 1.8 0 3.4-1.1 4-2.8l1.4-3.4h45l1.4 3.4c0.9 2.2 3.3 3.3 5.6 2.6 2.3-0.9 3.4-3.4 2.5-5.7 0 0 0-0.1 0-0.1L46.3 24.2zM56 73.3l-3.7 3.6 -7.5-7.5 6.9-6.9L56 73.3zM41.5 36l6.8 17.7H34.6L41.5 36zM50 58.1l-8.3 8.2 -8.3-8.2C33.4 58.1 50 58.1 50 58.1zM31.3 62.1l7.3 7.3 -7.5 7.5L27 73 31.3 62.1zM20.6 89.3l4.7-11.8 11.9 11.8H20.6zM34.1 80.1l7.5-7.5 7.6 7.5 -7.6 7.6L34.1 80.1zM46 89.3l11.7-11.6 4.5 11.6L46 89.3 46 89.3z"/></svg>
