<?xml version="1.0" encoding="utf-8"?>
 <svg xmlns="http://www.w3.org/2000/svg" viewBox="0 0 100 100"><style id="style3" type="text/css"> 
 .st0{fill:#333333;}
 </style><path class="st0" d="M85.3 14.7C75.6 4.9 63.8 0 50 0S24.4 4.9 14.7 14.7C4.9 24.4 0 36.2 0 50s4.9 25.6 14.7 35.3C24.4 95.1 36.2 100 50 100s25.6-4.9 35.3-14.7C95.1 75.6 100 63.8 100 50S95.1 24.4 85.3 14.7zM78.8 78.6c-6.8 6.8-15 10.8-24.7 11.9V67.9H46v22.6c-9.6-1.1-17.9-5-24.8-11.9 -6.9-6.8-10.8-15-11.7-24.7h22.6v-8.1H9.5c0.9-9.6 4.8-17.8 11.7-24.7C28.2 14.3 36.4 10.4 46 9.3v22.6h8.1V9.3c9.6 1.1 17.8 5 24.7 11.9 6.8 6.8 10.7 15 11.6 24.7H68.1V54h22.3C89.5 63.6 85.7 71.8 78.8 78.6z"/></svg>
