<svg xmlns="http://www.w3.org/2000/svg" viewBox="0 0 85.7 100"><style type="text/css"> 
 .st0{fill:#333333;}
 </style><path class="st0" d="M18.7 37.4c1.1 0 2.2-0.2 3.3-0.7 1.5-0.5 2.4-1.2 2.8-2.1 0.3-0.5 0.4-1 0.3-1.6 -0.2-0.6-0.6-0.9-1.2-0.9 -0.7 0.1-1.8 0.3-3.1 0.8 -1.7 0.5-2.8 0.8-3.2 0.9s-0.9 0.1-1.5 0 -1-0.2-1.1-0.3v0.1c0.1 1 0.5 1.8 1 2.3C16.8 36.8 17.7 37.3 18.7 37.4z"/><path class="st0" d="M63.1 91.4c-0.3 0.2-0.9 0.5-1.6 0.9 -0.7 0.4-1.4 0.8-1.9 1.1s-1.1 0.6-1.7 0.9c-3.1 1.3-6 2.3-8.7 2.8s-5.9 0.8-9.4 0.8c-2.5-0.1-5.4-0.5-8.7-1.4s-6.2-2-8.9-3.4C22 93 21.6 92.8 21 92.5c-0.6-0.3-1.2-0.6-1.7-0.9s-0.9-0.5-1-0.5c-0.3 0-0.5 0.1-0.7 0.3 -0.2 0.2-0.3 0.5-0.3 0.8 0 0.3 0.1 0.6 0.4 0.9 2.4 1.7 5.8 3.2 10.3 4.7 4.5 1.5 8.2 2.2 11.1 2.2h4.7c1.2 0 2.9-0.2 5.1-0.7 5.4-0.9 10.5-2.9 15.4-6l2.2 3.7 3-8.9 -8.8-0.8L63.1 91.4z"/><polygon class="st0" points="59.8 50.6 67.5 52.9 64 40.2 "/><path class="st0" d="M77.5 24.5V1.2c0-0.8-0.4-1.2-1.1-1.2 -0.2 0.1-3.2 1.1-9 3S55.7 6.9 49.8 9s-8.9 3.1-9 3.1L9.7 1.1v21.4C8.1 23 5.3 24 1.3 25.3c-0.5 0.2-0.9 0.4-1.1 0.6 0 0-0.1 0.2-0.2 0.6v60.1c0.1 0.1 0.1 0.1 0.1 0.2 0.1 0.5 0.5 0.7 1 0.7 0.3 0 7.1-2.3 20.5-6.8C35 76.2 42 73.8 42.5 73.6l43.2 13.7V27.1L77.5 24.5zM40.9 71.9l-38.7 13V27.3l38.7-13V71.9zM75.3 2.6v21.2L43.4 13.5 75.3 2.6zM71.4 67.2l-2-7.5L57.6 56l-2.5 6.2 -5.7-1.8 12-29.9 5.6 1.8 10.1 36.6L71.4 67.2z"/><path class="st0" d="M21.9 51.2c-0.5 1-1.9 3.2-4.3 6.6 -2.4 3.4-4 5.5-4.8 6.4 -2.9 3.3-4.4 5-4.6 5.2 0.1 0.1 0.4 0.1 1 0 0.6-0.1 1-0.2 1.1-0.3 0.9-0.5 2.9-2.6 5.9-6.1 2.5-2.9 5-6.3 7.5-10.1 0.1 0.1 0.8 0.6 2.1 1.6s2 1.6 2.3 1.7c1.6 1.1 3.2 2.1 4.8 2.8l1.1 0.5c0.8 0.3 1.4 0.5 1.8 0.6 0.4 0.1 0.6 0.2 0.7 0.1 0-0.2-0.1-0.8-0.3-1.7 -0.2-0.9-0.4-1.4-0.5-1.5 -0.2 0-1.5-0.5-3.8-1.5 -2.3-1-3.7-1.6-4.2-1.8l-3.5-1.6c1.9-3 3.4-5.4 4.3-7.3 0.1-0.3 0.4-0.9 0.9-1.9s1-2 1.5-2.9 0.7-1.5 0.7-1.6c0.1-0.7 0.1-1.3 0-1.8 -0.1 0-0.2 0-0.3 0s-0.3 0.1-0.8 0.3c-0.5 0.2-0.9 0.3-1.2 0.4 -0.5 0.1-1.3 0.5-2.5 1.2s-2 1-2.4 1.1c-0.1 0-1.9 0.7-5.6 2 -1.8 0.6-3.8 1.2-5.9 1.8 -0.5 0.1-1 0.2-1.7 0.3 -0.7 0.1-1.1 0.2-1.3 0.3 0 0.6 0.1 1 0.3 1.3 0.3 0.6 0.8 1 1.5 1.1 0.9 0.3 1.8 0.3 2.6 0 1-0.2 1.6-0.5 1.8-0.8 0 0 0-0.2 0-0.5s0-0.5 0.1-0.6c0.1-0.1 0.5-0.2 1-0.3 0.5-0.1 1.2-0.3 1.9-0.5 0.7-0.2 1.3-0.4 1.6-0.5 3.7-1.3 5.8-1.9 6.1-1.8 -0.1 0.3-0.7 1.7-2 4.3C23.5 48.3 22.6 50.1 21.9 51.2z"/></svg>
