<?xml version="1.0" encoding="utf-8"?>
 <svg xmlns="http://www.w3.org/2000/svg" viewBox="0 0 100 75"><style type="text/css"> 
 .st0{fill:#333333;}
 </style><path class="st0" d="M31.8 14.8c0-0.5-0.2-0.9-0.5-1.3l-2.7-2.7c-0.4-0.4-0.8-0.6-1.3-0.6s-0.9 0.2-1.3 0.6L0.6 36.2C0.2 36.6 0 37 0 37.5c0 0.5 0.2 0.8 0.6 1.2L26 64.2c0.4 0.3 0.8 0.5 1.3 0.5s0.9-0.2 1.3-0.5l2.7-2.7c0.3-0.4 0.5-0.8 0.5-1.3s-0.2-0.9-0.5-1.3L9.8 37.5 31.3 16C31.6 15.7 31.8 15.3 31.8 14.8z"/><path class="st0" d="M62.3 1L59 0c-0.5-0.1-1 0-1.4 0.2 -0.4 0.2-0.7 0.6-0.8 1.1L36.5 71.7c-0.2 0.5-0.2 1 0.1 1.4 0.3 0.4 0.6 0.7 1.1 0.9l3.4 0.9c0.5 0.2 0.9 0.2 1.3-0.1 0.4-0.3 0.7-0.6 0.8-1.1L63.5 3.2c0.2-0.4 0.2-0.8-0.1-1.3C63.1 1.4 62.8 1.1 62.3 1z"/><path class="st0" d="M99.4 36.2L74 10.8c-0.4-0.4-0.8-0.6-1.3-0.6 -0.5 0-0.9 0.2-1.3 0.6l-2.7 2.7c-0.3 0.4-0.5 0.8-0.5 1.3s0.2 0.8 0.5 1.2l21.5 21.5L68.7 58.9c-0.3 0.4-0.5 0.8-0.5 1.3s0.2 0.9 0.5 1.3l2.7 2.7c0.4 0.3 0.8 0.5 1.3 0.5 0.5 0 0.9-0.2 1.3-0.5l25.4-25.5c0.4-0.3 0.6-0.7 0.6-1.2C100 37 99.8 36.6 99.4 36.2z"/></svg>
