<?xml version="1.0" encoding="utf-8"?>
 <svg xmlns="http://www.w3.org/2000/svg" viewBox="0 0 100 100"><style type="text/css">
 .st0{fill:#333333;}
 </style><path class="st0" d="m 50.10688,11.513156 q -4.776647,0 -7.896089,6.030707 l -30.024635,56.25 q -3.1194428,6.030699 -1.072308,10.416662 2.047134,4.385969 8.480984,4.385969 l 60.926612,0 q 6.336369,0 8.480988,-4.385969 2.144612,-4.385962 -1.169794,-10.416662 l -29.927151,-56.25 Q 54.688562,11.513156 50.10688,11.513156 Z M 50.10688,0 q 10.333153,0 16.474558,11.732456 l 30.024631,56.25 Q 102.74747,79.495613 97.775857,89.802631 92.706769,100 80.521444,100 l -60.926612,0 Q 7.6044745,100 2.3404151,89.802631 -2.8261617,79.714912 3.4127235,67.982456 l 30.1221175,-56.25 Q 39.578762,0 50.10688,0 Z m 7.506159,75.657894 q -0.487412,0.54825 -1.267274,1.425437 -0.77986,0.877194 -3.41189,2.083338 -2.63203,1.206137 -5.556507,1.206137 -3.704338,-0.328937 -5.361542,-3.728068 -1.657204,-3.399125 -0.09748,-8.442982 l 2.047134,-6.9079 q 1.462239,-4.934206 -1.169791,-6.578944 -0.974826,-0.438562 -2.2421,-0.219312 -1.267273,0.219312 -2.144617,0.657894 l -1.072308,0.54825 q 0.487413,-0.54825 1.267274,-1.425438 0.779861,-0.877194 3.606855,-2.083337 2.826995,-1.206138 5.459025,-1.206138 3.801821,0.328938 5.361542,3.728069 1.559721,3.399125 0.09748,8.552631 l -2.047134,6.798244 Q 49.521985,75 52.154015,76.644738 q 0.974825,0.438562 2.242098,0.219312 1.267274,-0.219312 2.2421,-0.6579 z M 43.380582,37.17105 q 0,-7.565788 6.726298,-7.565788 6.531333,0 6.531333,7.565788 0,7.456144 -6.531333,7.456144 -6.726298,0 -6.726298,-7.456144 z"/></svg>
