<?xml version="1.0" encoding="utf-8"?> <svg xmlns="http://www.w3.org/2000/svg" viewBox="0 0 17 16"><style type="text/css"> .st0{fill:#CECECE;} </style><path class="st0" d="M9.002,1.016 L9.002,1.953 L12.016,1.953 L12.016,15.042 L0.971,15.042 L0.971,1.953 L3.953,1.953 L3.953,1.047 L0,1.047 L0,16 L13,16 L13,1.016 L9.002,1.016 Z"></path><path class="st0" d="M7.95,1.5 C7.95,0.672 7.298,0 6.491,0 C5.683,0 5.031,0.672 5.031,1.5 C5.031,1.676 5.066,1.843 5.121,2 L5.064,2 L5.064,3 L7.937,3 L7.937,2 L7.861,2 C7.915,1.843 7.95,1.676 7.95,1.5 Z M5.969,2.016 L5.969,0.959 L7.016,0.959 L7.016,2.016 L5.969,2.016 Z"></path><path class="st0" d="M9.031,4.016 L3.969,4.016 L3.969,3 L2.03,3 L2.03,14 L10.981,14 L10.981,3 L9.031,3 L9.031,4.016 Z M4.453,8.127 L5.215,7.365 L6.629,8.779 L8.717,6.689 L9.528,7.5 L6.677,10.352 L4.453,8.127 Z"></path> </svg>
