<svg xmlns="http://www.w3.org/2000/svg" viewBox="0 0 100 60"><style type="text/css"> 
 .st0{fill:#333333;}
 </style><path class="st0" d="M14.3 33.3H26c0.5 0 0.8-0.2 0.8-0.8v-4.9c0-0.5-0.2-0.8-0.8-0.8H14.3c-0.5 0-0.8 0.2-0.8 0.8v4.9C13.5 33 13.7 33.3 14.3 33.3z"/><path class="st0" d="M27.7 20.1h4.9c0.6 0 0.8-0.3 0.8-0.8v-5c0-0.5-0.2-0.8-0.8-0.8h-4.9c-0.5 0-0.8 0.2-0.8 0.8v5C26.9 19.8 27.1 20.1 27.7 20.1z"/><path class="st0" d="M34.4 33.3h5c0.5 0 0.8-0.2 0.8-0.8v-4.9c0-0.5-0.2-0.8-0.8-0.8h-5c-0.5 0-0.8 0.2-0.8 0.8v4.9C33.6 33 33.8 33.3 34.4 33.3z"/><path class="st0" d="M14.3 20.1h4.9c0.6 0 0.9-0.3 0.8-0.8v-5c0-0.5-0.2-0.8-0.8-0.8h-4.9c-0.5 0-0.8 0.2-0.8 0.8v5C13.5 19.8 13.7 20.1 14.3 20.1z"/><path class="st0" d="M72.6 40.1h-45c-0.5 0-0.8 0.2-0.8 0.8v4.9c0 0.5 0.2 0.8 0.8 0.8h45c0.5 0 0.8-0.2 0.8-0.8v-4.9C73.4 40.4 73.2 40.1 72.6 40.1z"/><path class="st0" d="M14.3 46.6h4.9c0.5 0 0.8-0.2 0.8-0.8v-4.9c0-0.5-0.2-0.8-0.8-0.8h-4.9c-0.6 0-0.8 0.2-0.8 0.8v4.9C13.5 46.3 13.7 46.6 14.3 46.6z"/><path class="st0" d="M41 20.1h4.9c0.6 0 0.9-0.3 0.8-0.8v-5c0-0.5-0.2-0.8-0.8-0.8H41c-0.5 0-0.8 0.2-0.8 0.8v5C40.2 19.8 40.4 20.1 41 20.1z"/><path class="st0" d="M74.3 33.3H86c0.6 0 0.8-0.2 0.7-0.8V14.2c0-0.5-0.2-0.8-0.8-0.8h-5c-0.5 0-0.8 0.2-0.8 0.8v12.6h-5.8c-0.5 0-0.8 0.2-0.8 0.8v4.9C73.5 33 73.7 33.3 74.3 33.3z"/><path class="st0" d="M86 40.2h-5c-0.5 0-0.8 0.2-0.8 0.8v4.9c0 0.5 0.2 0.8 0.8 0.8h5c0.6 0 0.8-0.3 0.8-0.8V41C86.8 40.5 86.6 40.2 86 40.2z"/><path class="st0" d="M98.1 2c-1.3-1.3-2.9-2-4.7-2H6.8C5 0 3.4 0.7 2.1 2S0.1 4.9 0 6.7v46.6c0 1.8 0.7 3.4 2 4.7s2.9 2 4.7 2h86.6c2 0 3.6-0.7 4.8-2 1.3-1.3 1.9-2.9 1.9-4.7V6.7C100.1 4.9 99.4 3.3 98.1 2zM93.4 53.4H6.8V6.7h86.6V53.4z"/><path class="st0" d="M67.6 20.1h5c0.6 0 0.9-0.3 0.8-0.8v-5c0-0.5-0.2-0.8-0.8-0.8h-5c-0.5 0-0.8 0.2-0.8 0.8v5C66.8 19.8 67 20.1 67.6 20.1z"/><path class="st0" d="M47.7 33.3h5c0.5 0 0.7-0.2 0.7-0.8v-4.9c0-0.5-0.2-0.8-0.7-0.8h-5c-0.5 0-0.8 0.2-0.8 0.8v4.9C46.9 33 47.1 33.3 47.7 33.3z"/><path class="st0" d="M54.3 20.1h5c0.6 0 0.8-0.3 0.8-0.8v-5c0-0.5-0.2-0.8-0.8-0.8h-5c-0.5 0-0.8 0.2-0.8 0.8v5C53.5 19.8 53.7 20.1 54.3 20.1z"/><path class="st0" d="M61.1 33.3H66c0.5 0 0.8-0.2 0.8-0.8v-4.9c0-0.5-0.2-0.8-0.8-0.8h-4.9c-0.5 0-0.8 0.2-0.8 0.8v4.9C60.3 33 60.5 33.3 61.1 33.3z"/></svg>
