<svg xmlns="http://www.w3.org/2000/svg" viewBox="0 0 100 80.1"><style type="text/css"> 
 .st0{fill:#333333;}
 </style><path class="st0" d="M62.6 55.5c3.2-1.9 6-4 8.4-6.6s4.3-5.4 5.6-8.5c1.3-3.1 2-6.4 2-9.7 -0.1-4.1-1.1-8.1-3.2-12 -2.1-3.9-4.8-7.1-8.3-9.8 -3.5-2.7-7.7-4.8-12.5-6.5C49.8 0.8 44.7 0 39.3 0c-7.1 0-13.6 1.4-19.7 4.1C13.5 6.8 8.8 10.6 5.3 15.3 1.8 20 0 25.2 0 30.7v0.1c0.1 3.6 0.9 7.1 2.5 10.5 1.6 3.4 3.9 6.5 6.8 9.2l-1.8 9.4c-0.8 4.1-0.5 6.6 0.9 7.5 1.3 0.9 3.7 0.2 7-1.9l9-6.3c4.7 1.5 9.7 2.3 15 2.3 4.3 0.1 8.4-0.5 12.4-1.5C55.8 58.8 59.4 57.3 62.6 55.5z"/><path class="st0" d="M98.3 61.6c1.1-2.4 1.7-4.9 1.7-7.4 -0.1-4.1-1.4-7.9-4.2-11.4 -2.7-3.5-6.4-6.1-11-7.9 -0.7 5.2-2.7 9.9-5.8 14.4s-7.2 8.2-12.2 11.2 -10.5 5.2-16.6 6.3c2.5 2.7 5.7 4.9 9.6 6.5 3.9 1.6 8.1 2.4 12.6 2.4 3.8 0 7.3-0.5 10.5-1.6l6.3 4.4c2.4 1.5 4 1.9 4.9 1.3 0.9-0.6 1.1-2.3 0.6-5.2L93.5 68C95.6 66.2 97.2 64 98.3 61.6z"/></svg>
