<?xml version="1.0" encoding="utf-8"?> <svg xmlns="http://www.w3.org/2000/svg" viewBox="0 0 100 107.6"><style type="text/css"> .st0{fill:#333333;} </style><polygon class="st0" points="71 89.5 64.3 82.7 61.2 85.8 69.5 94.1 71 95.6 72.5 94.1 89.8 76.8 86.7 73.8 "/><path class="st0" d="M57.3 64.9c4.9-4.9 11.6-7.7 18.6-7.7 2 0 4 0.2 5.9 0.7V2.2 0h-2.1H26.3h-0.9l-0.6 0.7L0.6 26.5 0 28v71 2.2h2.2l54.7 0.4c-4.6-4.9-7.2-11.3-7.2-18C49.7 76.5 52.4 69.9 57.3 64.9zM13 47.4h51.5v4.3H13V47.4zM12.9 64.6h40.7c-1 1.4-1.9 2.8-2.7 4.3h-38V64.6zM12.9 86.1v-4.3h34.6c0 1.5 0.2 2.9 0.4 4.3H12.9z"/><path class="st0" d="M92.9 66.5c-4.4-4.4-10.4-7.1-17-7.1s-12.7 2.7-17 7.1c-4.4 4.4-7.1 10.4-7.1 17 0 6.7 2.7 12.7 7.1 17s10.4 7.1 17 7.1 12.7-2.7 17-7.1 7.1-10.4 7.1-17C100 76.8 97.3 70.8 92.9 66.5zM89.9 97.5c-3.6 3.6-8.5 5.8-14 5.8s-10.4-2.2-14-5.8c-3.6-3.6-5.8-8.5-5.8-14 0-5.5 2.2-10.4 5.8-14 3.6-3.6 8.5-5.8 14-5.8s10.4 2.2 14 5.8c3.6 3.6 5.8 8.5 5.8 14C95.7 89 93.5 93.9 89.9 97.5z"/></svg>
