<?xml version="1.0" encoding="utf-8"?>
 <svg xmlns="http://www.w3.org/2000/svg" viewBox="0 0 100 88"><style type="text/css"> 
 .st0{fill:#333333;}
 </style><path class="st0" d="M99.5 73.1c-0.2-3.5-0.5-5.6-0.9-6.1 -1.2-2.3-5.5-4.9-13-8 -3.7-1.6-6.3-3.2-7.7-4.8 -1.4-1.6-2.1-3.8-2.1-6.6 0-1.1 0.4-2.2 1.3-3.3 0.9-1.1 1.5-2.8 1.9-5.1 0.1-0.5 0.6-1.1 1.4-1.6 0.8-0.5 1.3-1.9 1.4-4.2 0-1.6-0.4-2.6-1.2-3l0.8-6c0.3-2.5-0.5-5.1-2.4-7.8 -1.9-2.7-5.1-4-9.6-4s-7.7 1.3-9.5 4c-1.8 2.7-2.6 5.3-2.3 7.8 0.1 1.7 0.4 3.7 0.8 6 -0.8 0.4-1.2 1.4-1.2 3 0.1 2.3 0.6 3.7 1.4 4.2 0.8 0.5 1.3 1.1 1.4 1.6 0.4 2.3 1 4 1.9 5.1 0.9 1.1 1.3 2.2 1.3 3.3 0 3.6-1.3 6.4-4 8.4 8.3 4.1 13.4 7.1 15.4 8.9 2 1.8 3 4.5 3 8.1v15H100v-4.8C99.9 80 99.7 76.6 99.5 73.1z"/><path class="st0" d="M51.2 61.8c-5.1-2.1-8.5-4.3-10.4-6.4 -1.9-2.1-2.8-5.1-2.8-8.8 0-1.3 0.6-2.8 1.9-4.4 1.3-1.6 2.1-3.9 2.5-6.8 0.1-0.7 0.7-1.4 1.8-2.2 1.1-0.8 1.7-2.7 2-5.6 0-2-0.5-3.3-1.4-3.8l1-8.2c0.3-3.3-0.8-6.8-3.3-10.3S35.8 0 29.8 0 19.6 1.8 17.1 5.3c-2.5 3.5-3.6 7-3.3 10.3 0.3 2.4 0.6 5.1 1 8.2L14.4 24c-0.3 0.3-0.5 0.7-0.7 1.3 -0.2 0.6-0.3 1.4-0.3 2.3 0.3 2.9 0.9 4.8 2 5.6 1.1 0.8 1.7 1.5 1.8 2.2 0.4 2.9 1.2 5.2 2.5 6.8 1.3 1.6 1.9 3.1 1.9 4.4 0 3.7-0.9 6.7-2.8 8.8 -1.9 2.1-5.3 4.3-10.4 6.4C2.8 64.1 0 66.7 0 69.6V88h69.4V74.2C69.4 71.1 63.3 67 51.2 61.8z"/></svg>
