<svg xmlns="http://www.w3.org/2000/svg" viewBox="0 0 100 100"><style type="text/css"> .st0{fill:#CECECE;} </style><path class="st0" d="M50.8 37.9c0 0-2-0.4-4.6-0.9 7-2.7 12-9.4 12-17.3 0-10.2-8.3-18.6-18.6-18.6 -10.2 0-18.6 8.3-18.6 18.6 0 7.8 4.8 14.5 11.7 17.2 -2.5 0.4-4.3 0.9-4.3 0.9C14.9 42.5 4.4 55.4 1.7 71.3h75.9C74.9 55.4 64.5 42.5 50.8 37.9z"/><path class="st0" d="M74.7 33.9c0 0-1.8-0.4-4.1-0.8 6.3-2.4 10.8-8.5 10.8-15.7 0-9.3-7.5-16.8-16.8-16.8 -2.8 0-5.5 0.8-7.8 2 4.7 4.3 7.6 10.3 7.6 17.1 0 5.8-2.2 11.4-6 15.6 11.3 5.4 20 15.9 23.8 28.9H99C96.5 49.7 87.1 38.1 74.7 33.9z"/></svg>
