<svg xmlns="http://www.w3.org/2000/svg" viewBox="0 0 68.5 100"><style type="text/css"> 
 .st0{fill:#333333;}
 </style><path class="st0" d="M55.7 74.6c-5.7 0-9.6 2.6-11.7 7.7H26.5c-5.5 0-8.3-2.8-8.3-8.3V53.4c2.6 1.1 5.3 1.7 8.3 1.7H44c2.1 5.3 6 7.9 11.7 7.9 3.5 0 6.5-1.2 9-3.7 2.5-2.4 3.7-5.5 3.7-9s-1.2-6.6-3.8-9.2c-2.4-2.5-5.5-3.7-9-3.7 -5.7 0-9.6 2.6-11.7 7.7H26.2c-5.5 0-8.3-2.8-8.3-8.3V24.5c5.1-2.4 7.7-6.3 7.7-11.7 0-3.5-1.2-6.5-3.7-9 -2.4-2.5-5.5-3.7-9-3.7 -3.5 0-6.5 1.2-9 3.7C1.3 6.1 0 9.1 0 12.7c0 5.4 2.6 9.3 7.7 11.7v49.2c0 4.6 1.6 8.8 4.6 12.6s7.7 5.7 13.9 5.7h17.6c2.1 5.3 6 7.9 11.7 7.9 3.5 0 6.5-1.2 9-3.7 2.5-2.4 3.7-5.5 3.7-9s-1.2-6.5-3.7-9C62.3 75.8 59.2 74.6 55.7 74.6zM50.6 44.8c1.5-1.4 3.2-2.1 5.2-2.1s3.7 0.7 5.2 2.1c1.5 1.4 2.2 3.2 2.2 5.3 0 2-0.8 3.7-2.3 5.1s-3.2 2.1-5.2 2.1c-2 0-3.7-0.7-5.2-2.1 -1.5-1.4-2.2-3.1-2.1-5.1C48.2 48 48.9 46.2 50.6 44.8zM12.8 20.1c-2 0-3.7-0.7-5.2-2.1 -1.5-1.4-2.3-3.1-2.2-5.1 0-2.1 0.7-3.9 2.2-5.3 1.5-1.4 3.2-2.1 5.2-2.1 2 0 3.7 0.7 5.2 2.1 1.5 1.4 2.2 3.2 2.2 5.3 0 2-0.7 3.7-2.2 5.1S14.8 20.1 12.8 20.1zM60.9 92.8c-1.5 1.4-3.2 2.1-5.2 2.1 -2 0-3.7-0.7-5.2-2.1s-2.3-3.1-2.3-5.1c0-2.1 0.7-3.9 2.2-5.3 1.5-1.4 3.2-2.1 5.2-2.1 2 0 3.7 0.7 5.2 2.1 1.5 1.4 2.2 3.2 2.2 5.3C63.1 89.7 62.4 91.4 60.9 92.8z"/></svg>
