<?xml version="1.0" encoding="utf-8"?> <svg xmlns="http://www.w3.org/2000/svg" viewBox="0 0 100 84.2"><style type="text/css"> .st0{fill:#C72527;} ,st1{fill:#00f;} </style><path class="st0" d="M42.3 71.6c-7.8 0-15.3-3-20.8-8.6-5.7-5.2-9-12.6-8.9-20.3-0.1-8 3-15.7 8.7-21.4 5.5-5.7 13.2-8.9 21.1-8.8 7.2 0 14.1 2.9 20.5 8.8l8.8-8.9C62.4 4.1 52.6 0 42.3 0c-7.4-0.1-14.6 1.8-21 5.6C14.8 9.2 9.5 14.5 5.7 20.9 1.9 27.2 0 34.5 0 41.9 0.1 54 4.2 64.1 12.5 72.1s18.5 12 30.7 12c10.2 0 19.7-4.1 28.5-12.3l-8.9-9C56.5 68.7 49.6 71.6 42.3 71.6z"/><polygon class="st1" points="100 42.2 76.8 19.8 76.8 34.7 42 34.7 42 49.5 76.8 49.5 76.8 64.4 "/></svg>
