<svg xmlns="http://www.w3.org/2000/svg" viewBox="0 0 100 94.7"><style type="text/css"> 
 .st0{fill:#333333;}
 </style><path class="st0" d="M0.1 30.9L0.1 30.9C0 30.9 0 30.9 0.1 30.9z"/><path class="st0" d="M97.2 57.5c-1.8-2.4-4.4-3.6-7.7-3.6 -1.8 0-3.4 0.3-5.1 0.9 -1.7 0.5-3 1.2-3.9 2 -0.9 0.7-2 1.4-3.1 2 -1.1 0.6-2.1 0.9-3 0.9 -1.8 0-3.6-0.9-5.4-2.8 -1.3-1.4-2-3.8-2-7 0-3.8 0.5-8.8 1.4-14.8 0-0.1 0.1-0.6 0.2-1.3 0.1-0.7 0.2-1.4 0.3-2 0.1-0.6 0.1-0.9 0.2-1v-0.1c-1.9 0.1-5.1 0.4-9.8 1s-8.3 0.9-10.9 0.9c-2.3 0.1-4.4-0.4-6.1-1.5 -1.7-1.1-2.6-2.8-2.6-5.1 0-1.6 0.4-3 1.1-4.3 0.8-1.3 1.5-2.4 2.3-3.3 0.8-1 1.6-2.2 2.3-3.6 0.7-1.4 1.1-2.9 1.1-4.6 0-3.1-1-5.6-3.2-7.4C41 0.9 38.3 0 35 0c-3.3-0.1-6.2 0.8-8.5 2.5 -2.4 1.9-3.6 4.5-3.6 7.7 0 1.8 0.4 3.4 0.9 5.1 0.5 1.7 1.2 3 2 3.9 0.7 0.9 1.4 2 2 3.1 0.6 1.1 0.9 2.2 0.9 3.1 0 1.8-0.9 3.6-2.7 5.3 -1.5 1.5-3.9 2.2-7.1 2.2 -3.9 0-8.7-0.5-14.7-1.5 -0.2-0.1-0.6-0.2-1.3-0.2 -0.7 0-1.4-0.1-2-0.2C0.4 31 0.2 31 0.1 30.9v61.7c0 0.1 0 0.1 0.1 0.1s0.1 0 0.2 0l0.8 0.1c0.3 0.1 0.9 0.2 1.6 0.3 0.7 0.1 1.3 0.1 1.7 0.2 6 0.9 10.9 1.4 14.7 1.4 3.2 0 5.6-0.6 7.1-2 1.8-1.8 2.7-3.6 2.7-5.4 0-0.8-0.3-1.9-0.9-3 -0.5-1.1-1.3-2.2-2-3.2 -0.7-1-1.4-2.3-2-3.9s-0.9-3.3-0.9-5c0-3.3 1.2-5.8 3.6-7.7 2.4-1.9 5.2-2.8 8.6-2.8 3.3 0 6 0.9 8.1 2.7s3.2 4.2 3.2 7.4c0 1.6-0.3 3.1-1.1 4.6 -0.8 1.5-1.5 2.7-2.3 3.6 -0.8 0.9-1.6 2-2.3 3.4 -0.7 1.4-1.1 2.8-1.1 4.2 0.1 2.3 1 4 2.6 5.1 1.6 1.1 3.7 1.6 6.1 1.6 1.9 0 3.9-0.2 5.9-0.3 2-0.2 4.3-0.4 6.9-0.8 2.6-0.4 4.5-0.7 5.9-0.8 0.4 0 1 0 1.9 0v-0.3c0-1.5-0.3-3.8-0.9-6.9 -0.7-3.1-1-5.4-1-7 0-4.9 2.2-7.4 6.6-7.4 1.5 0 3 0.3 4.3 1.1 1.3 0.8 2.4 1.5 3.3 2.3 0.9 0.8 2.1 1.6 3.6 2.3 1.5 0.7 3 1.1 4.7 1.1 3.2 0 5.7-1 7.4-3.2 1.7-2.2 2.6-4.9 2.6-8.1C100 62.9 99.1 60 97.2 57.5z"/></svg>
