<svg xmlns="http://www.w3.org/2000/svg" viewBox="0 0 100 78.6"><style type="text/css"> 
 .st0{fill:#333333;}
 </style><path class="st0" d="M97.4 2.6C95.7 0.9 93.6 0 91.1 0H8.9C6.4 0 4.3 0.9 2.6 2.6 0.9 4.3 0 6.4 0 8.9v60.7c-0.1 2.4 0.8 4.5 2.6 6.3 1.8 1.8 3.9 2.7 6.3 2.7h82.2c2.5-0.1 4.6-1 6.3-2.7 1.7-1.7 2.6-3.8 2.6-6.3V8.9C100 6.4 99.1 4.3 97.4 2.6zM92.9 69.6c-0.1 0.5-0.3 1-0.6 1.3s-0.7 0.5-1.2 0.5H8.9c-0.4 0-0.8-0.2-1.2-0.5 -0.4-0.3-0.6-0.8-0.6-1.3V26.8c1.2 1.3 2.5 2.6 3.9 3.7 10 7.6 17.9 13.9 23.8 18.8 1.9 1.6 3.5 2.9 4.6 3.8 1.1 0.9 2.7 1.8 4.8 2.7s4 1.3 5.7 1.3h0.2c1.8 0 3.7-0.4 5.7-1.3 2-0.9 3.6-1.8 4.8-2.7 1.2-0.9 2.7-2.2 4.6-3.8 5.9-4.9 13.9-11.2 23.8-18.8 1.4-1.1 2.7-2.4 3.9-3.7V69.6zM92.9 11c0 2.1-0.9 4.6-2.6 7.3 -1.7 2.7-3.6 4.9-5.6 6.5C77.5 30.5 70 36.4 62.3 42.5c-0.3 0.2-1 0.7-2 1.6 -1 0.9-1.8 1.6-2.5 2.1 -0.7 0.5-1.5 1.1-2.5 1.8 -1 0.7-1.9 1.2-2.8 1.5 -0.9 0.3-1.7 0.5-2.4 0.5h-0.2c-0.8-0.1-1.6-0.2-2.4-0.5 -0.8-0.3-1.7-0.8-2.8-1.5 -1.1-0.7-1.9-1.3-2.5-1.8s-1.4-1.2-2.5-2.1c-1.1-0.9-1.7-1.5-2-1.6 -7.7-6.1-15.2-12-22.4-17.7 -5.5-4.3-8.2-9.6-8.2-15.9 0.1-0.4 0.3-0.8 0.6-1.2C8 7.3 8.4 7.1 8.9 7.1h82.2c0.4 0.2 0.7 0.3 0.8 0.2 0.1-0.1 0.3 0.1 0.5 0.4 0.2 0.3 0.3 0.5 0.3 0.5s0 0.2 0.1 0.7c0.1 0.5 0.1 0.7 0.1 0.7V11z"/></svg>
