<svg xmlns="http://www.w3.org/2000/svg" viewBox="0 0 100 100"><style type="text/css">  
    .st0{fill:#989898;}
</style><path class="st0" d="M57.7 18.6c-0.1 0.1-0.2 0.3-0.3 0.4l0 0L10.4 67l0.2 0.2c2.3-0.4 8.1 3.3 14 9s9.7 11.4 9.3 13.8l0.3 0.2 46.9-48L81 42.1c0.1-0.1 0.3-0.2 0.4-0.3 2.9-2.9-0.1-10.5-6.7-16.9C68.2 18.5 60.6 15.7 57.7 18.6zM1.4 76.4c-0.1 0.1-0.1 0.5-0.1 0.8l0 22.7 23.4 0c0 0 0.3-0.1 0.4-0.4 1.1-2.5-2-8.7-8.5-15.1C10 78.1 3.2 74.5 1.4 76.4zM72.7 3.5c-0.1 0.1-0.2 0.3-0.3 0.4l-0.1-0.1 -5 5.1 0.1 0.1c2.3-1.2 8.7 2.4 14.8 8.4 6.2 6 9.9 12.3 8.8 14.6l0.1 0.1 5-5.1L96 27c0.1-0.1 0.3-0.2 0.4-0.3 4.4-4.5 2.7-13.2-3.8-19.6C86 0.6 77.1-0.9 72.7 3.5z"/></svg>
