<?xml version="1.0" encoding="utf-8"?>
 <svg xmlns="http://www.w3.org/2000/svg" viewBox="0 0 100 92.8"><style type="text/css"> 
 .st0{fill:#333333;}
 </style><path class="st0" d="M99 82.2L56.3 3.7c-0.7-1.1-1.6-2-2.7-2.7 -1.1-0.7-2.3-1-3.6-1s-2.5 0.3-3.6 1c-1.1 0.7-2 1.6-2.6 2.7L1 82.2c-1.3 2.3-1.3 4.7 0.1 7 0.6 1.1 1.5 1.9 2.6 2.6 1.1 0.7 2.3 1 3.5 1h85.7c1.3-0.1 2.4-0.4 3.5-1 1.1-0.6 1.9-1.5 2.6-2.6C100.3 86.8 100.4 84.5 99 82.2zM57.1 76.6c0 0.5-0.2 0.9-0.5 1.3 -0.3 0.4-0.7 0.6-1.2 0.6H44.6c-0.5-0.1-0.9-0.3-1.2-0.6s-0.5-0.8-0.5-1.3V66c0-0.5 0.2-1 0.5-1.3 0.3-0.3 0.7-0.5 1.2-0.5h10.8c0.5 0 0.9 0.2 1.2 0.5 0.3 0.3 0.5 0.8 0.5 1.3V76.6zM57 55.8c-0.1 0.4-0.3 0.7-0.6 0.9 -0.3 0.2-0.8 0.3-1.3 0.3H44.8c-0.5 0.1-0.9 0-1.3-0.3 -0.4-0.3-0.6-0.6-0.6-0.9L42 30.4c0-0.5 0.2-0.9 0.5-1.2 0.5-0.4 0.9-0.6 1.4-0.6h12.2c0.5 0 0.9 0.2 1.4 0.6 0.3 0.3 0.5 0.6 0.5 1L57 55.8z"/></svg>
