<svg xmlns="http://www.w3.org/2000/svg" viewBox="0 0 100 48.5"><style type="text/css"> 
 .st0{fill:#333333;}
 </style><path class="st0" d="M97.9 3.7c-0.2-2.3-2.3-4-4.6-3.7C84.6 1.4 64.2 9.5 50 9.5S15.4 1.4 6.7 0C4.4-0.3 2.3 1.3 2.1 3.7 1.4 11.3 0 31.7 0 34.8 0 39 17.4 48.5 30 48.5c12.3 0 14.8-13.7 20-13.7s7.7 13.7 20 13.7c12.6 0 30-9.5 30-13.7C100 31.7 98.6 11.3 97.9 3.7zM38.3 28.1c-1.8 1.6-6.7 5.3-12.7 4.2 -6-1.1-9.5-6.6-10.8-8.8 -0.3-0.5-0.2-1.2 0.2-1.6 1.8-1.6 6.7-5.4 12.7-4.2s9.6 6.6 10.8 8.8C38.8 27 38.7 27.7 38.3 28.1zM85.2 23.5c-1.2 2.2-4.9 7.6-10.8 8.8 -6 1.1-10.9-2.6-12.7-4.2 -0.4-0.4-0.5-1.1-0.2-1.6 1.2-2.2 4.8-7.6 10.8-8.8s10.9 2.6 12.7 4.2C85.4 22.3 85.5 23 85.2 23.5z"/></svg>
