<svg xmlns="http://www.w3.org/2000/svg" viewBox="0 0 100 99.9"><style type="text/css"> 
 .st0{fill:#333333;}
 </style><path class="st0" d="M43.5 60.8c-5.9 0-10.8 4.9-10.8 10.8 0 6.1 4.8 10.9 10.8 10.9s10.9-4.9 10.9-10.9S49.4 60.8 43.5 60.8z"/><path class="st0" d="M65.6 39.2c-6 0-10.9 4.8-10.9 10.7 0 6.1 4.9 11 10.9 11S76.4 56 76.4 50 71.5 39.2 65.6 39.2z"/><path class="st0" d="M43.6 17.5c-6 0-10.9 4.9-10.9 10.9s4.9 10.8 10.9 10.8 10.8-4.8 10.8-10.8S49.5 17.5 43.6 17.5z"/><path class="st0" d="M50.1 0C22.5 0 0 22.4 0 49.9s22.5 49.9 50.1 49.9c27.5 0 49.9-22.3 49.9-49.9C100 22.4 77.6 0 50.1 0zM78.2 78c-7.3 7.3-17.1 11.7-28.1 11.7 -11.1 0-21-4.4-28.2-11.7 -7.2-7.1-11.6-17.1-11.6-28.1 0-10.9 4.4-20.9 11.6-28.1 7.3-7.3 17.1-11.7 28.2-11.7 11 0 20.8 4.4 28.1 11.7 7.2 7.2 11.7 17.1 11.7 28.1S85.4 70.8 78.2 78z"/></svg>
