<?xml version="1.0" encoding="UTF-8" standalone="no"?><svg xmlns="http://www.w3.org/2000/svg" xmlns:xlink="http://www.w3.org/1999/xlink" viewBox="0 0 128 128"><g fill="#333333"><g id="tag"><path d=" M 35.998 47 L 30.002 81 L 10.042 81 C 7.261 81 4.604 83.258 4.114 86.04 L 3.423 89.96 C 2.932 92.742 4.792 95 7.574 95 L 27.534 95 L 24.014 114.96 C 23.524 117.742 25.384 120 28.166 120 L 32.086 120 C 34.867 120 37.524 117.742 38.014 114.96 L 41.534 95 L 75.534 95 L 72.014 114.96 C 71.524 117.742 73.384 120 76.166 120 L 80.086 120 C 82.867 120 85.524 117.742 86.014 114.96 L 89.534 95 L 109.494 95 C 112.276 95 114.932 92.742 115.423 89.96 L 116.114 86.04 C 116.604 83.258 114.744 81 111.962 81 L 92.002 81 L 97.998 47 L 117.958 47 C 120.739 47 123.396 44.742 123.886 41.96 L 124.577 38.04 C 125.068 35.258 123.208 33 120.426 33 L 100.466 33 L 103.986 13.04 C 104.476 10.258 102.616 8 99.834 8 L 95.914 8 C 93.133 8 90.476 10.258 89.986 13.04 L 86.466 33 L 52.466 33 L 55.986 13.04 C 56.476 10.258 54.616 8 51.834 8 L 47.914 8 C 45.133 8 42.476 10.258 41.986 13.04 L 38.466 33 L 18.506 33 C 15.724 33 13.068 35.258 12.577 38.04 L 11.886 41.96 C 11.396 44.742 13.256 47 16.038 47 L 35.998 47 Z  M 52.039 47.001 L 81.959 47.001 C 83.085 47.001 83.838 47.915 83.639 49.041 L 78.363 78.961 C 78.165 80.087 77.089 81.001 75.964 81.001 L 46.044 81.001 C 44.918 81.001 44.165 80.087 44.363 78.961 L 49.639 49.041 C 49.838 47.915 50.913 47.001 52.039 47.001 Z "/></g></g></svg>
