<?xml version="1.0" encoding="utf-8"?>
 <svg xmlns="http://www.w3.org/2000/svg" viewBox="0 0 100 66.4"><style type="text/css"> 
 .st0{fill:#333333;}
 </style><path class="st0" d="M86.2 18.6c-0.5 1.3-1.3 3.2-2.2 5.7s-1.6 4.2-2 5.1c5.3 7.9 8 16.8 8 26.8 0 2.1-0.1 3.7-0.2 4.6 -0.1 1.3 0.2 2.5 1.1 3.6 0.9 1.1 2 1.7 3.5 2h0.4c1.3 0 2.5-0.4 3.4-1.3 0.9-0.9 1.5-2 1.6-3.3 0.1-1.2 0.2-3.1 0.2-5.6C100 41.4 95.4 28.9 86.2 18.6z"/><path class="st0" d="M56.4 12.8l7-8.6C59.3 3 54.8 2.4 50 2.4 36 2.4 24.2 7.6 14.5 18 4.8 28.4 0 41.2 0 56.2c0 0.7 0 1.6 0.1 2.8 0.1 1.2 0.1 2.1 0.1 2.6C0.3 62.9 0.9 64.1 2 65c1.1 0.9 2.3 1.3 3.6 1.2 1.3-0.1 2.5-0.7 3.4-1.7s1.3-2.2 1.2-3.7c-0.1-1.1-0.2-2.6-0.2-4.6 0-12.2 3.9-22.6 11.6-31.1 7.7-8.5 17.2-12.7 28.4-12.7C51.6 12.4 53.7 12.5 56.4 12.8z"/><path class="st0" d="M62 22C50 37.2 42.9 46.7 40.6 50.4c-3.2 5.7-1.9 10.3 3.8 13.6 5.7 3.3 10.3 2.1 13.6-3.6 2-3.6 6.6-14.4 13.8-32.6C79 9.7 82.2 0.4 81.4 0 80.5-0.5 74 6.8 62 22z"/></svg>
