<?xml version="1.0" encoding="utf-8"?>
 <svg xmlns="http://www.w3.org/2000/svg" viewBox="0 0 100 99.5"><style type="text/css"> 
 .st0{fill:#333333;}
 </style><path class="st0" d="M43.6 55.5l0.3 0.4 16.9-8.6 32.4-32.4c-1.3-2-1.7-2.9-3.7-4.9 -2-2-2.9-2.6-4.9-3.7L52.2 38.7 43.6 55.5z"/><path class="st0" d="M98.4 25.1l-29.8 30L57.3 76.6l-25.2 4.7c-4.9-4.6-8-7.9-14.1-13.9l4.7-25.5 21.5-11L73.8 1.5c-12.2-3.3-23.7 0-23.7 0l-34 33.8L0 99l0.4 0.6 63.8-16.2 33.8-34C98.1 49.4 102.2 37.9 98.4 25.1z"/></svg>
