<?xml version="1.0" encoding="utf-8"?> <svg xmlns="http://www.w3.org/2000/svg" viewBox="0 0 100 100"><style type="text/css"> .st0{fill:#CECECE;} </style><path class="st0" d="M 81.25,25 62.5,25 62.5,18.75 43.75,0 0,0 l 0,75 37.5,0 0,25 62.5,0 0,-56.25 L 81.25,25 Z m 0,8.838867 9.911133,9.911133 -9.911133,0 0,-9.911133 z m -37.5,-25 9.911133,9.911133 -9.911133,0 0,-9.911133 z M 6.25,6.25 l 31.25,0 0,18.75 18.75,0 0,43.75 -50,0 0,-62.5 z m 87.5,87.5 -50,0 0,-18.75 18.75,0 0,-43.75 12.5,0 0,18.75 18.75,0 0,43.75 z" /> </svg>
