<svg xmlns="http://www.w3.org/2000/svg" viewBox="0 0 100 85.8"><style type="text/css"> 
 .st0{fill:#333333;}
 </style><path class="st0" d="M97.9 30.7c-1.4-1.4-3.1-2.1-5-2.1V7.2c-0.1-1.9-0.8-3.5-2.2-5S87.6 0 85.7 0c-17.1 14.3-33.8 21.5-50 21.5H8.9c-2.5 0-4.6 0.9-6.3 2.6C0.9 25.8 0 27.9 0 30.4v10.7c-0.1 2.5 0.8 4.6 2.6 6.3C4.4 49.1 6.5 50 8.9 50h6.8c-0.5 2-0.9 4.1-1.2 6.2 -0.3 2.1-0.3 4-0.2 5.5 0.1 1.5 0.4 3.4 0.9 5.6 0.5 2.2 0.9 3.9 1.2 5 0.3 1.1 0.9 2.9 1.8 5.3 0.9 2.4 1.4 4 1.7 4.9 1.7 1.6 4.1 2.6 7.3 3.1s6.3 0.2 9.4-0.7c3.1-0.9 5.2-2.5 6.3-4.6 -1.3-1.1-2.5-2.1-3.5-2.8 -1-0.7-1.9-1.7-2.7-2.8 -0.8-1.1-1.4-2.2-1.8-3.1 -0.4-0.9-0.5-2-0.4-3.2 0.1-1.2 0.6-2.4 1.3-3.7 -1.3-1.3-2.1-3-2.2-5.1 -0.1-2.1 0.4-4 1.7-5.7 1.3-1.7 3-2.9 5.1-3.6 14.7 1.2 29.8 8.3 45.3 21.2 1.9-0.1 3.5-0.8 5-2.2 1.5-1.4 2.2-3.1 2.2-5V42.9c1.9-0.1 3.6-0.8 5-2.1 1.4-1.3 2.1-3 2.1-5S99.3 32.1 97.9 30.7zM85.7 62.3c-14.5-11.1-28.8-17.5-42.8-19V28.2C56.8 26.7 71 20.3 85.7 9.1V62.3z"/></svg>
