<?xml version="1.0" encoding="utf-8"?>
 <svg xmlns="http://www.w3.org/2000/svg" viewBox="0 0 100 83.6"><style type="text/css"> 
 .st0{fill:#333333;}
 </style><path class="st0" d="M25.2 34.4c2.3-0.1 4.2-0.9 5.8-2.5s2.4-3.5 2.4-5.7c0.1-2.5-0.7-4.6-2.4-6.2 -1.7-1.6-3.6-2.4-5.8-2.4 -2.5-0.1-4.6 0.7-6.2 2.4 -1.6 1.7-2.4 3.7-2.4 6.2 -0.1 2.1 0.7 4 2.4 5.7S22.7 34.4 25.2 34.4z"/><path class="st0" d="M0 0v83.6h100V0H0zM92.4 75.8H7.6v-68h84.8V75.8z"/><polygon class="st0" points="83.4 44.7 61.1 21.9 41.8 51 31.6 42.4 16.6 61.9 16.6 67.8 83.4 67.8 "/></svg>
