<?xml version="1.0" encoding="utf-8"?>
 <svg xmlns="http://www.w3.org/2000/svg" viewBox="0 0 100 91.7"><style type="text/css"> 
 .st0{fill:#333333;}
 </style><path class="st0" d="M92.3 13.9c-0.5-1-1-1.9-1.6-2.7 1.7-3.9 2.6-6.3 2.6-7.2 0-0.1-0.1-0.2-0.2-0.4C89 1.2 86.8 0 86.7 0l-0.2 0.1c-1.5 1.4-3.1 3.4-4.9 5.8 -0.8-0.1-1.3-0.1-1.6-0.1s-0.8 0-1.5 0.1C78 5.2 77.1 4 75.9 2.3c-1.3-1.6-2.1-2.4-2.4-2.4 -0.1 0-0.6 0.2-1.6 0.8s-2 1.2-3.1 1.8c-1.1 0.6-1.7 0.9-1.8 1 -0.1 0.2-0.2 0.3-0.2 0.4 0 0.9 0.9 3.3 2.6 7.2 -0.6 0.8-1.1 1.7-1.6 2.7 -5.1 0.5-7.7 1-7.7 1.6v7.3c0 0.6 2.5 1.1 7.7 1.7 0.4 0.9 1 1.8 1.6 2.7 -1.7 3.9-2.6 6.3-2.6 7.2 0 0.2 0.1 0.3 0.2 0.4 4.2 2.4 6.3 3.6 6.4 3.6 0.3 0 1.1-0.8 2.4-2.4 1.3-1.6 2.2-2.8 2.7-3.5 0.6 0.1 1.1 0.1 1.5 0.1 0.4 0 0.9 0 1.6-0.1 0.5 0.7 1.4 1.9 2.7 3.5 1.3 1.6 2.1 2.4 2.4 2.4 0 0 2.2-1.2 6.4-3.6 0.1-0.2 0.2-0.3 0.2-0.4 0-0.9-0.9-3.3-2.6-7.2 0.6-0.9 1.2-1.8 1.6-2.7 5.1-0.5 7.7-1.1 7.7-1.6v-7.3C100 14.9 97.5 14.4 92.3 13.9zM84.7 24c-1.4 1.3-3 2-4.8 2 -1.8 0-3.4-0.7-4.7-2 -1.3-1.3-2-2.9-2-4.8 0.1-1.8 0.7-3.4 2-4.7 1.3-1.3 2.8-2 4.7-2 1.9 0 3.5 0.7 4.8 2 1.3 1.3 2 2.8 2 4.7S86.1 22.7 84.7 24z"/><path class="st0" d="M60.9 64.5c0-0.3-0.2-0.6-0.4-1 -2-2.3-3.6-4.3-4.8-6 0.8-1.4 1.3-2.7 1.7-3.9l8.1-1.3c0.3-0.1 0.6-0.3 0.8-0.6 0.3-0.3 0.4-0.6 0.4-1v-9.6c0-0.4-0.2-0.8-0.4-1 -0.2-0.3-0.5-0.5-0.9-0.6l-7.9-1.1c-0.4-1.2-1-2.6-1.8-4.3 0.6-0.8 1.4-1.9 2.4-3.2 0.9-1.3 1.7-2.2 2.1-2.8 0.3-0.3 0.4-0.6 0.4-0.9 0-0.9-2.5-3.7-7.5-8.4 -0.4-0.3-0.7-0.4-1.1-0.4 -0.4 0-0.8 0.2-1 0.4l-6.1 4.5c-1.4-0.7-2.7-1.2-3.9-1.6l-1.3-7.9c0-0.3-0.2-0.7-0.5-0.9 -0.3-0.3-0.7-0.4-1.1-0.4h-9.6c-0.8 0-1.4 0.4-1.6 1.2 -0.4 1.6-0.8 4.3-1.2 8 -1.5 0.5-2.8 1.1-4 1.7l-6-4.7c-0.4-0.3-0.7-0.4-1.1-0.4 -0.7 0-2 1-4.1 3.1C8.4 23.5 7 25 6.2 26c-0.3 0.3-0.4 0.7-0.4 1.1 0 0.3 0.2 0.6 0.4 1 2 2.3 3.6 4.3 4.8 6 -0.8 1.4-1.3 2.7-1.7 3.9l-8.1 1.3c-0.3 0.1-0.6 0.3-0.8 0.6 -0.3 0.3-0.4 0.6-0.4 1v9.7c0 0.4 0.2 0.8 0.4 1 0.2 0.3 0.5 0.4 0.9 0.5l7.9 1.2c0.4 1.4 1 2.8 1.8 4.3 -0.5 0.8-1.4 1.8-2.4 3.2 -1 1.4-1.7 2.3-2.1 2.8 -0.3 0.3-0.4 0.6-0.4 0.9 0 0.9 2.5 3.7 7.5 8.4 0.4 0.3 0.7 0.4 1.1 0.4 0.4 0 0.8-0.2 1-0.4l6.2-4.7c1.4 0.8 2.7 1.3 3.9 1.7l1.2 7.9c0 0.3 0.2 0.7 0.5 0.9 0.3 0.3 0.7 0.4 1.1 0.4h9.6c0.8 0 1.4-0.4 1.6-1.2 0.4-1.7 0.8-4.4 1.2-8.1 1.4-0.4 2.7-0.9 4-1.6l6 4.7c0.4 0.3 0.7 0.4 1.1 0.4 0.7 0 2-1 4.1-3.1 2.1-2.1 3.5-3.6 4.3-4.7C60.8 65.3 60.9 64.9 60.9 64.5zM42.7 55.2c-2.5 2.6-5.6 3.9-9.4 3.9s-6.9-1.3-9.4-3.9 -3.8-5.7-3.8-9.4c-0.1-3.6 1.2-6.8 3.8-9.4 2.6-2.6 5.7-3.9 9.4-3.9 3.6 0 6.8 1.3 9.4 3.9 2.6 2.6 3.9 5.7 3.9 9.4C46.5 49.4 45.2 52.6 42.7 55.2z"/><path class="st0" d="M92.4 67.1c-0.5-1-1-1.9-1.6-2.7 1.7-3.9 2.6-6.3 2.6-7.2 0-0.2-0.1-0.3-0.2-0.4 -4.1-2.4-6.3-3.6-6.4-3.6l-0.3 0.1c-1.5 1.5-3.1 3.4-4.9 5.9 -0.8-0.1-1.3-0.1-1.6-0.1s-0.8 0-1.5 0.1c-0.5-0.7-1.4-1.9-2.7-3.5s-2.1-2.4-2.4-2.4c-0.1 0-0.6 0.2-1.6 0.8 -1 0.6-2 1.2-3.1 1.8 -1.1 0.6-1.7 0.9-1.8 1 -0.1 0.2-0.2 0.3-0.2 0.4 0 0.9 0.9 3.3 2.6 7.2 -0.6 0.8-1.1 1.7-1.6 2.7 -5.1 0.5-7.7 1.1-7.6 1.6v7.3c0 0.6 2.5 1.1 7.7 1.6 0.4 0.9 1 1.8 1.6 2.7 -1.7 3.9-2.6 6.3-2.6 7.2 0 0.2 0.1 0.3 0.2 0.4 4.2 2.5 6.3 3.7 6.4 3.7 0.3 0 1.1-0.9 2.4-2.5 1.3-1.7 2.2-2.8 2.7-3.5 0.6 0.1 1.1 0.1 1.5 0.1 0.4 0 0.9 0 1.6-0.1 0.5 0.7 1.4 1.8 2.7 3.5s2.1 2.5 2.4 2.5c0 0 2.2-1.2 6.4-3.7 0.1-0.2 0.2-0.3 0.2-0.4 0-0.9-0.9-3.3-2.6-7.2 0.6-0.9 1.2-1.8 1.6-2.7 5.1-0.5 7.7-1 7.7-1.6v-7.3C100 68.3 97.4 67.7 92.4 67.1zM84.8 77.1c-1.4 1.3-3 2-4.8 2s-3.4-0.7-4.7-2c-1.3-1.3-2-2.8-2-4.7 0.1-2 0.7-3.5 2-4.8 1.3-1.3 2.8-1.9 4.7-2 1.9 0 3.5 0.6 4.8 2 1.3 1.4 2 3 2 4.8S86.2 75.8 84.8 77.1z"/></svg>
