<?xml version="1.0" encoding="utf-8"?>
 <svg xmlns="http://www.w3.org/2000/svg" viewBox="0 0 100 82.4"><style type="text/css"> 
 .st0{fill:#333333;}
 </style><path class="st0" d="M96.5 41.7l-19.9-8.6V14.7c0-1.2-0.3-2.2-1-3.2S74 9.8 72.9 9.3L52.3 0.5C51.6 0.2 50.8 0 50 0s-1.6 0.2-2.3 0.5L27.1 9.3c-1 0.5-1.9 1.3-2.6 2.2s-1 2-1 3.2v18.4L3.6 41.7c-1.1 0.4-2 1.2-2.6 2.1S0 45.9 0 47v19.2c0.1 1.1 0.4 2.1 0.9 3 0.5 0.9 1.3 1.6 2.4 2.1l20.6 10.3c0.7 0.4 1.6 0.7 2.6 0.7s1.9-0.2 2.6-0.7l20.6-10.3c0.2-0.1 0.3-0.1 0.3-0.2 0.1 0.1 0.2 0.1 0.3 0.2l20.6 10.3c0.8 0.4 1.6 0.7 2.6 0.7s1.9-0.2 2.6-0.7l20.6-10.3c1-0.5 1.8-1.2 2.4-2.1 0.5-0.9 0.8-1.9 0.8-3V47.1c0.1-1.3-0.2-2.4-0.9-3.3S97.6 42.2 96.5 41.7zM26.4 54.1L7.9 46.2l18.5-8 18.6 8L26.4 54.1zM47 66.2L29.4 75V59.3L47 51.7V66.2zM50 23.2l-20.3-8.6L50 5.8l20.3 8.7L50 23.2zM53 28.4l17.6-7.6v12.3L53 40.7V28.4zM73.6 54.1l-18.6-7.9 18.6-8 18.5 8L73.6 54.1zM94.1 66.2L76.5 75V59.3l17.6-7.6V66.2z"/></svg>
