<?xml version="1.0" encoding="utf-8"?>
<svg id="Layer_1" data-name="Layer 1" xmlns="http://www.w3.org/2000/svg" viewBox="0 0 20 20">
	<style type="text/css"> 
		<![CDATA[
		    .icon-cancel{fill:#ffffff;} 
	    ]]> 
	</style>
	<path class="icon-cancel" d="M19.53,17.24l-2.29,2.29a1.63,1.63,0,0,1-2.29,0L10,14.58,5.05,19.53a1.63,1.63,0,0,1-2.29,0L0.47,17.24a1.63,1.63,0,0,1,0-2.29L5.42,10,0.47,5.05a1.63,1.63,0,0,1,0-2.29L2.76,0.47a1.63,1.63,0,0,1,2.29,0L10,5.42l4.95-4.95a1.63,1.63,0,0,1,2.29,0l2.29,2.29a1.63,1.63,0,0,1,0,2.29L14.58,10l4.95,4.95A1.63,1.63,0,0,1,19.53,17.24Z"/>
</svg>