<?xml version="1.0" encoding="utf-8"?>
 <svg xmlns="http://www.w3.org/2000/svg" viewBox="0 0 100 100"><style type="text/css"> 
 .st0{fill:#292929;}
 </style><rect x="71.1" class="st0" width="7.8" height="18.9"/><path d="M96.8 14.3c-2.1-2.1-4.9-3.3-7.9-3.2H84v11.1H66.2V11.1H34v11.1H16.2V11.1h-5.1c-2.9 0-5.7 1.1-7.8 3.2 -2.2 2-3.4 4.9-3.3 7.9v66.7c0 2.9 1.2 5.8 3.3 7.8 2 2.1 4.8 3.3 7.8 3.3h77.8c3 0.1 5.8-1.2 7.9-3.3 2.1-2.1 3.2-4.9 3.2-7.8V22.2C100.1 19.3 98.9 16.4 96.8 14.3zM88.9 88.9H11.1V44.4h77.8V88.9z"/><rect x="21.1" width="7.8" height="18.9"/></svg>
