<?xml version="1.0" encoding="utf-8"?>
 <svg xmlns="http://www.w3.org/2000/svg" viewBox="0 0 99.9 100"><style type="text/css"> 
 .st0{fill:#333333;}
 </style><path class="st0" d="M93.6 37.6V6.3c0-1.8-0.6-3.2-1.8-4.4 -1.2-1.1-2.7-1.7-4.5-1.8S84 0.6 82.8 1.9C81.6 3.2 81 4.6 81 6.3v31.3h-6.2V50H81v43.7h0.1c0 1.7 0.6 3.2 1.8 4.5s2.7 1.9 4.5 1.9c1.7 0 3.2-0.6 4.4-1.9s1.8-2.8 1.8-4.5V50h6.3V37.6H93.6z"/><path class="st0" d="M18.7 6.3c0-1.8-0.6-3.2-1.8-4.4 -1.2-1.1-2.6-1.7-4.4-1.8C10.8 0 9.3 0.6 7.9 1.9 6.6 3.2 6 4.6 6.1 6.3V25H0v12.6h6.2v56c0 1.7 0.6 3.2 1.8 4.5 1.2 1.3 2.7 1.9 4.5 1.9 1.7 0 3.2-0.6 4.4-1.9 1.2-1.3 1.8-2.8 1.8-4.5v-56H25V25.1h-6.3V6.3z"/><path class="st0" d="M56.2 6.2c0-1.8-0.6-3.2-1.9-4.4C53 0.7 51.6 0.1 50 0c-1.8 0-3.3 0.6-4.6 1.8s-1.9 2.6-1.8 4.4v56.2h-6.2V75h6.2v18.7c0 1.7 0.6 3.2 1.9 4.5s2.8 1.9 4.4 1.9c1.6 0 3.1-0.6 4.4-1.9s1.9-2.8 1.9-4.5V75h6.3V62.5h-6.3V6.2z"/></svg>
