<svg xmlns="http://www.w3.org/2000/svg" viewBox="0 0 92.9 100"><style type="text/css"> 
 .st0{fill:#333333;}
 </style><path class="st0" d="M90.7 16.4c-1.4-1.4-3.1-2.1-5-2.1h-7.1V8.9c-0.1-2.5-1-4.6-2.7-6.3C74.2 0.9 72.1 0 69.6 0h-3.5c-2.4-0.1-4.5 0.8-6.3 2.6 -1.8 1.8-2.7 3.9-2.7 6.3v5.4H35.7V8.9c0-2.5-0.9-4.6-2.6-6.3S29.3 0 26.8 0h-3.6c-2.5-0.1-4.6 0.8-6.3 2.6s-2.6 3.9-2.6 6.3v5.4H7.1c-1.9 0-3.6 0.7-5 2.1 -1.4 1.4-2.1 3.1-2.1 5v71.5c0 1.9 0.7 3.6 2.1 5 1.4 1.4 3.1 2.1 5 2.1h78.6c1.9 0 3.5-0.7 5-2.1s2.2-3.1 2.2-5V21.4C92.8 19.5 92.1 17.8 90.7 16.4zM23.2 92.9H7.1V76.8h16.1V92.9zM23.2 73.2H7.1V55.4h16.1V73.2zM23.2 51.8H7.1V35.7h16.1V51.8zM22 26.3c-0.4-0.4-0.6-0.8-0.6-1.3V8.9c0.1-0.4 0.3-0.8 0.6-1.2 0.3-0.4 0.7-0.6 1.2-0.6h3.6c0.4 0.1 0.8 0.3 1.2 0.6 0.4 0.3 0.6 0.7 0.6 1.2V25c-0.1 0.5-0.3 1-0.6 1.3 -0.3 0.3-0.7 0.5-1.2 0.5h-3.6C22.8 26.9 22.4 26.7 22 26.3zM44.6 92.9H26.8V76.8h17.8V92.9zM44.6 73.2H26.8V55.4h17.8V73.2zM44.6 51.8H26.8V35.7h17.8V51.8zM66.1 92.9H48.2V76.8h17.9V92.9zM66.1 73.2H48.2V55.4h17.9V73.2zM66.1 51.8H48.2V35.7h17.9V51.8zM64.8 26.3c-0.3-0.4-0.5-0.8-0.5-1.3V8.9c0-0.4 0.2-0.8 0.5-1.2 0.3-0.4 0.8-0.6 1.3-0.6h3.5c0.5 0.1 1 0.3 1.3 0.6 0.3 0.3 0.5 0.7 0.5 1.2V25c0 0.5-0.2 1-0.5 1.3 -0.3 0.3-0.8 0.5-1.3 0.5h-3.5C65.6 26.9 65.1 26.7 64.8 26.3zM85.7 92.9H69.6V76.8h16.1V92.9zM85.7 73.2H69.6V55.4h16.1V73.2zM85.7 51.8H69.6V35.7h16.1V51.8z"/></svg>
