<svg xmlns="http://www.w3.org/2000/svg" viewBox="0 0 100 100"><style type="text/css"> .st0{fill:#CECECE;} </style><path class="st0" d="M95.2 31.2c-2.5-5.8-6-11.1-10.5-15.6 -4.5-4.5-9.7-8-15.6-10.5 -6-2.6-12.4-3.8-19.1-3.8S37.1 2.6 31 5.2c-5.8 2.5-11.1 6-15.6 10.5C11 20.2 7.5 25.4 5 31.2c-2.6 6-3.9 12.4-3.9 19.1s1.3 13 3.9 19.1c2.5 5.8 6 11.1 10.5 15.6 4.5 4.5 9.7 8 15.6 10.5 6 2.6 12.5 3.9 19.1 3.9s13-1.3 19.1-3.9c5.8-2.5 11.1-6 15.6-10.5 4.5-4.5 8-9.7 10.5-15.6 2.6-6 3.9-12.5 3.9-19.1S97.8 37.3 95.2 31.2zM50.1 91.2c-22.6 0-40.9-18.4-40.9-40.9 0-22.6 18.4-40.9 40.9-40.9C72.7 9.4 91 27.7 91 50.3S72.7 91.2 50.1 91.2z"/><polygon class="st0" points="52.6 14.2 47.6 14.2 47.6 52.3 47.7 52.3 47.6 52.4 64 68.7 68.8 64 52.6 47.8 "/></svg>
