<?xml version="1.0" encoding="UTF-8" standalone="no"?> <svg xmlns="http://www.w3.org/2000/svg" viewBox="0 0 100 100"> <style type="text/css"> .st0{fill:#36619B;} </style> <path class="st0" d="M 37.867165,99.97848 30.131172,100 31.919312,0.07517798 39.655305,0.05365749 37.867165,99.97848 Z M 51.259299,0.02143909 58.995292,1.9158665e-5 Q 60.619846,-0.00500899 61.718001,1.3095916 q 1.098144,1.3140676 1.064005,3.2217288 l -0.162513,9.0840726 q -0.03418,1.907651 -1.179431,3.227954 -1.145283,1.320302 -2.769837,1.324818 l -7.736003,0.02152 q -1.624555,0.004 -2.722709,-1.309572 -1.098144,-1.314068 -1.064016,-3.221729 L 47.310111,4.5743111 Q 47.344291,2.66666 48.489532,1.3463474 49.634825,0.02604488 51.259389,0.02153965 Z M 50.771628,27.273667 89.451604,27.166276 q 1.624554,-0.004 2.722699,1.309562 1.098154,1.314088 1.064016,3.221739 l -0.162514,9.084073 q -0.03418,1.907651 -1.179431,3.227964 -1.145293,1.320302 -2.769847,1.324807 l -38.679976,0.107392 q -1.624555,0.005 -2.722709,-1.309563 -1.098144,-1.314077 -1.064006,-3.221729 l 0.162514,-9.084072 q 0.03418,-1.907661 1.179421,-3.227964 1.145293,-1.320313 2.769857,-1.324818 z M 28.472359,50.044632 15.350054,61.435592 15.471985,54.622535 0,54.665475 0.16251357,45.581404 15.634498,45.538464 l 0.12194,-6.813057 z m 21.811588,4.481251 23.207988,-0.06446 q 1.624555,-0.005 2.722699,1.309573 1.098154,1.314078 1.064016,3.221729 l -0.162514,9.084072 q -0.03408,1.907662 -1.179431,3.227964 -1.145292,1.320303 -2.769847,1.324808 l -23.207978,0.06446 q -1.624565,0.005 -2.722719,-1.309563 -1.098134,-1.314077 -1.063996,-3.221728 l 0.162514,-9.084083 q 0.03408,-1.907651 1.179431,-3.227954 1.145273,-1.320302 2.769837,-1.324818 z M 49.796276,81.778112 96.212242,81.64925 q 1.624564,-0.005 2.722708,1.309573 1.09815,1.314077 1.064021,3.221728 l -0.162618,9.084073 q -0.03418,1.907651 -1.179432,3.227964 -1.145292,1.320294 -2.769847,1.32481 l -46.415955,0.128871 q -1.624565,0.004 -2.722719,-1.309564 -1.098144,-1.314078 -1.064006,-3.221739 l 0.162514,-9.084073 q 0.03408,-1.907651 1.179431,-3.227954 1.145282,-1.320312 2.769847,-1.324827 z" /> </svg>
