<?xml version="1.0" encoding="utf-8"?>
 <svg xmlns="http://www.w3.org/2000/svg" viewBox="0 0 100 99.8"><style type="text/css"> 
 .st0{fill:#333333;}
 </style><path class="st0" d="M98.1 86.1L75.2 63.2c4.3-6.7 6.5-14 6.5-21.8L81.6 41l0.1-0.2c0-5.6-1-10.9-3.2-15.9s-5.1-9.4-8.7-13c-3.6-3.6-8-6.5-13-8.7C51.7 1.1 46.4 0 40.9 0c-5.6 0-11 1.1-16 3.3s-9.4 5.1-13 8.7c-3.6 3.6-6.5 8-8.7 13C1.1 30 0 35.3 0 40.9c0 5.6 1 10.9 3.2 15.9s5.1 9.4 8.7 13c3.6 3.6 7.9 6.6 13 8.7 5.1 2.1 10.4 3.2 15.9 3.2l0.2-0.1 0.4 0.1c7.9 0 15.1-2.1 21.7-6.4L86 98.1c1.1 1.1 2.1 1.7 3.3 1.7s2.5-0.6 3.9-1.7l4.9-4.8c1.2-1.3 1.9-2.5 1.9-3.5C100 88.7 99.4 87.5 98.1 86.1zM64 54.3c-2.3 4.1-5.6 7.3-9.7 9.7 -4.1 2.4-8.6 3.6-13.5 3.6 -4.9 0-9.4-1.2-13.5-3.6 -4.1-2.3-7.3-5.6-9.7-9.7 -2.3-4.1-3.5-8.6-3.6-13.5 0-4.9 1.2-9.4 3.6-13.5 2.3-4.1 5.6-7.3 9.7-9.7 4.1-2.4 8.6-3.6 13.5-3.6 4.9 0 9.4 1.2 13.5 3.6 4.1 2.3 7.3 5.6 9.7 9.7s3.6 8.6 3.6 13.5C67.6 45.7 66.4 50.2 64 54.3z"/></svg>
