<?xml version="1.0" encoding="utf-8"?> <svg xmlns="http://www.w3.org/2000/svg" viewBox="0 0 100 100"><style type="text/css"> .st0{fill:#292929;} </style><path class="st0" d="m 50,0 q 6.446541,0 12.617925,2.277328 6.171383,2.277328 11.006289,5.97166 4.834905,3.694332 9.158805,8.350202 4.323899,4.655871 7.429245,9.615385 3.105346,4.959514 5.345912,9.615385 2.240566,4.65587 3.341195,8.350202 Q 100,47.874494 100,50 q 0,2.125506 -1.100629,5.819838 -1.100629,3.694332 -3.380503,8.350202 -2.279874,4.655871 -5.38522,9.615385 -3.105346,4.959514 -7.429245,9.615385 -4.3239,4.65587 -9.158806,8.350202 -4.834905,3.694332 -11.006289,5.97166 Q 56.367925,100 50,100 43.632075,100 37.460692,97.722672 31.289308,95.445344 26.454403,91.751012 21.619497,88.05668 17.295597,83.40081 12.971698,78.744939 9.8663522,73.785425 6.7610063,68.825911 4.4811321,64.17004 2.2012579,59.51417 1.1006289,55.819838 0,52.125506 0,50 0,47.874494 1.1006289,44.180162 2.2012579,40.48583 4.4418239,35.82996 6.6823899,31.174089 9.7877358,26.214575 12.893082,21.255061 17.216981,16.59919 21.540881,11.94332 26.375786,8.248988 31.210692,4.554656 37.382075,2.277328 43.553459,0 50,0 Z m 22.641509,26.821862 q -1.179245,-1.518218 -1.415094,-1.214575 -0.235849,0.303644 0.393082,2.226721 1.965409,5.769231 1.965409,12.044535 0,12.550607 -6.918239,21.457489 Q 59.748428,70.242915 50,70.242915 q -9.748428,0 -16.666667,-8.906883 -6.918239,-8.906882 -6.918239,-21.457489 0,-5.97166 1.808176,-11.538462 0.628931,-1.923077 0.353774,-2.226721 -0.275157,-0.303643 -1.375786,1.214575 -5.503145,6.983806 -12.578616,18.623482 -1.022013,1.619433 -1.179246,4.09919 -0.157232,2.479757 0.707547,4.30162 1.72956,3.643724 3.694969,7.186235 1.965409,3.54251 5.503145,8.299595 3.537735,4.757085 7.272012,8.19838 3.734277,3.441296 8.883648,5.921053 5.149371,2.479757 10.495283,2.479757 5.345912,0 10.495283,-2.42915 5.149371,-2.42915 8.883648,-5.921052 3.734277,-3.491903 7.272012,-8.248988 3.537736,-4.757085 5.503145,-8.248988 1.965409,-3.491903 3.694969,-7.135628 0.864779,-1.821862 0.707547,-4.301619 Q 86.399371,47.672065 85.455975,45.951417 78.380503,34.109312 72.641509,26.821862 Z m -34.591195,10.323887 -2.751572,3.643725 q -1.179245,1.518218 -1.533019,3.896761 -0.353773,2.378542 0.353774,4.200405 2.908805,6.882591 7.311321,11.74089 1.257861,1.31579 3.026729,1.113361 1.768868,-0.202429 2.869497,-1.720648 l 2.751572,-3.441296 q 1.100629,-1.518218 0.982705,-3.390688 -0.117925,-1.87247 -1.29717,-3.390688 -3.45912,-4.453441 -6.996855,-11.842105 -0.86478,-1.821863 -2.201258,-2.024292 -1.336478,-0.202429 -2.515724,1.214575 z" />
</svg>
