<?xml version="1.0" encoding="utf-8"?>
 <svg xmlns="http://www.w3.org/2000/svg" viewBox="0 0 100 100"><style type="text/css"> 
 .st0{fill:#7B7B7B;}
 </style><path class="st0" d="M3.2 6.8c2.1-2.1 4.6-3.1 7.6-3.1h7.6c3.2 0 5.6 0.4 7.4 1.2 1.7 0.8 3.3 2.5 4.7 5.1l7.3 15.1h58.7c1 0 1.8 0.3 2.5 1s1 1.5 1 2.5v3.6c0 1-0.3 2-1 2.9 -0.6 0.9-1.4 1.5-2.3 1.9l-52.6 9.4c-1.1 0.2-2 0-2.9-0.4 -0.8-0.5-1.4-1.1-1.9-1.8 -2-3.2-4.4-4.8-7.1-4.8H10.8c-3 0-5.5-1-7.6-3.1s-3.1-4.6-3.1-7.6V14.4C0.1 11.5 1.1 8.9 3.2 6.8zM42.6 39.7c1.1 1.1 2.4 1.6 3.9 1.6s2.8-0.5 3.9-1.6c1.1-1.1 1.6-2.4 1.6-3.9s-0.5-2.8-1.6-3.9 -2.4-1.6-3.9-1.6 -2.8 0.5-3.9 1.6C41.5 33 41 34.3 41 35.8S41.6 38.7 42.6 39.7zM11.2 23.5c0 2.4 1 3.6 3 3.6h9.6c0.8 0 1.3-0.2 1.5-0.6 0.3-0.4 0.4-1 0.4-1.7 0-0.5-0.4-1.6-1.1-3.2 -0.8-1.6-1.4-2.8-1.9-3.6 -0.9-1.3-1.9-2-3.1-2h-5.7c-0.9 0-1.6 0.3-2 1s-0.6 1.5-0.6 2.5v4H11.2z"/><path class="st0" d="M90.8 9.4L80.9 18H53L83.2 0.3c0.9-0.3 1.9-0.4 3-0.1 1.1 0.3 2 0.8 2.6 1.5l2.4 2.7C91.8 5.1 92.1 6 92.1 7S91.6 8.8 90.8 9.4z"/><path class="st0" d="M16.5 54.5l10.9-9.3c0.9-0.9 1.7-1.5 2.4-1.7s1.5-0.2 2.2 0.2c0.7 0.4 1.3 0.8 1.8 1.2s1.1 1.1 1.8 2c1.3 1.7 2.5 2.9 3.6 3.6 1.1 0.8 2.2 1.1 3.5 0.9l4.5-0.4 3.4 13c0.6 2.9 0.5 5.2-0.2 7 -0.8 1.7-2.4 3.6-4.8 5.7l-5.7 4.9c-2.2 1.9-4.8 2.8-7.8 2.5s-5.4-1.4-7.4-3.7l-9.3-10.8c-1.9-2.2-2.8-4.8-2.5-7.8S14.3 56.4 16.5 54.5zM27.2 66.3l2.6 3.1c0.6 0.7 1.3 1.2 2 1.4 0.7 0.2 1.4 0.1 2.2-0.5l4.4-3.8c0.9-0.8 1.2-1.9 1-3.5 -0.1-1-0.4-2.3-0.9-4s-0.9-2.8-1.2-3.2c-0.5-0.6-1-0.9-1.4-1 -0.4-0.1-0.9 0.1-1.6 0.6L27 61.7C25.6 62.9 25.7 64.5 27.2 66.3z"/></svg>
