<?xml version="1.0" encoding="utf-8"?>
 <svg xmlns="http://www.w3.org/2000/svg" viewBox="0 0 97.9 100"><style type="text/css"> 
 .st0{fill:#7B7B7B;}
 </style><rect x="56.3" y="50" class="st0" width="33.3" height="16.7"/><path class="st0" d="M43.8 74.9H31.3V0H14.6v75H2.2c-1.2 0-1.9 0.3-2.1 0.9 -0.3 0.6 0 1.3 0.8 2l19.2 20.9c0.8 0.8 1.7 1.2 2.9 1.2s2.1-0.4 2.9-1.2l19.2-20.9c0.7-0.8 1-1.5 0.8-2.1C45.7 75.2 45 74.9 43.8 74.9z"/><rect x="56.3" y="74.9" class="st0" width="41.6" height="16.7"/><rect x="56.2" class="st0" width="16.7" height="16.7"/><rect x="56.2" y="25" class="st0" width="25" height="16.7"/></svg>
