<?xml version="1.0" encoding="utf-8"?>
 <svg xmlns="http://www.w3.org/2000/svg" viewBox="0 0 100 100"><style type="text/css"> 
 .st0{fill:#7B7B7B;}
 </style><path class="st0" d="M1.1 13.6c0.7-0.7 1.5-1 2.5-1h20.9l12.9 12.9L27.3 35.6l-8.7-8.7H3.7c-1 0-1.8-0.3-2.5-1s-1-1.5-1-2.5v-7.1C0.1 15.1 0.4 14.3 1.1 13.6z"/><path class="st0" d="M67.4 55.5h11.3V44.7c0-1 0.3-1.6 0.8-1.8s1.1 0 1.8 0.7L99 60.1c0.7 0.7 1.1 1.5 1.1 2.5s-0.4 1.8-1.1 2.5L81.2 81.5c-0.7 0.7-1.3 0.9-1.8 0.7s-0.8-0.8-0.8-1.8V69.8H61.4L48.5 56.9l10.1-10.2L67.4 55.5z"/><path class="st0" d="M3.7 55.5h14.9l42.9-42.9h17.2V1.9c0-1 0.3-1.6 0.8-1.8s1.1 0 1.8 0.7L99 17.2c0.7 0.7 1.1 1.5 1.1 2.5s-0.4 1.8-1.1 2.5L81.2 38.6c-0.7 0.7-1.3 0.9-1.8 0.7s-0.8-0.8-0.8-1.8V26.9H67.2L24.3 69.8H3.5c-1 0-1.8-0.3-2.5-1s-1-1.5-1-2.5V59c0-1 0.3-1.8 1-2.5C1.8 55.8 2.7 55.5 3.7 55.5z"/></svg>
