<?xml version="1.0" encoding="utf-8"?>
 <svg xmlns="http://www.w3.org/2000/svg" viewBox="0 0 100 100"><style type="text/css"> 
 .st0{fill:#7B7B7B;}
 </style><path class="st0" d="M95.5 36.4H77.3c-1.3 0-2.3 0.4-3.2 1.3 -0.9 0.9-1.3 1.9-1.3 3.2v18.2c0 1.2 0.4 2.3 1.3 3.2 0.9 0.9 1.9 1.3 3.2 1.3h18.2c1.2 0 2.3-0.4 3.2-1.3 0.9-0.9 1.3-1.9 1.3-3.2V40.9c0-1.3-0.4-2.3-1.3-3.2C97.8 36.8 96.8 36.4 95.5 36.4z"/><path class="st0" d="M98.7 1.3c-0.9-0.9-2-1.3-3.2-1.3H77.3C76 0 75 0.4 74.1 1.3c-0.9 0.9-1.3 1.9-1.3 3.2v18.3c0 1.2 0.4 2.3 1.3 3.2 0.9 0.9 1.9 1.3 3.2 1.3h18.2c1.2 0 2.3-0.4 3.2-1.3 0.9-0.9 1.3-2 1.3-3.3V4.5C100 3.3 99.6 2.2 98.7 1.3z"/><path class="st0" d="M59.1 72.7H40.9c-1.3 0-2.3 0.5-3.2 1.4 -0.9 0.9-1.3 1.9-1.3 3.2v18.1c0 1.2 0.4 2.3 1.3 3.2 0.9 0.9 1.9 1.3 3.2 1.3h18.2c1.2 0 2.3-0.4 3.2-1.3 0.9-0.9 1.3-1.9 1.3-3.2V77.2c0-1.2-0.4-2.3-1.3-3.2C61.4 73.1 60.4 72.7 59.1 72.7z"/><path class="st0" d="M95.5 72.7H77.3c-1.3 0-2.3 0.5-3.2 1.4 -0.9 0.9-1.3 1.9-1.3 3.2v18.2c0 1.2 0.4 2.3 1.3 3.2 0.9 0.9 1.9 1.3 3.2 1.3h18.2c1.2 0 2.3-0.4 3.2-1.3 0.9-0.9 1.3-1.9 1.3-3.2V77.3c0-1.3-0.4-2.4-1.3-3.3C97.8 73.1 96.8 72.7 95.5 72.7z"/><path class="st0" d="M22.7 36.4H4.5c-1.2 0-2.3 0.4-3.2 1.3C0.4 38.6 0 39.6 0 40.9v18.2c0 1.2 0.4 2.3 1.3 3.2 0.9 0.9 1.9 1.3 3.2 1.3h18.2c1.2 0 2.3-0.4 3.2-1.3 0.9-0.9 1.3-1.9 1.3-3.2V40.9c0-1.2-0.4-2.3-1.3-3.2C25 36.8 24 36.4 22.7 36.4z"/><path class="st0" d="M22.7 72.7H4.5c-1.2 0-2.3 0.5-3.2 1.4C0.4 75 0 76 0 77.3v18.1c0 1.2 0.4 2.3 1.3 3.2 0.9 0.9 1.9 1.3 3.2 1.3h18.2c1.2 0 2.3-0.4 3.2-1.3 0.9-0.9 1.3-1.9 1.3-3.2V77.2c0-1.2-0.4-2.3-1.3-3.2C25 73.1 24 72.7 22.7 72.7z"/><path class="st0" d="M22.7 0H4.5C3.3 0 2.2 0.4 1.3 1.3 0.4 2.2 0 3.3 0.1 4.5v18.2c0 1.2 0.4 2.3 1.3 3.2 0.9 0.9 1.9 1.3 3.2 1.3h18.2c1.2 0 2.3-0.4 3.2-1.3 0.9-0.9 1.3-1.9 1.3-3.2V4.5c0-1.2-0.4-2.3-1.3-3.2C25.1 0.4 24 0 22.7 0z"/><path class="st0" d="M59.1 36.4H40.9c-1.3 0-2.3 0.4-3.2 1.3 -0.9 0.9-1.3 1.9-1.3 3.2v18.2c0 1.2 0.4 2.3 1.3 3.2 0.9 0.9 1.9 1.3 3.2 1.3h18.2c1.2 0 2.3-0.4 3.2-1.3 0.9-0.9 1.3-1.9 1.3-3.2V40.9c0-1.2-0.4-2.3-1.3-3.2C61.4 36.8 60.4 36.4 59.1 36.4z"/><path class="st0" d="M59.1 0H40.9c-1.3 0-2.3 0.4-3.2 1.3 -0.9 0.9-1.3 1.9-1.3 3.2v18.2c0 1.2 0.4 2.3 1.3 3.2 0.9 0.9 1.9 1.3 3.2 1.3h18.2c1.2 0 2.3-0.4 3.2-1.3 0.9-0.9 1.3-1.9 1.3-3.2V4.5c0-1.2-0.4-2.3-1.3-3.2C61.4 0.4 60.4 0 59.1 0z"/></svg>
