<?xml version="1.0" encoding="utf-8"?> <svg xmlns="http://www.w3.org/2000/svg" viewBox="0 0 100 99.9"><style type="text/css"> .st0{fill:#333333;} </style><path class="st0" d="M86 60.2l0.2-0.5 13.2-3.3c0.3-2.4 0.5-4.5 0.5-6.4 0-1.9-0.2-4-0.5-6.4l-13.2-3.4L86 39.7c-0.7-2.8-1.8-5.5-3.3-8.1l-0.3-0.4 7-11.7c-2.6-3.3-5.6-6.3-9.1-9.1l-11.7 7.1 -0.4-0.3c-2.6-1.5-5.4-2.6-8.2-3.4l-0.4-0.2L56.3 0.4C54 0.1 51.8 0 49.9 0c-1.8 0-3.9 0.1-6.4 0.4l-3.3 13.3 -0.4 0.2c-2.9 0.8-5.6 1.9-8.2 3.4l-0.4 0.3 -11.7-7.1c-3.3 2.5-6.3 5.6-9.1 9.1l7 11.7 -0.3 0.4c-1.4 2.6-2.5 5.3-3.4 8.1l-0.1 0.5L0.4 43.6C0.1 45.9 0 48 0 50c0 1.8 0.1 3.9 0.4 6.4l13.2 3.3 0.1 0.5c0.8 2.8 1.9 5.5 3.5 8.1l0.3 0.4 -7 11.7c2.5 3.3 5.6 6.3 9.1 9.1l11.7-7 0.4 0.2c2.6 1.5 5.4 2.6 8.2 3.4l0.4 0.1 3.3 13.2c2.3 0.3 4.5 0.4 6.4 0.4 1.8 0 3.9-0.1 6.4-0.4l3.3-13.2 0.4-0.1c2.9-0.8 5.6-1.9 8.2-3.4l0.4-0.2 11.6 7c3.3-2.5 6.4-5.6 9.1-9.1l-7-11.7 0.3-0.4C84.1 65.7 85.2 63 86 60.2zM63.1 63.2c-3.6 3.7-8 5.5-13.2 5.5 -5.1 0-9.5-1.8-13.2-5.5s-5.5-8.1-5.5-13.2c0-5.1 1.8-9.5 5.5-13.2 3.6-3.7 8-5.5 13.2-5.5 5.1 0 9.5 1.8 13.2 5.5 3.7 3.7 5.5 8.1 5.5 13.2C68.6 55.1 66.8 59.5 63.1 63.2z"/></svg>
