<?xml version="1.0" encoding="utf-8"?>
 <svg xmlns="http://www.w3.org/2000/svg" viewBox="0 0 100 100"><style type="text/css"> 
 .st0{fill:#333333;}
 </style><path class="st0" d="M62 55.7c-0.8 0.8-1.8 1.2-3 1.2 -1.1 0-2.1-0.4-3-1.2L44.2 43.9c-0.8-0.8-1.2-1.8-1.2-3 0-1.1 0.4-2.1 1.2-3l26-26 -9.1-9.1c-0.8-0.8-1.1-1.5-0.8-2s1-0.8 2.2-0.8h33.3c1.2 0 2.2 0.4 3 1.2C99.6 2 100 3 100 4.2v33.3c0 1.2-0.3 1.9-0.9 2.1s-1.3-0.1-2-0.8L88 29.7 62 55.7z"/><path class="st0" d="M7.7 16c5.1-5.1 12.3-7.7 21.5-7.7h25L38 25H25c-2.3 0-4.2 0.8-5.9 2.5 -1.6 1.6-2.5 3.6-2.5 5.9V75c0 2.3 0.8 4.2 2.5 5.9s3.6 2.5 5.9 2.5h41.7c2.3 0 4.2-0.8 5.9-2.5 1.6-1.7 2.4-3.6 2.4-5.9V62.7L91.7 46v24.8c0 9.2-2.6 16.3-7.8 21.5 -5.2 5.1-12.3 7.7-21.4 7.7H29.2c-9.2 0-16.3-2.6-21.5-7.7C2.6 87.2 0 80 0 70.8V37.5C0 28.3 2.6 21.2 7.7 16z"/></svg>
