<?xml version="1.0" encoding="utf-8"?>
<svg xmlns="http://www.w3.org/2000/svg" viewBox="0 0 19.61 16.59"><style type="text/css"> 
 .st0{fill:#7B7B7B;}
 </style>
	<path d="M9.25,6.21A1.52,1.52,0,0,1,7.74,7.72h-6A1.52,1.52,0,0,1,.2,6.21V1.69A1.52,1.52,0,0,1,1.71.18h6A1.52,1.52,0,0,1,9.25,1.69V6.21Zm0,9.05a1.52,1.52,0,0,1-1.51,1.51h-6A1.52,1.52,0,0,1,.2,15.26V10.74A1.52,1.52,0,0,1,1.71,9.23h6a1.52,1.52,0,0,1,1.51,1.51v4.53ZM19.81,6.21A1.52,1.52,0,0,1,18.3,7.72h-6a1.52,1.52,0,0,1-1.51-1.51V1.69A1.52,1.52,0,0,1,12.27.18h6a1.52,1.52,0,0,1,1.51,1.51V6.21Zm0,9.05a1.52,1.52,0,0,1-1.51,1.51h-6a1.52,1.52,0,0,1-1.51-1.51V10.74a1.52,1.52,0,0,1,1.51-1.51h6a1.52,1.52,0,0,1,1.51,1.51v4.53Z" transform="translate(-0.2 -0.18)"/></svg>