<?xml version="1.0" encoding="utf-8"?>
 <svg xmlns="http://www.w3.org/2000/svg" viewBox="0 0 100 91.7"><style type="text/css"> 
 .st0{fill:#7B7B7B;}
 </style><path class="st0" d="M4.2 0h8.3c1.2 0 2.2 0.4 3 1.2s1.2 1.8 1.2 3v8.3c0 1.2-0.4 2.2-1.2 3 -0.8 0.8-1.8 1.2-3 1.2H4.2c-1.2 0-2.2-0.4-3-1.2S0 13.7 0 12.5V4.2C0 3 0.4 2 1.2 1.2 2 0.4 3 0 4.2 0zM29.2 0h66.6c1.2 0 2.2 0.4 3 1.2C99.6 2 100 3 100 4.2v8.3c0 1.2-0.4 2.2-1.2 3 -0.8 0.8-1.8 1.2-3 1.2H29.1c-1.2 0-2.2-0.4-3-1.2s-1.2-1.8-1.2-3V4.2c0-1.2 0.4-2.2 1.2-3C27 0.4 28 0 29.2 0zM4.2 25h8.3c1.2 0 2.2 0.4 3 1.2 0.8 0.8 1.2 1.8 1.2 3v8.3c0 1.2-0.4 2.2-1.2 3 -0.8 0.8-1.8 1.2-3 1.2H4.2c-1.2 0-2.2-0.4-3-1.2S0 38.7 0 37.5v-8.3c0-1.2 0.4-2.2 1.2-3C2 25.4 3 25 4.2 25zM29.2 25h66.6c1.2 0 2.2 0.4 3 1.2 0.8 0.8 1.2 1.8 1.2 3v8.3c0 1.2-0.4 2.2-1.2 3 -0.8 0.8-1.8 1.2-3 1.2H29.1c-1.2 0-2.2-0.4-3-1.2s-1.2-1.8-1.2-3v-8.3c0-1.2 0.4-2.2 1.2-3C27 25.4 28 25 29.2 25zM4.2 50h8.3c1.2 0 2.2 0.4 3 1.2s1.2 1.8 1.2 3v8.3c0 1.2-0.4 2.2-1.2 3 -0.8 0.8-1.8 1.2-3 1.2H4.2c-1.2 0-2.2-0.4-3-1.2 -0.8-0.8-1.2-1.8-1.2-3v-8.3c0-1.2 0.4-2.2 1.2-3C2 50.4 3 50 4.2 50zM29.2 50h66.6c1.2 0 2.2 0.4 3 1.2 0.8 0.8 1.2 1.8 1.2 3v8.3c0 1.2-0.4 2.2-1.2 3 -0.8 0.8-1.8 1.2-3 1.2H29.1c-1.2 0-2.2-0.4-3-1.2 -0.8-0.8-1.2-1.8-1.2-3v-8.3c0-1.2 0.4-2.2 1.2-3C27 50.4 28 50 29.2 50zM4.2 75h8.3c1.2 0 2.2 0.4 3 1.2 0.8 0.8 1.2 1.8 1.2 3v8.3c0 1.2-0.4 2.2-1.2 3 -0.8 0.8-1.8 1.2-3 1.2H4.2c-1.2 0-2.2-0.4-3-1.2 -0.8-0.8-1.2-1.8-1.2-3v-8.3c0-1.2 0.4-2.2 1.2-3C2 75.4 3 75 4.2 75zM29.2 75h66.6c1.2 0 2.2 0.4 3 1.2 0.8 0.8 1.2 1.8 1.2 3v8.3c0 1.2-0.4 2.2-1.2 3 -0.8 0.8-1.8 1.2-3 1.2H29.1c-1.2 0-2.2-0.4-3-1.2 -0.8-0.8-1.2-1.8-1.2-3v-8.3c0-1.2 0.4-2.2 1.2-3C27 75.4 28 75 29.2 75z"/></svg>
