<svg xmlns="http://www.w3.org/2000/svg" viewBox="0 0 100 79.9"><style type="text/css"> 
 .st0{fill:#7B7B7B;}
 </style><path class="st0" d="M99.5 45.8L53.7 0H43.6l47 47L62.2 75.5l3.8 3.8c0.3 0.3 0.8 0.5 1.2 0.5 0.4 0 0.8-0.1 1.2-0.5l31.1-31.1c0.3-0.3 0.5-0.8 0.5-1.2C100 46.5 99.8 46.1 99.5 45.8z"/><path class="st0" d="M79.8 47c0-0.4-0.1-0.8-0.5-1.2L33.6 0H1.7C1.3 0 0.9 0.1 0.6 0.5 0.3 0.9 0.1 1.3 0.1 1.7L0 33.6l45.8 45.7c0.3 0.3 0.8 0.5 1.2 0.5s0.8-0.1 1.2-0.5l31.1-31.1C79.6 47.9 79.8 47.4 79.8 47zM21.5 21.4c-1.4 1.3-2.9 2-4.8 2s-3.5-0.7-4.8-2c-1.3-1.3-2-2.9-2-4.8 0-1.9 0.7-3.5 2-4.8 1.4-1.3 2.9-2 4.8-2s3.5 0.7 4.8 2c1.3 1.3 2 2.9 2 4.8C23.5 18.5 22.8 20.1 21.5 21.4z"/></svg>
