<?xml version="1.0" encoding="utf-8"?> <svg xmlns="http://www.w3.org/2000/svg" viewBox="0 0 100 100"><style type="text/css"> .st0{fill:#333333;} </style><path class="st0" d="M 35.057471,57.213439 81.937603,0.790514 Q 82.594417,0 83.415435,0 q 0.821018,0 1.395731,0.790514 l 14.53202,17.490118 Q 100,18.972332 100,19.960474 q 0,0.988143 -0.656814,1.778656 L 35.057471,99.209486 Q 34.482759,100 33.62069,100 32.758621,100 32.183908,99.209486 L 0.65681445,61.264822 Q 0,60.474308 0,59.486166 0,58.498024 0.65681445,57.806324 L 15.188834,40.316206 q 0.574713,-0.790514 1.395731,-0.790514 0.821018,0 1.477832,0.790514 l 14.039409,16.897233 q 0.574713,0.691699 1.477833,0.691699 0.90312,0 1.477832,-0.691699 z" />
</svg>
