<?xml version="1.0" encoding="utf-8"?>
 <svg xmlns="http://www.w3.org/2000/svg" viewBox="0 0 100 100"><style type="text/css"> 
 .st0{fill:#1F4E82;}
 </style><path class="st0" d="M7.7 92.3c0 2.1 0.8 3.9 2.3 5.4s3.3 2.3 5.4 2.3h53.8c2.1 0 3.9-0.8 5.4-2.3s2.3-3.3 2.3-5.4V30.8H7.7V92.3zM61.5 38.5h7.7v53.8h-7.7V38.5zM46.1 38.5h7.7v53.8h-7.7V38.5zM30.7 38.5h7.7v53.8h-7.7V38.5zM15.4 38.5h7.7v53.8h-7.7V38.5z"/><path class="st0" d="M84 16c-0.3-0.4-0.8-0.6-1.3-0.6H61.5V7.7c0-2.1-0.8-3.9-2.3-5.4S55.9 0 53.8 0h-23c-2.1 0-3.9 0.8-5.4 2.3s-2.3 3.3-2.3 5.4v7.7H1.9c-0.5 0-0.9 0.2-1.3 0.6C0.2 16.3 0 16.8 0 17.3v5.8h84.6v-5.8C84.6 16.8 84.4 16.3 84 16zM53.8 15.4h-23 -0.1V7.7h23.1V15.4z"/></svg>
