<svg xmlns="http://www.w3.org/2000/svg" viewBox="0 0 100 109.1"><style type="text/css"> 
 .st0{fill:#7B7B7B;}
 </style><path class="st0" d="M18.2 36.4V18.2c0-5 1.8-9.3 5.3-12.9S31.3 0 36.4 0l27.3 0c5 0 9.2 1.8 12.8 5.4s5.4 7.8 5.4 12.8v18.2h9.1c2.5 0 4.6 0.9 6.4 2.7 1.8 1.8 2.7 3.9 2.7 6.4V100c0 2.5-0.9 4.6-2.7 6.4-1.8 1.8-3.9 2.7-6.4 2.7H9.1c-2.5 0-4.6-0.9-6.4-2.7S0 102.5 0 100l0-54.5C0 43 0.9 40.8 2.7 39c1.8-1.8 3.9-2.7 6.4-2.7H18.2zM63.6 36.4V22.7c0-1.3-0.5-2.3-1.4-3.2s-2-1.3-3.2-1.3H40.9c-1.2 0-2.3 0.4-3.2 1.3s-1.4 2-1.4 3.2v13.6H63.6z"/></svg>
