<?xml version="1.0" encoding="utf-8"?>
 <svg xmlns="http://www.w3.org/2000/svg" viewBox="0 0 100 98.9"><style type="text/css"> 
 .st0{fill:#7B7B7B;}
 </style><path class="st0" d="M49.5 27h-27c-1.3 0-2.3-0.4-3.2-1.3 -0.9-0.9-1.3-1.9-1.3-3.2v-9c0-1.3 0.4-2.3 1.3-3.2C20.2 9.4 21.2 9 22.5 9H27V4.5c0-1.3 0.4-2.3 1.3-3.2C29.2 0.4 30.2 0 31.5 0h9c1.3 0 2.3 0.4 3.2 1.3C44.5 2.2 45 3.2 45 4.5V9h4.5c1.3 0 2.3 0.4 3.2 1.3 0.9 0.9 1.3 1.9 1.3 3.2v9c0 1.3-0.4 2.3-1.3 3.2C51.8 26.5 50.7 27 49.5 27z"/><path class="st0" d="M2.7 11.6C4.4 9.9 6.5 9 9 9v13.5c0 3.7 1.3 6.9 4 9.5s5.8 4 9.5 4h27c3.7 0 6.9-1.3 9.5-4s4-5.8 4-9.5V9c2.5 0 4.6 0.9 6.3 2.7 1.8 1.8 2.7 3.9 2.7 6.3v45H54v27h18c0 2.2-0.2 3.9-0.6 5.2 -0.4 1.3-1.1 2.2-2.1 2.7s-1.9 0.8-2.7 0.9S64.6 99 63 99H9c-2.5 0-4.6-0.9-6.3-2.7C0.9 94.5 0 92.4 0 90V18C0 15.5 0.9 13.4 2.7 11.6z"/><polygon class="st0" points="62.9 71.9 80.9 71.9 80.9 57.4 100 76.4 80.9 95.5 80.9 80.9 62.9 80.9 "/></svg>
