<?xml version="1.0" encoding="utf-8"?>
 <svg xmlns="http://www.w3.org/2000/svg" viewBox="0 0 100 99.9"><style type="text/css"> 
 .st0{fill:#1F4E82;}
 </style><path class="st0" d="M99.5 49.8L50.9 0.6C50.5 0.2 50 0 49.5 0s-1 0.2-1.4 0.6L0.5 49.8c-0.4 0.4-0.6 0.8-0.4 1.1 0.1 0.3 0.5 0.4 1 0.4h13.7v46.6c0 0.5 0.2 1 0.6 1.4s0.8 0.6 1.4 0.6h19.6c0.5 0 1-0.2 1.4-0.6s0.6-0.9 0.6-1.4V67.5h23.5v30.4c0 0.5 0.2 1 0.6 1.4s0.8 0.6 1.4 0.6h19.6c0.5 0 1-0.2 1.4-0.6s0.6-0.9 0.6-1.4V51.3H99c0.5 0 0.8-0.1 1-0.4C100.1 50.6 99.9 50.3 99.5 49.8z"/></svg>
