<?xml version="1.0" encoding="utf-8"?>
 <svg xmlns="http://www.w3.org/2000/svg" viewBox="0 0 100 100"><style type="text/css"> 
 .st0{fill:#7B7B7B;}
 </style><path class="st0" d="M77.3 27.3H50c-1.3 0-2.3-0.4-3.2-1.3s-1.3-2-1.3-3.2v-9.1c0-1.3 0.4-2.3 1.3-3.2 0.9-0.9 2-1.3 3.2-1.3h4.5V4.5c0-1.3 0.4-2.3 1.3-3.2s2-1.3 3.3-1.3h9.1c1.3 0 2.3 0.4 3.2 1.3s1.3 2 1.3 3.2V9h4.5c1.3 0 2.3 0.4 3.2 1.3 0.9 0.9 1.3 2 1.3 3.2v9.1c0 1.3-0.4 2.3-1.3 3.2S78.5 27.3 77.3 27.3z"/><path class="st0" d="M27.3 47.6V18.2c0-2.5 0.9-4.6 2.7-6.4 1.8-1.8 3.9-2.7 6.4-2.7v13.6c0 3.8 1.3 7 4 9.6 2.7 2.7 5.9 4 9.6 4h27.3c3.8 0 7-1.3 9.6-4 2.7-2.7 4-5.9 4-9.6V9.1c2.5 0 4.6 0.9 6.4 2.7 1.8 1.8 2.7 3.9 2.7 6.4v72.7c0 2.5-0.9 4.6-2.7 6.4 -1.8 1.8-3.9 2.7-6.4 2.7H36.4c-0.1 0-0.7-0.1-1.8-0.4l22.3-22.3L27.3 47.6z"/><polygon class="st0" points="18.2 72.7 18.2 58 37.5 77.3 18.2 96.5 18.2 81.8 0 81.8 0 72.7 "/></svg>
