<?xml version="1.0" encoding="utf-8"?> <svg xmlns="http://www.w3.org/2000/svg" viewBox="0 0 100 100"><style type="text/css"> .st0{fill:#333333;} </style><path class="st0" d="m 46.571094,65.928844 c 0.445312,0.88359 0.682617,1.870891 0.682617,2.899989 0,1.720305 -0.658594,3.325963 -1.854688,4.522248 L 29.443945,89.306096 c -1.196093,1.196089 -2.802343,1.854681 -4.522265,1.854681 -1.719922,0 -3.326172,-0.658592 -4.522266,-1.854681 l -9.705078,-9.70504 C 9.4982422,78.404772 8.8396484,76.798723 8.8396484,75.078808 c 0,-1.719915 0.6585938,-3.326159 1.8546876,-4.522248 L 26.649414,54.601349 c 1.196094,-1.195894 2.802344,-1.85468 4.522266,-1.85468 1.029101,0 2.016015,0.237304 2.9,0.682419 l 6.380664,-6.380444 c -2.72168,-2.090812 -6,-3.140612 -9.280664,-3.140612 -3.904883,0 -7.809766,1.481049 -10.772266,4.443537 L 4.4443359,64.30678 c -5.9248047,5.924782 -5.9248047,15.620056 0,21.544642 l 9.7050781,9.705236 C 17.111719,98.518756 21.016602,100 24.921484,100 c 3.905078,0 7.809961,-1.481244 10.772266,-4.443537 L 51.648828,79.601447 C 57.1,74.150296 57.531445,65.5099 52.951953,59.548205 l -6.380859,6.380639 z M 95.55625,14.148773 85.851172,4.443537 C 82.888867,1.481049 78.983984,0 75.078906,0 71.174023,0 67.269336,1.481049 64.306836,4.443537 L 48.351562,20.398748 C 42.900391,25.849899 42.468945,34.490295 47.048633,40.4516 l 6.380664,-6.380835 c -0.445117,-0.883785 -0.682422,-1.871086 -0.682422,-2.899793 0,-1.720306 0.658594,-3.326159 1.854687,-4.522248 L 70.556836,10.693513 c 1.195898,-1.196089 2.802148,-1.854876 4.52207,-1.854876 1.720313,0 3.326172,0.658787 4.522266,1.854876 l 9.705078,9.705235 c 1.196094,1.19609 1.854687,2.802138 1.854687,4.522248 0,1.720111 -0.658593,3.326159 -1.854687,4.522248 L 73.351172,45.398455 c -1.196094,1.19609 -2.802149,1.854681 -4.522266,1.854681 -1.028906,0 -2.016015,-0.237304 -2.9,-0.682615 l -6.380664,6.380639 c 2.721875,2.090812 6,3.140613 9.280664,3.140613 3.905078,0 7.809961,-1.481244 10.772266,-4.443733 L 95.55625,35.693025 c 5.925,-5.924391 5.925,-15.619471 0,-21.544252 z M 22.789844,27.209269 4.0404297,8.459928 8.4599609,4.040414 27.209375,22.789755 Z M 37.5,0 l 6.25,0 0,18.749927 -6.25,0 z M 0,37.499854 l 18.75,0 0,6.249975 -18.75,0 z M 77.210156,72.790341 95.959766,91.539877 91.540234,95.959391 72.790625,77.209855 Z M 56.25,81.249683 l 6.25,0 0,18.749926 -6.25,0 z m 25,-24.999903 18.75,0 0,6.249976 -18.75,0 z" /> </svg>
