<?xml version="1.0" encoding="utf-8"?> <svg xmlns="http://www.w3.org/2000/svg" viewBox="0 0 100 100"><style type="text/css"> .st0{fill:#333333;} </style><path class="st0" d="M 47.1875,62.5 32.8125,29.6875 c -0.9375,-2.5 -1.875,-4.375 -2.5,-5.3125 -0.625,-0.9375 -1.5625,-1.25 -2.5,-1.25 -1.5625,0 -2.5,0.3125 -2.8125,0.3125 l 0,-6.875 c 0.9375,-0.625 2.5,-0.625 3.75,-0.9375 3.125,0 5.625,0.625 7.1875,2.1875 0.625,0.625 1.25,1.5625 1.875,2.5 0.625,1.25 1.25,2.5 1.5625,4.0625 l 11.875,28.4375 14.6875,-36.25 9.0625,0 -19.375,45.9375 0,21.875 -8.4375,0 0,-21.875 z M 0,0 0,100 100,100 100,0 0,0 Z m 93.75,93.75 -87.5,0 0,-87.5 87.5,0 0,87.5 z" /> </svg>
