<?xml version="1.0" encoding="utf-8"?> <svg xmlns="http://www.w3.org/2000/svg" viewBox="0 0 100 100"><style type="text/css"> .st0{fill:#333333;} </style><path class="st0" d="m 50,18.75 c 3.451758,0 6.25,-2.79824 6.25,-6.25 l 0,-6.25 C 56.25,2.79824 53.451758,0 50,0 46.548242,0 43.75,2.79824 43.75,6.25 l 0,6.25 c 0,3.45176 2.798242,6.25 6.25,6.25 z m 0,62.5 c -3.451758,0 -6.25,2.79824 -6.25,6.25 l 0,6.25 c 0,3.45176 2.798242,6.25 6.25,6.25 3.451758,0 6.25,-2.79824 6.25,-6.25 l 0,-6.25 c 0,-3.45176 -2.798242,-6.25 -6.25,-6.25 z m 43.75,-25 c 3.451758,0 6.25,-2.79824 6.25,-6.25 0,-3.45176 -2.798242,-6.25 -6.25,-6.25 l -6.25,0 c -3.451953,0 -6.25,2.79824 -6.25,6.25 0,3.45176 2.798047,6.25 6.25,6.25 l 6.25,0 z M 18.75,50 c 0,-3.45176 -2.798242,-6.25 -6.25,-6.25 l -6.25,0 C 2.7982422,43.75 0,46.54824 0,50 c 0,3.45176 2.7982422,6.25 6.25,6.25 l 6.25,0 c 3.451758,0 6.25,-2.79824 6.25,-6.25 z M 80.935937,27.90293 85.355469,23.4832 c 2.440625,-2.44043 2.440625,-6.39804 0,-8.83867 -2.440821,-2.44062 -6.398242,-2.44062 -8.838867,0 l -4.419532,4.41953 c -2.440625,2.44043 -2.440625,6.39805 0,8.83887 2.440821,2.44063 6.398242,2.44063 8.838867,0 z M 19.064063,72.09707 14.644531,76.5166 c -2.44082,2.44082 -2.44082,6.39805 0,8.83887 2.440821,2.44082 6.398047,2.44082 8.838867,0 l 4.419532,-4.41953 c 2.44082,-2.44082 2.44082,-6.39805 0,-8.83887 -2.440821,-2.44082 -6.398047,-2.44082 -8.838867,0 z m 61.871874,0 c -2.440625,-2.44063 -6.398046,-2.44063 -8.838867,0 -2.440625,2.44082 -2.440625,6.39805 0,8.83887 l 4.419532,4.41933 c 2.440625,2.44082 6.398046,2.44082 8.838867,0 2.440625,-2.44082 2.440625,-6.39804 0,-8.83886 L 80.935937,72.09707 Z M 19.064063,27.90293 c 2.440624,2.44063 6.398242,2.44063 8.838671,0 2.440821,-2.44082 2.440821,-6.39844 0,-8.83887 l -4.419336,-4.41953 c -2.44082,-2.44062 -6.398046,-2.44062 -8.838867,0 -2.44082,2.44063 -2.44082,6.39824 0,8.83867 l 4.419531,4.41973 z M 50,75 C 36.192969,75 25,63.80703 25,50 25,36.19316 36.192969,25 50,25 63.806836,25 75,36.19316 75,50 75,63.80703 63.807031,75 50,75 Z m 0,-40.625 c -8.629492,0 -15.625,6.99551 -15.625,15.625 0,8.62949 6.995508,15.625 15.625,15.625 8.629492,0 15.625,-6.99551 15.625,-15.625 0,-8.62949 -6.995508,-15.625 -15.625,-15.625 z" /> </svg>
