<?xml version="1.0" encoding="utf-8"?> <svg xmlns="http://www.w3.org/2000/svg" viewBox="0 0 100 100"><style type="text/css"> .st0{fill:#333333;} </style><path class="st0" d="M 0,0 0,100 100,100 100,0 0,0 Z m 37.5,92.857143 0,-50 56.25,0 0,50 -56.25,0 z m 25,-78.571429 0,21.428572 -25,0 0,-21.428572 25,0 z m -31.25,0 0,21.428572 -25,0 0,-21.428572 25,0 z m -25,28.571429 25,0 0,21.428571 -25,0 0,-21.428571 z m 62.5,-7.142857 0,-21.428572 25,0 0,21.428572 -25,0 z m -62.5,35.714285 25,0 0,21.428572 -25,0 0,-21.428572 z" /> </svg>
