<?xml version="1.0" encoding="utf-8"?> <svg xmlns="http://www.w3.org/2000/svg" viewBox="0 0 100 100"><style type="text/css"> .st0{fill:#333333;} </style><path class="st0" d="M 71.427734,50.562054 C 77.669922,55.912277 81.25,63.51808 81.25,71.428571 c 0,7.910492 -3.580078,15.516295 -9.822266,20.866518 C 65.631055,97.263616 58.021094,100 50,100 41.978711,100 34.368945,97.263616 28.572266,92.295089 22.330078,86.944866 18.75,79.339063 18.75,71.428571 l 12.5,0 c 0,7.743527 8.586523,14.285715 18.75,14.285715 10.163477,0 18.75,-6.542188 18.75,-14.285715 0,-7.743526 -8.586523,-14.285714 -18.75,-14.285714 -8.021289,0 -15.631055,-2.736384 -21.427734,-7.704911 C 22.330078,44.0875 18.75,36.48192 18.75,28.571429 18.75,20.660938 22.330078,13.055357 28.572266,7.704911 34.368945,2.736384 41.978711,0 50,0 58.021094,0 65.631055,2.736384 71.427734,7.704911 77.669922,13.055357 81.25,20.660938 81.25,28.571429 l -12.5,0 c 0,-7.743527 -8.586523,-14.285715 -18.75,-14.285715 -10.163477,0 -18.75,6.542188 -18.75,14.285715 0,7.743526 8.586523,14.285714 18.75,14.285714 8.021094,0 15.631055,2.736384 21.427734,7.704911 z M 0,50 l 100,0 0,7.142857 -100,0 z" /> </svg>
