<?xml version="1.0" encoding="utf-8"?> <svg xmlns="http://www.w3.org/2000/svg" viewBox="0 0 100 100"><style type="text/css"> .st0{fill:#333333;} </style><path class="st0" d="m 50,23.809524 c -20.446094,0 -38.598047,14.96369 -50,38.095238 C 11.401953,85.036607 29.553906,100 50,100 70.446094,100 88.598047,85.036607 100,61.904762 88.598047,38.773214 70.446094,23.809524 50,23.809524 Z m -6.25,19.047619 c 3.451758,0 6.25,4.263988 6.25,9.523809 0,5.259822 -2.798242,9.52381 -6.25,9.52381 -3.451758,0 -6.25,-4.263988 -6.25,-9.52381 0,-5.259821 2.798242,-9.523809 6.25,-9.523809 z m 31.798438,38.288095 c -3.871875,3.014583 -7.973829,5.336607 -12.191993,6.901191 -4.344531,1.6125 -8.838086,2.429762 -13.356445,2.429762 -4.518164,0 -9.011914,-0.817262 -13.35625,-2.429167 C 32.425586,86.481845 28.323633,84.159821 24.451758,81.145833 18.297461,76.353869 12.711328,69.775298 8.0806641,61.90506 12.711328,54.034821 18.297461,47.455655 24.451758,42.664286 27.60957,40.205655 30.920703,38.208036 34.323047,36.705952 32.380859,41.20625 31.25,46.591964 31.25,52.380952 c 0,15.779762 8.394727,28.571429 18.75,28.571429 10.355273,0 18.75,-12.791667 18.75,-28.571429 0,-5.788988 -1.131055,-11.174702 -3.072852,-15.675595 3.402149,1.502381 6.713282,3.5 9.87129,5.958631 6.154492,4.791369 11.740039,11.370238 16.370898,19.240774 -4.630859,7.86994 -10.216602,14.449405 -16.370898,19.240476 z M 84.074023,12.458631 C 73.456836,4.191667 61.992773,0 50,0 38.007227,0 26.543164,4.191667 15.925977,12.458631 10.186523,16.927679 4.8193359,22.563393 0,29.136607 L 0,45.3875 C 5.4041016,36.672321 11.786523,29.352679 18.768945,23.915774 28.497461,16.340774 39.005078,12.5 50,12.5 60.994922,12.5 71.502539,16.340774 81.230859,23.916071 88.213477,29.352976 94.595898,36.672619 100,45.387798 l 0,-16.250893 C 95.180664,22.563393 89.813672,16.927679 84.074023,12.458631 Z" /> </svg>
