<?xml version="1.0" encoding="utf-8"?> <svg xmlns="http://www.w3.org/2000/svg" viewBox="0 0 100 100"><style type="text/css"> .st0{fill:#333333;} </style><path class="st0" d="m 68.75,28.214286 0,20.357143 17.8125,0 0,10 -17.8125,0 0,20.357142 -8.4375,0 0,-20.357142 -18.125,0 0,-10 18.125,0 0,-20.357143 z M 0,0 0,100 100,100 100,0 0,0 Z m 31.25,92.857143 -25,0 0,-21.428572 25,0 0,21.428572 z m 0,-28.571429 -25,0 0,-21.428571 25,0 0,21.428571 z m 0,-28.571428 -25,0 0,-21.428572 25,0 0,21.428572 z m 62.5,57.142857 -56.25,0 0,-78.571429 56.25,0 0,78.571429 z" /> </svg>
