<?xml version="1.0" encoding="utf-8"?> <svg xmlns="http://www.w3.org/2000/svg" viewBox="0 0 100 100"><style type="text/css"> .st0{fill:#333333;} </style><path class="st0" d="m 46.666667,50 0,12.5 3.333333,0 3.333333,-6.25 6.666667,0 0,25 -5,0 0,6.25 23.333333,0 0,-6.25 -5,0 0,-25 6.666667,0 3.333333,6.25 3.333334,0 0,-12.5 z M 80,31.25 80,15.625 C 80,13.90625 78.5,12.5 76.666667,12.5 l -23.333334,0 0,-6.25 c 0,-3.4375 -3,-6.25 -6.666666,-6.25 L 33.333333,0 C 29.66625,0 26.666667,2.8125 26.666667,6.25 l 0,6.25 -23.3333337,0 C 1.4997917,12.5 0,13.90625 0,15.625 l 0,62.5 c 0,1.71875 1.4997917,3.125 3.3333333,3.125 l 29.9999997,0 0,18.75 66.666667,0 0,-68.75 -20,0 z M 33.333333,6.261133 c 0.0035,-0.0037 0.0075,-0.0076 0.01187,-0.01113 l 13.309167,0 c 0.0044,0.0035 0.0085,0.0074 0.01229,0.01113 l 0,6.238867 -13.333334,0 0,-6.238867 z m -20,18.738867 0,-6.25 53.333334,0 0,6.25 -53.333334,0 z m 80,68.75 L 40,93.75 40,37.5 l 53.333333,0 0,56.25 z" /> </svg>
