<?xml version="1.0" encoding="utf-8"?> <svg xmlns="http://www.w3.org/2000/svg" viewBox="0 0 100 100"><style type="text/css"> .st0{fill:#333333;} </style><path class="st0" d="m 31.24975,68.75 c 1.718755,1.71875 4.616615,1.633398 6.439667,-0.189648 L 68.560406,37.689648 C 70.383458,35.866602 70.468615,32.96875 68.74986,31.25 67.031105,29.53125 64.133245,29.616602 62.310192,31.439648 L 31.439399,62.310352 C 29.616347,64.133398 29.530995,67.03125 31.24975,68.75 Z m 15.321138,-2.821094 c 0.445314,0.883789 0.68262,1.871094 0.68262,2.9 0,1.720313 -0.658596,3.326172 -1.854693,4.522266 L 29.443494,89.306445 c -1.196097,1.196094 -2.802156,1.854688 -4.522278,1.854688 -1.720123,0 -3.326182,-0.658594 -4.522279,-1.854688 L 10.693635,79.601172 C 9.4975376,78.405078 8.8389419,76.799023 8.8389419,75.078906 c 0,-1.720117 0.6585957,-3.326172 1.8546931,-4.522265 l 15.95532,-15.955274 c 1.196097,-1.196094 2.802157,-1.854883 4.522279,-1.854883 1.028909,0 2.016021,0.237305 2.900008,0.682618 l 6.380683,-6.380664 c -2.721688,-2.090821 -6.000017,-3.140625 -9.280691,-3.140625 -3.904894,0 -7.809789,1.481054 -10.772297,4.443554 L 4.4436165,64.306641 c -5.924822,5.924804 -5.924822,15.619922 0,21.544726 l 9.7053015,9.705274 C 17.111232,98.51875 21.016126,100 24.92102,100 c 3.90509,0 7.809984,-1.48125 10.772297,-4.443555 L 51.648638,79.601172 C 57.099825,74.15 57.531272,65.50957 52.951766,59.548047 l -6.380878,6.380859 z M 95.556383,14.148828 85.851082,4.443555 C 82.888768,1.481055 78.983874,0 75.078784,0 71.17389,0 67.268996,1.481055 64.306487,4.443555 L 48.351167,20.398828 C 42.899979,25.85 42.468533,34.49043 47.048234,40.451758 l 6.380682,-6.38086 c -0.445118,-0.883789 -0.682424,-1.871093 -0.682424,-2.899804 0,-1.720313 0.658596,-3.326172 1.854693,-4.522266 L 70.556506,10.693555 c 1.196097,-1.196094 2.802156,-1.854883 4.522278,-1.854883 1.720123,0 3.326182,0.658789 4.522279,1.854883 l 9.705302,9.705273 c 1.196097,1.196094 1.854693,2.802149 1.854693,4.522266 0,1.720117 -0.658596,3.326172 -1.854693,4.522265 l -15.95532,15.955274 c -1.196097,1.196094 -2.802157,1.854687 -4.522279,1.854687 -1.028909,0 -2.016021,-0.237304 -2.900008,-0.682617 l -6.380683,6.380664 c 2.721883,2.09082 6.000017,3.140625 9.280691,3.140625 3.90509,0 7.809984,-1.48125 10.772297,-4.443555 l 15.95532,-15.955273 c 5.924827,-5.924414 5.924827,-15.619531 0,-21.544336 z" /> </svg>
