<?xml version="1.0" encoding="utf-8"?> <svg xmlns="http://www.w3.org/2000/svg" viewBox="0 0 100 100"><style type="text/css"> .st0{fill:#333333;} </style><path class="st0" d="M 50.000218,8.790332 C 26.848524,8.790332 8.0801024,29.208234 8.0801024,54.395166 8.0801024,79.582098 26.848306,100 50.000218,100 c 23.151476,0 41.920116,-20.417902 41.920116,-45.604834 0,-25.186932 -18.76864,-45.604834 -41.920116,-45.604834 z m 22.231199,69.79036 c -5.93781,6.46021 -13.833202,10.018099 -22.231199,10.018099 -8.397996,0 -16.29317,-3.557889 -22.231416,-10.018099 -5.938247,-6.459972 -9.208671,-15.049358 -9.208671,-24.185526 0,-9.136169 3.270424,-17.725316 9.208671,-24.185526 5.938246,-6.46021 13.83342,-10.0181 22.231416,-10.0181 8.397997,0 16.293389,3.55789 22.23098,10.0181 5.938902,6.46021 9.209107,15.049357 9.209107,24.185526 0,9.136168 -3.270424,17.725554 -9.208888,24.185526 z M 29.68752,10.199094 24.999891,0 C 14.206116,5.883024 5.407695,15.454813 0,27.197583 l 9.3748226,5.099666 C 13.768575,22.756337 20.917265,14.97905 29.68752,10.199094 Z M 90.624959,32.297011 100,27.197583 C 94.592742,15.454813 85.794539,5.883024 75.000328,0 L 70.312261,10.199094 C 79.082517,14.97905 86.231425,22.7561 90.624959,32.297011 Z m -40.624741,-0.704262 -6.986686,0 0,22.802417 c 0,1.20069 0.513085,2.269553 1.312406,2.965739 l -0.0013,0.0019 17.466715,15.201612 4.364058,-5.935279 -16.155183,-14.060303 0,-20.976086 z" /> </svg>
