<?xml version="1.0" encoding="utf-8"?> <svg xmlns="http://www.w3.org/2000/svg" viewBox="0 0 100 100"><style type="text/css"> .st0{fill:#333333;} </style><path class="st0" d="M 0,0 0,100 100,100 100,0 0,0 Z m 18.75,91.666667 -12.5,0 L 6.25,75 l 12.5,0 0,16.666667 z m 0,-33.333334 -12.5,0 0,-16.666666 12.5,0 0,16.666666 z M 18.75,25 l -12.5,0 0,-16.666667 12.5,0 L 18.75,25 Z M 75,91.666667 l -50,0 0,-83.333334 50,0 0,83.333334 z m 18.75,0 -12.5,0 0,-16.666667 12.5,0 0,16.666667 z m 0,-33.333334 -12.5,0 0,-16.666666 12.5,0 0,16.666666 z M 93.75,25 l -12.5,0 0,-16.666667 12.5,0 L 93.75,25 Z m -56.25,0 0,50 25,-25 z" /> </svg>
