<?xml version="1.0" encoding="utf-8"?> <svg xmlns="http://www.w3.org/2000/svg" viewBox="0 0 100 100"><style type="text/css"> .st0{fill:#333333;} </style><path class="st0" d="M 0,0 0,100 100,100 100,0 0,0 Z m 62.5,71.428571 0,21.428572 -25,0 0,-21.428572 25,0 z m 0,-57.142857 0,21.428572 -25,0 0,-21.428572 25,0 z m -31.25,0 0,21.428572 -25,0 0,-21.428572 25,0 z m 37.5,21.428572 0,-21.428572 25,0 0,21.428572 -25,0 z m -62.5,35.714285 25,0 0,21.428572 -25,0 0,-21.428572 z m 62.5,21.428572 0,-21.428572 25,0 0,21.428572 -25,0 z" /> </svg>
