<?xml version="1.0" encoding="utf-8"?> <svg xmlns="http://www.w3.org/2000/svg" viewBox="0 0 100 100"><style type="text/css"> .st0{fill:#333333;} </style><path class="st0" d="m 43.75,68.75 12.5,0 0,12.5 -12.5,0 z M 68.75,25 C 72.201758,25 75,27.798242 75,31.25 L 75,50 56.25,62.5 l -12.5,0 0,-6.25 18.75,-12.5 0,-6.25 -31.25,0 0,-12.5 37.5,0 z M 50,9.375 C 39.148633,9.375 28.946875,13.600781 21.273828,21.273828 13.600781,28.946875 9.375,39.148633 9.375,50 c 0,10.851367 4.225781,21.053125 11.898828,28.726172 C 28.946875,86.399219 39.148633,90.625 50,90.625 60.851367,90.625 71.053125,86.399219 78.726172,78.726172 86.399219,71.053125 90.625,60.851367 90.625,50 90.625,39.148633 86.399219,28.946875 78.726172,21.273828 71.053125,13.600781 60.851367,9.375 50,9.375 Z M 50,0 50,0 c 27.614258,0 50,22.385742 50,50 0,27.614258 -22.385742,50 -50,50 C 22.385742,100 0,77.614258 0,50 0,22.385742 22.385742,0 50,0 Z" /> </svg>
