<?xml version="1.0" encoding="utf-8"?> <svg xmlns="http://www.w3.org/2000/svg" viewBox="0 0 100 100"><style type="text/css"> .st0{fill:#333333;} </style><path class="st0" d="M 90.625,6.666669 50,6.666669 46.875,0 12.5,0 6.25,13.333338 l 87.5,0 z m -2.310547,60.000023 7.310547,0 4.375,-46.666684 -100,0 6.25,66.666691 47.273437,0 C 43.281055,82.731698 35.9375,72.263986 35.9375,60.000023 c 0,-15.623131 11.91582,-28.333344 26.5625,-28.333344 14.646484,0 26.5625,12.710213 26.5625,28.333344 0,2.258126 -0.256055,4.494793 -0.748047,6.666669 z M 97.948828,88.515658 78.564453,70.318568 C 80.268945,67.306067 81.25,63.775441 81.25,60.000023 81.25,48.954185 72.855469,40.000015 62.5,40.000015 c -10.355469,0 -18.75,8.95417 -18.75,20.000008 0,11.045837 8.394531,20.000007 18.75,20.000007 3.539453,0 6.849414,-1.046458 9.673633,-2.864584 L 89.233398,97.81212 c 2.242383,2.77896 6.066211,2.93125 8.49668,0.33875 l 0.536328,-0.572083 c 2.430464,-2.592501 2.287694,-6.671253 -0.317578,-9.063129 z M 62.5,72.916694 c -6.687891,0 -12.109375,-5.782919 -12.109375,-12.916671 0,-7.133753 5.421484,-12.916672 12.109375,-12.916672 6.687891,0 12.109375,5.782919 12.109375,12.916672 0,7.133752 -5.421484,12.916671 -12.109375,12.916671 z" /> </svg>
