<?xml version="1.0" encoding="utf-8"?> <svg xmlns="http://www.w3.org/2000/svg" viewBox="0 0 100 100"><style type="text/css"> .st0{fill:#333333;} </style><path class="st0" d="M 92.273889,67.20361 C 87.178586,62.458203 80.697125,60.008625 74.64602,60.008625 l -3.249102,0 -7.132129,-6.667486 28.528965,-26.67057 c 7.13213,-6.667694 7.13213,-20.002875 0,-26.670569 L 50.000306,40.00575 7.2066337,2.08e-4 c -7.13212979,6.667486 -7.13212979,20.002875 0,26.67057 l 28.5291893,26.670153 -7.132353,6.667486 -3.249324,0 c -6.051329,0 -12.532567,2.449786 -17.6280936,7.195401 -9.1095815,8.483524 -10.3403828,21.09204 -2.7488789,28.1614 C 8.3220334,98.480003 12.821802,100 17.588312,100 c 6.050881,0 12.532343,-2.44937 17.627869,-7.194985 5.980346,-5.569155 8.56494,-12.91664 7.48704,-19.307043 l 7.297308,-6.821653 7.296415,6.821653 c -1.077676,6.390403 1.507363,13.73768 7.48704,19.307043 C 69.88018,97.55063 76.361195,100 82.412077,100 c 4.766509,0 9.266054,-1.519997 12.610914,-4.63499 7.591509,-7.069361 6.360259,-19.677876 -2.749102,-28.1614 z M 32.257258,81.410247 c -0.85915,1.862705 -2.121648,3.577701 -3.752895,5.096448 -1.633479,1.521247 -3.479011,2.699786 -5.485258,3.502492 -1.800443,0.720416 -3.678565,1.100831 -5.431017,1.100831 -1.690398,0 -4.086153,-0.354374 -5.899766,-2.042912 -1.8008896,-1.677496 -2.1785675,-3.887283 -2.1785675,-5.446655 0,-1.618955 0.4064725,-3.355202 1.1747745,-5.022073 0.859374,-1.862913 2.122095,-3.577701 3.752895,-5.096448 1.633256,-1.521455 3.479012,-2.699369 5.485481,-3.502492 1.800667,-0.720207 3.678565,-1.100832 5.431241,-1.100832 1.690398,0 4.086153,0.354166 5.899319,2.043121 1.800666,1.676872 2.178791,3.887075 2.178791,5.446239 2.23e-4,1.618955 -0.406026,3.355826 -1.174998,5.022281 z M 50.000529,62.770494 c -5.570749,0 -10.086589,-4.222074 -10.086589,-9.429772 0,-5.207489 4.51584,-9.429147 10.086589,-9.429147 5.570749,0 10.086142,4.221658 10.086142,9.429147 0,5.208114 -4.515617,9.429772 -10.086142,9.429772 z m 38.31109,26.296404 c -1.813389,1.68833 -4.20892,2.042912 -5.899542,2.042912 -1.752676,0 -3.630574,-0.380416 -5.431464,-1.100831 -2.005799,-0.802707 -3.851332,-1.981246 -5.484588,-3.502493 -1.631024,-1.518746 -2.893521,-3.233534 -3.752895,-5.096447 -0.768525,-1.666455 -1.174774,-3.403327 -1.174774,-5.022073 0,-1.558955 0.377678,-3.769576 2.178567,-5.446447 1.813167,-1.68833 4.208921,-2.043121 5.899543,-2.043121 1.752229,0 3.630574,0.380624 5.430794,1.100831 2.006469,0.802915 3.852225,1.981038 5.485481,3.502493 1.630577,1.518747 2.893298,3.233535 3.752894,5.096448 0.768303,1.666454 1.174775,3.403117 1.174775,5.022072 -2.23e-4,1.559372 -0.378347,3.769368 -2.178791,5.446656 z" /> </svg>
