<?xml version="1.0" encoding="utf-8"?> <svg xmlns="http://www.w3.org/2000/svg" viewBox="0 0 100 100"><style type="text/css"> .st0{fill:#333333;} </style><path class="st0" d="m 37.5,18.75 12.5,0 0,6.25 -12.5,0 z m 18.75,0 12.5,0 0,6.25 -12.5,0 z m 31.25,0 0,25 -18.75,0 0,-6.25 12.5,0 0,-12.5 -6.25,0 0,-6.25 z m -56.25,18.75 12.5,0 0,6.25 -12.5,0 z m 18.75,0 12.5,0 0,6.25 -12.5,0 z M 18.75,25 l 0,12.5 6.25,0 0,6.25 -12.5,0 0,-25 18.75,0 0,6.25 z m 18.75,31.25 12.5,0 0,6.25 -12.5,0 z m 18.75,0 12.5,0 0,6.25 -12.5,0 z m 31.25,0 0,25 -18.75,0 0,-6.25 12.5,0 0,-12.5 -6.25,0 0,-6.25 z M 31.25,75 l 12.5,0 0,6.25 -12.5,0 z m 18.75,0 12.5,0 0,6.25 -12.5,0 z m -31.25,-12.5 0,12.5 6.25,0 0,6.25 -12.5,0 0,-25 18.75,0 0,6.25 z m 75,-56.25 -87.5,0 0,87.5 87.5,0 0,-87.5 z M 100,0 100,0 100,100 0,100 0,0 100,0 Z" /> </svg>
