<?xml version="1.0" encoding="utf-8"?> <svg xmlns="http://www.w3.org/2000/svg" viewBox="0 0 100 100"><style type="text/css"> .st0{fill:#333333;} </style><path class="st0" d="m 25,0 50,0 0,14.285714 -50,0 z m 68.75,21.428571 -87.5,0 c -3.4375,0 -6.25,3.214286 -6.25,7.142858 l 0,35.714285 c 0,3.928572 2.8121094,7.142857 6.25,7.142857 l 18.75,0 L 25,100 l 50,0 0,-28.571429 18.75,0 c 3.4375,0 6.25,-3.214285 6.25,-7.142857 l 0,-35.714285 c 0,-3.928572 -2.8125,-7.142858 -6.25,-7.142858 z m -25,71.428572 -37.5,0 0,-35.714286 37.5,0 0,35.714286 z M 95.15625,32.142857 c 0,2.860045 -2.028711,5.178572 -4.531055,5.178572 -2.502539,0 -4.531445,-2.318527 -4.531445,-5.178572 0,-2.860044 2.028906,-5.178571 4.531445,-5.178571 2.502539,0 4.531055,2.318527 4.531055,5.178571 z" /> </svg>
