<?xml version="1.0" encoding="utf-8"?> <svg xmlns="http://www.w3.org/2000/svg" viewBox="0 0 100 100"><style type="text/css"> .st0{fill:#333333;} </style><path class="st0" d="m 68.75,87.5 25,0 6.25,-12.5 0,25 -37.5,0 0,-20.919336 C 75.303906,73.564648 84.375,59.826563 84.375,43.75 84.375,22.809375 68.98457,6.419336 50,6.419336 31.015039,6.419336 15.625,22.80918 15.625,43.75 c 0,16.076563 9.070898,29.814648 21.875,35.330664 L 37.5,100 0,100 0,75 l 6.25,12.5 25,0 0,-3.182617 C 12.926758,77.827148 0,62.110156 0,43.75 0,19.5875 22.385742,0 50,0 c 27.614258,0 50,19.5875 50,43.75 0,18.360156 -12.926758,34.077148 -31.25,40.567383 l 0,3.182617 z" /> </svg>
