<?xml version="1.0" encoding="utf-8"?> <svg xmlns="http://www.w3.org/2000/svg" viewBox="0 0 100 100"><style type="text/css"> .st0{fill:#333333;} </style><path class="st0" d="m 6.25,0 37.5,0 0,6.25 -37.5,0 z m 50,0 37.5,0 0,6.25 -37.5,0 z m 36.71875,31.25 -5.46875,0 0,-25 -25,0 0,25 -25,0 0,-25 -25,0 0,25 -5.46875,0 C 3.1640625,31.25 0,34.414063 0,38.28125 l 0,54.6875 C 0,96.835937 3.1640625,100 7.03125,100 l 29.6875,0 C 40.585937,100 43.75,96.835937 43.75,92.96875 l 0,-36.71875 12.5,0 0,36.71875 C 56.25,96.835937 59.414062,100 63.28125,100 l 29.6875,0 C 96.835937,100 100,96.835937 100,92.96875 l 0,-54.6875 C 100,34.414063 96.835937,31.25 92.96875,31.25 Z m -58.984375,62.5 -24.21875,0 C 7.8320312,93.75 6.25,92.34375 6.25,90.625 6.25,88.90625 7.8320312,87.5 9.765625,87.5 l 24.21875,0 c 1.933594,0 3.515625,1.40625 3.515625,3.125 0,1.71875 -1.582031,3.125 -3.515625,3.125 z M 53.125,50 l -6.25,0 c -1.71875,0 -3.125,-1.40625 -3.125,-3.125 0,-1.71875 1.40625,-3.125 3.125,-3.125 l 6.25,0 c 1.71875,0 3.125,1.40625 3.125,3.125 0,1.71875 -1.40625,3.125 -3.125,3.125 z m 37.109375,43.75 -24.21875,0 C 64.082031,93.75 62.5,92.34375 62.5,90.625 62.5,88.90625 64.082031,87.5 66.015625,87.5 l 24.21875,0 c 1.933594,0 3.515625,1.40625 3.515625,3.125 0,1.71875 -1.582031,3.125 -3.515625,3.125 z" /> </svg>
