<?xml version="1.0" encoding="utf-8"?> <svg xmlns="http://www.w3.org/2000/svg" viewBox="0 0 100 100"><style type="text/css"> .st0{fill:#333333;} </style><path class="st0" d="m 19.999981,34.375023 0,-12.500031 c 0,-5.177557 3.357929,-9.374962 7.499981,-9.374962 l 2.499961,0 0,-12.50003 -2.499961,0 C 17.834918,0 9.9999423,9.793705 9.9999423,21.874992 l 0,12.500031 c 0,5.177557 -3.3579291,9.374962 -7.4999808,9.374962 l -2.4999615,0 0,12.50003 2.4999615,0 c 4.1420517,0 7.4999808,4.197405 7.4999808,9.374962 l 0,12.500031 C 9.9999423,90.205934 17.834918,100 27.499962,100 l 2.499961,0 0,-12.50003 -2.499961,0 c -4.142052,0 -7.499981,-4.197405 -7.499981,-9.374962 l 0,-12.500031 c 0,-6.121411 -2.012277,-11.654371 -5.254342,-15.624977 3.241873,-3.970606 5.254342,-9.503686 5.254342,-15.624977 z m 60.000038,0 0,-12.500031 c 0,-5.177557 -3.357929,-9.374962 -7.499981,-9.374962 l -2.499961,0 0,-12.50003 2.499961,0 c 9.664756,0 17.50002,9.793705 17.50002,21.874992 l 0,12.500031 c 0,5.177557 3.357929,9.374962 7.49998,9.374962 l 2.499962,0 0,12.50003 -2.499962,0 c -4.142051,0 -7.49998,4.197405 -7.49998,9.374962 l 0,12.500031 C 90.000058,90.205934 82.164794,100 72.500038,100 l -2.499961,0 0,-12.50003 2.499961,0 c 4.142052,0 7.499981,-4.197405 7.499981,-9.374962 l 0,-12.500031 C 80.000019,59.503566 82.012296,53.970606 85.254361,50 82.012488,46.029394 80.000019,40.496314 80.000019,34.375023 Z M 60.000038,31.336252 c 0,6.903609 -4.477046,12.50003 -10.000038,12.50003 -5.522992,0 -10.000038,-5.5963 -10.000038,-12.50003 0,-6.90361 4.477046,-12.50003 10.000038,-12.50003 5.522992,0 10.000038,5.5963 10.000038,12.50003 z M 50,49.913824 c -5.522896,0 -10.000038,5.5963 -10.000038,12.50003 0,6.712026 2.499961,12.03285 10.168305,12.485366 -2.280638,4.016399 -5.715393,5.60231 -10.168305,6.122974 l 0,7.421871 c 0,0 19.99998,2.180732 19.99998,-26.030452 -0.01942,-6.90385 -4.476854,-12.50027 -10.000038,-12.50027 z" /> </svg>
