<?xml version="1.0" encoding="utf-8"?> <svg xmlns="http://www.w3.org/2000/svg" viewBox="0 0 100 100"><style type="text/css"> .st0{fill:#333333;} </style><path class="st0" d="M 59.295659,87.540979 0,87.540979 0,43.27969 l 59.295659,0 0,44.261289 z M 51.760852,51.1325 l -44.5536448,0 0,28.55567 44.5536448,0 0,-28.55567 z M 21.621622,14.72402 c 18.018018,-19.6320267 46.846846,-19.6320267 64.864864,0 18.018014,19.632023 18.018014,51.043261 0,70.675284 C 74.037674,98.963247 56.019656,103.2466 39.96724,97.535464 52.416052,100.74798 66.830467,96.464626 76.986077,85.399304 92.383292,68.622848 93.366093,42.565799 79.279279,27.217126 66.830467,13.653183 46.519247,12.939291 31.122031,25.075451 L 39.96724,34.712989 9.8280098,37.21161 12.121212,4.3725903 21.621622,14.72402 Z" /> </svg>
