<?xml version="1.0" encoding="utf-8"?> <svg xmlns="http://www.w3.org/2000/svg" viewBox="0 0 100 100"><style type="text/css"> .st0{fill:#333333;} </style><path class="st0" d="M 80.60625,46.947768 C 86.465313,41.976563 90,35.562946 90,28.571429 90,12.816964 72.055937,0 50,0 l -50,0 0,100 60,0 c 22.055937,0 40,-12.817187 40,-28.571429 0,-10.374553 -7.780937,-19.475 -19.39375,-24.480803 z M 30,14.285714 l 15.859375,0 c 8.745,0 15.859375,6.408482 15.859375,14.285715 0,7.877232 -7.114375,14.285714 -15.859375,14.285714 l -15.859375,0 0,-28.571429 z m 24.84375,71.428572 -24.84375,0 0,-28.571429 24.84375,0 c 9.132812,0 16.5625,6.408482 16.5625,14.285714 0,7.877233 -7.429688,14.285715 -16.5625,14.285715 z" /> </svg>
