<?xml version="1.0" encoding="utf-8"?> <svg xmlns="http://www.w3.org/2000/svg" viewBox="0 0 100 100"><style type="text/css"> .st0{fill:#333333;} </style><path class="st0" d="M 93.686607,19.475586 77.741964,5.524219 C 74.269643,2.485938 67.410714,0 62.5,0 L 8.9285714,0 C 4.0178571,0 0,3.515625 0,7.8125 l 0,84.375 C 0,96.484375 4.0178571,100 8.9285714,100 l 82.1428576,0 C 95.982143,100 100,96.484375 100,92.1875 l 0,-59.375 c 0,-4.296875 -2.841071,-10.298633 -6.313393,-13.336914 z m -5.050669,4.419531 c 0.34933,0.305664 0.697544,0.681055 1.035714,1.104883 l -18.243081,0 0,-15.9625 c 0.484375,0.295898 0.913393,0.600586 1.262724,0.90625 L 88.635938,23.895117 Z M 92.857143,92.1875 c 0,0.846875 -0.817857,1.5625 -1.785714,1.5625 l -82.1428576,0 c -0.9678571,0 -1.7857143,-0.715625 -1.7857143,-1.5625 l 0,-84.375 c 0,-0.846875 0.8178572,-1.5625 1.7857143,-1.5625 L 62.5,6.25 c 0.539286,0 1.14442,0.05957 1.785714,0.166406 l 0,24.833594 28.38125,0 c 0.122099,0.561133 0.190179,1.09043 0.190179,1.5625 l 0,59.375 z" /> </svg>
