<?xml version="1.0" encoding="utf-8"?> <svg xmlns="http://www.w3.org/2000/svg" viewBox="0 0 100 100"><style type="text/css"> .st0{fill:#333333;} </style><path class="st0" d="m 94.642857,95.9375 -10,-8.75 C 76.785714,95 65.357143,100 52.5,100 29.285714,100 10,83.75 9.6428571,63.125 c 0,0 0,0 0,0 0,-0.3125 0,-0.3125 0,-0.625 0,-0.3125 0,-0.3125 0,-0.625 l 0,0 c 0,0 0,0 0,-0.3125 0,0 0,-0.3125 0,-0.3125 C 10,50.9375 15,40.625 21.428571,31.5625 L 0,12.8125 5,8.4375 25.357143,26.25 c 0,0 0,0 0,0 l 63.571428,55.625 c 0,0 0,0 0,0 L 100,91.5625 94.642857,95.9375 Z M 95,61.875 c 0,0 0,0 0,0 0,-0.3125 0,-0.625 0,-0.625 C 93.928571,30.3125 52.142857,0 52.142857,0 52.142857,0 40,8.75 28.928571,21.5625 l 7.857143,6.875 c 0.714286,-0.9375 1.785715,-2.1875 2.5,-3.125 4.642857,-5 9.285715,-9.375 12.857143,-12.5 l 0,0 c 3.571429,3.125 8.214286,7.5 12.857143,12.5 12.142857,13.4375 18.928571,25.9375 19.285714,36.25 0,0 0,0.3125 0,0.3125 l 0,0 0,0 c 0,0.3125 0,0.3125 0,0.625 0,0.3125 0,0.3125 0,0.3125 l 0,0 0,0 c 0,2.1875 -0.357143,4.0625 -1.071428,6.25 l 8.571428,7.5 C 93.571429,72.5 95,67.8125 95,63.125 c 0,0 0,0 0,0 0,-0.3125 0,-0.3125 0,-0.625 0,-0.3125 0,-0.3125 0,-0.625 z" /> </svg>
