<?xml version="1.0" encoding="utf-8"?> <svg xmlns="http://www.w3.org/2000/svg" viewBox="0 0 100 100"><style type="text/css"> .st0{fill:#333333;} </style><path class="st0" d="m 7.1428571,25 14.2857139,0 0,18.75 7.142858,0 0,-37.5 C 28.571429,2.8125 25.357143,0 21.428571,0 L 7.1428571,0 C 3.2142857,0 0,2.8125 0,6.25 l 0,37.5 7.1428571,0 0,-18.75 z m 0,-18.75 14.2857139,0 0,12.5 -14.2857139,0 0,-12.5 z M 100,6.25 100,0 78.571429,0 c -3.928795,0 -7.142858,2.8125 -7.142858,6.25 l 0,31.25 c 0,3.4375 3.214063,6.25 7.142858,6.25 l 21.428571,0 0,-6.25 -21.428571,0 0,-31.25 L 100,6.25 Z m -35.714286,9.375 0,-9.375 C 64.285714,2.8125 61.071429,0 57.142857,0 l -21.428571,0 0,43.75 21.428571,0 c 3.928572,0 7.142857,-2.8125 7.142857,-6.25 l 0,-9.375 c 0,-3.4375 -0.982143,-6.25 -4.910714,-6.25 3.928571,0 4.910714,-2.8125 4.910714,-6.25 z m -7.142857,21.875 -14.285714,0 0,-12.5 14.285714,0 0,12.5 z m 0,-18.75 -14.285714,0 0,-12.5 14.285714,0 0,12.5 z m 28.571429,37.5 -46.428572,43.75 -25,-28.125 L 23.4375,65.039063 39.285714,79.492188 78.571429,50 Z" /> </svg>
