<?xml version="1.0" encoding="utf-8"?> <svg xmlns="http://www.w3.org/2000/svg" viewBox="0 0 100 100"><style type="text/css"> .st0{fill:#333333;} </style><path class="st0" d="m 31.25,44.285714 6.25,7.142857 0,1.428572 L 31.25,60 l 0,-15.714286 z M 62.5,52.857143 68.75,60 l 0,-15.357143 -6.25,7.142857 0,1.071429 z M 100,0 100,100 0,100 0,0 100,0 Z m -6.25,14.285714 -25,0 0,5.714286 -1.25,-1.428571 -5,5.714285 0,-10 -25,0 0,10 -5,-5.714285 L 31.25,20 l 0,-5.714286 -25,0 0,78.571429 25,0 0,-13.214286 3.4375,3.928572 2.8125,-3.214286 0,12.857143 25,0 0,-12.857143 4.6875,5.357143 1.5625,-1.785715 0,9.285715 25,0 0,-78.928572 z m -28.125,11.785715 -15.3125,17.5 -15.9375,-18.214286 -7.5,8.571428 15.9375,18.214286 -15.3125,17.5 7.5,8.571429 15.3125,-17.5 15.625,17.857143 7.5,-8.571429 -15.625,-17.857143 15.3125,-17.5 -7.5,-8.571428 z" /> </svg>
