<?xml version="1.0" encoding="utf-8"?> <svg xmlns="http://www.w3.org/2000/svg" viewBox="0 0 100 100"><style type="text/css"> .st0{fill:#333333;} </style><path class="st0" d="m 21.95122,36.363636 c 12.069463,0 21.853658,14.245739 21.853658,31.818182 C 43.804878,85.754545 34.020683,100 21.95122,100 9.8817561,100 0.09756098,85.754545 0.09756098,68.181818 L 0,63.636364 C 0,28.490909 19.56839,0 43.707317,0 l 0,18.181818 c -8.338927,0 -16.178927,4.728125 -22.075512,13.313352 -1.135025,1.652841 -2.170927,3.411364 -3.105366,5.258523 1.115902,-0.255682 2.259512,-0.390057 3.424781,-0.390057 z m 56.195121,0 C 90.21561,36.363636 100,50.609375 100,68.181818 100,85.754545 90.21561,100 78.146341,100 66.077073,100 56.292683,85.754545 56.292683,68.181818 l -0.09756,-4.545454 C 56.195123,28.490909 75.763513,0 99.90244,0 l 0,18.181818 c -8.338927,0 -16.178927,4.728125 -22.075512,13.313352 -1.13522,1.652841 -2.171122,3.411364 -3.105561,5.258523 1.116097,-0.255682 2.259512,-0.390057 3.424975,-0.390057 z" /> </svg>
