<?xml version="1.0" encoding="utf-8"?> <svg xmlns="http://www.w3.org/2000/svg" viewBox="0 0 100 100"><style type="text/css"> .st0{fill:#333333;} </style><path class="st0" d="m 75,53.125 0,34.375 -62.5,0 0,-62.5 34.375,0 12.5,-12.5 -50,0 C 4.21875,12.5 0,16.71875 0,21.875 l 0,68.75 C 0,95.78125 4.21875,100 9.375,100 l 68.75,0 c 5.156055,0 9.375,-4.21875 9.375,-9.375 l 0,-50 -12.5,12.5 z M 84.375,0 25,59.375 25,75 40.625,75 100,15.625 C 100,6.25 93.75,0 84.375,0 Z M 40.625,62.5 35.9375,57.8125 82.8125,10.9375 87.5,15.625 40.625,62.5 Z" /> </svg>
