<?xml version="1.0" encoding="utf-8"?> <svg xmlns="http://www.w3.org/2000/svg" viewBox="0 0 100 100"><style type="text/css"> .st0{fill:#333333;} </style><path class="st0" d="m 33.333333,81.25 66.666667,0 0,12.5 -66.666667,0 z m 0,-37.5 66.666667,0 0,12.5 -66.666667,0 z m 0,-37.5 66.666667,0 0,12.5 -66.666667,0 z m -20,-6.25 0,25 -6.6666663,0 0,-18.75 L 0,6.25 0,0 Z m -6.6666663,51.367188 0,4.882812 L 20,56.25 20,62.5 0,62.5 0,48.242188 13.333333,42.382813 13.333333,37.5 0,37.5 l 0,-6.25 20,0 0,14.257813 z M 20,68.75 20,100 l -20,0 0,-6.25 13.333333,0 0,-6.25 L 0,87.5 l 0,-6.25 13.333333,0 0,-6.25 L 0,75 0,68.75 Z" /> </svg>
