<?xml version="1.0" encoding="utf-8"?> <svg xmlns="http://www.w3.org/2000/svg" viewBox="0 0 100 100"><style type="text/css"> .st0{fill:#333333;} </style><path class="st0" d="M 0,0 0,100 100,100 100,0 0,0 Z m 31.25,92.307692 -25,0 0,-23.076923 25,0 0,23.076923 z m 0,-30.76923 -25,0 0,-23.076924 25,0 0,23.076924 z m 31.25,30.76923 -25,0 0,-23.076923 25,0 0,23.076923 z m 0,-30.76923 -25,0 0,-23.076924 25,0 0,23.076924 z m 31.25,30.76923 -25,0 0,-23.076923 25,0 0,23.076923 z m 0,-30.76923 -25,0 0,-23.076924 25,0 0,23.076924 z" /> </svg>
