<?xml version="1.0" encoding="UTF-8" standalone="no"?> <svg xmlns="http://www.w3.org/2000/svg" viewBox="0 0 100 100" width="100%" height="100%"> <style type="text/css"> .st0{fill:#333333;} </style> <path class="st0" d="m 37.500001,93.749998 62.499999,0 0,-12.499989 -62.499999,0 0,12.499989 z m 0,-37.49999 62.499999,0 0,-12.500029 -62.499999,0 0,12.500029 z m 0,-37.500018 62.499999,0 0,-12.4999781 -62.499999,0 0,12.4999781 z M 0,87.499998 C 0,94.403525 5.5964886,100 12.499999,100 c 6.903513,0 12.500004,-5.596475 12.500004,-12.500002 0,-6.903503 -5.596491,-12.500001 -12.500004,-12.500001 C 5.5964886,74.999997 0,80.596495 0,87.499998 Z M 0,50.000003 c 0,6.903508 5.5964886,12.499994 12.499999,12.499994 6.903513,0 12.500004,-5.596486 12.500004,-12.499994 0,-6.903515 -5.596491,-12.500001 -12.500004,-12.500001 C 5.5964886,37.500002 0,43.096488 0,50.000003 Z M 0,12.500001 c 0,6.903503 5.5964886,12.5 12.499999,12.5 6.903513,0 12.500004,-5.596497 12.500004,-12.5 C 25.000003,5.5964859 19.403512,0 12.499999,0 5.5964886,0 0,5.5964859 0,12.500001 Z" /> </svg>
