<?xml version="1.0" encoding="utf-8"?> <svg xmlns="http://www.w3.org/2000/svg" viewBox="0 0 100 100"><style type="text/css"> .st0{fill:#333333;} </style><path class="st0" d="M 96.900729,85.097465 73.213975,64.95152 C 70.765339,62.747804 68.146585,61.736082 66.031152,61.833739 71.622567,55.284114 75.000111,46.787024 75.000111,37.500088 75.000111,16.789297 58.210828,0 37.500055,0 16.789478,0 0,16.789297 0,37.500088 c 0,20.710791 16.789283,37.500088 37.500055,37.500088 9.286928,0 17.784011,-3.377547 24.33363,-8.969162 -0.09766,2.115435 0.914064,4.734191 3.117778,7.18283 l 20.145928,23.686774 c 3.449419,3.832622 9.084193,4.155672 12.521503,0.718361 3.437306,-3.437312 3.114456,-9.072091 -0.718165,-12.521514 z M 37.500055,62.500147 c -13.807051,0 -25.000037,-11.192995 -25.000037,-25.000059 0,-13.807064 11.192986,-25.000059 25.000037,-25.000059 13.807052,0 25.000037,11.192995 25.000037,25.000059 0,13.807064 -11.19279,25.000059 -25.000037,25.000059 z m 6.25001,-43.750103 -12.500019,0 0,12.500029 -12.500018,0 0,12.50003 12.500018,0 0,12.500029 12.500019,0 0,-12.500029 12.500018,0 0,-12.50003 -12.500018,0 z" /> </svg>
