<?xml version="1.0" encoding="utf-8"?> <svg xmlns="http://www.w3.org/2000/svg" viewBox="0 0 100 100"><style type="text/css"> .st0{fill:#333333;} </style><path class="st0" d="M 88.888889,0 100,0 l 0,11.111111 -11.111111,0 z m -22.222222,22.222222 11.111111,0 0,11.111111 -11.111111,0 z m 0,22.222222 11.111111,0 0,11.111112 -11.111111,0 z m 0,22.222223 11.111111,0 0,11.111111 -11.111111,0 z m -22.222223,-22.222223 11.111112,0 0,11.111112 -11.111112,0 z m 0,22.222223 11.111112,0 0,11.111111 -11.111112,0 z m -22.222222,0 11.111111,0 0,11.111111 -11.111111,0 z m 66.666667,-44.444445 11.111111,0 0,11.111111 -11.111111,0 z m 0,22.222222 11.111111,0 0,11.111112 -11.111111,0 z m 0,22.222223 11.111111,0 0,11.111111 -11.111111,0 z m 0,22.222222 11.111111,0 L 100,100 88.888889,100 Z m -22.222222,0 11.111111,0 0,11.111111 -11.111111,0 z m -22.222223,0 11.111112,0 0,11.111111 -11.111112,0 z m -22.222222,0 11.111111,0 0,11.111111 -11.111111,0 z m -22.222222,0 11.111111,0 0,11.111111 L 0,100 Z" /> </svg>
