<?xml version="1.0" encoding="utf-8"?> <svg xmlns="http://www.w3.org/2000/svg" viewBox="0 0 100 100"><style type="text/css"> .st0{fill:#333333;} </style><path class="st0" d="M 75,0 25,0 0,30.769231 50,100 100,30.769231 75,0 Z m -25,78.205048 0,-0.320433 -0.231445,0 -1.388867,-1.923077 1.620312,0 0,-1.923076 -3.00918,0 -1.388867,-1.923077 4.398047,0 0,-1.923077 -5.786914,0 -1.388867,-1.923077 7.175781,0 0,-1.923077 -8.564844,0 -1.388867,-1.923077 9.953711,0 0,-1.923077 -11.342578,0 -1.388867,-1.923077 12.731445,0 0,-1.923077 -14.120312,0 -1.388868,-1.923077 15.50918,0 0,-1.923077 -16.898242,0 -1.388867,-1.923077 18.287109,0 0,-1.923077 -19.675977,0 -1.388867,-1.923076 21.064844,0 0,-1.923077 -22.453711,0 -1.388867,-1.923077 23.842578,0 0,-1.923077 -25.231641,0 -1.388867,-1.923077 26.620508,0 0,-1.923077 -28.009375,0 L 20.601758,37.5 50,37.5 l 0,-1.923077 -30.787109,0 -1.388868,-1.923077 32.175977,0 0,-1.923077 -33.565039,0 -0.717188,-0.993029 13.58125,-16.715384 20.700977,0 0,0.400721 21.026758,0 1.5625,1.923077 -22.589258,0 0,1.923077 24.151758,0 1.5625,1.923077 -25.714258,0 0,1.923077 27.276758,0 1.5625,1.923077 -28.839258,0 0,1.923076 30.401758,0 1.5625,1.923077 -31.964258,0 0,1.923077 33.526562,0 0.755665,0.930048 L 50,78.205048 Z" /> </svg>
