<?xml version="1.0" encoding="utf-8"?> <svg xmlns="http://www.w3.org/2000/svg" viewBox="0 0 100 100"><style type="text/css"> .st0{fill:#333333;} </style><path class="st0" d="M 86.5625,36.071429 71.25,53.571429 86.875,71.428571 79.375,80 63.75,62.142857 l -15.3125,17.5 -7.5,-8.214286 L 56.5625,53.571429 40.625,35.357143 48.125,26.785714 64.0625,45 79.375,27.5 86.5625,36.071429 Z M 0,0 0,100 100,100 100,0 0,0 Z m 93.75,35.714286 -2.1875,0 -6.25,7.142857 8.4375,0 0,21.428571 -8.75,0 6.25,7.142857 2.5,0 0,21.428572 -87.5,0 0,-21.428572 30.3125,0 6.25,-7.142857 -36.5625,0 0,-21.428571 36.25,0 -6.25,-7.142857 -30,0 0,-21.428572 87.5,0 0,21.428572 z" /> </svg>
