<?xml version="1.0" encoding="utf-8"?> <svg xmlns="http://www.w3.org/2000/svg" viewBox="0 0 100 100"><style type="text/css"> .st0{fill:#333333;} </style><path class="st0" d="m 32.5,63.928571 14.0625,0 0,-16.071428 6.875,0 0,16.071428 14.0625,0 0,7.5 -14.0625,0 0,16.071429 -6.875,0 0,-16.071429 -14.0625,0 z M 0,0 0,100 100,100 100,0 0,0 Z m 37.5,14.285714 25,0 0,21.428572 -25,0 0,-21.428572 z m -31.25,0 25,0 0,21.428572 -25,0 0,-21.428572 z m 87.5,78.571429 -87.5,0 0,-50.357143 87.5,0 0,50.357143 z m 0,-57.142857 -25,0 0,-21.428572 25,0 0,21.428572 z" /> </svg>
