<?xml version="1.0" encoding="utf-8"?> <svg xmlns="http://www.w3.org/2000/svg" viewBox="0 0 100 100"><style type="text/css"> .st0{fill:#333333;} </style><path class="st0" d="M 0,0 0,100 100,100 100,0 0,0 Z m 37.5,14.285714 25,0 0,21.428572 -25,0 0,-21.428572 z m -6.25,78.571429 -25,0 0,-21.428572 25,0 0,21.428572 z m 0,-28.571429 -25,0 0,-21.428571 25,0 0,21.428571 z m 0,-28.571428 -25,0 0,-21.428572 25,0 0,21.428572 z m 62.5,57.142857 -56.25,0 0,-50 56.25,0 0,50 z m 0,-57.142857 -25,0 0,-21.428572 25,0 0,21.428572 z M 84.375,82.5 78.4375,89.285714 65.625,74.642857 52.8125,89.285714 46.875,82.5 59.6875,67.857143 46.875,53.214286 52.8125,46.428571 65.625,61.071429 78.4375,46.428571 84.375,53.214286 71.5625,67.857143 Z" /> </svg>
