<?xml version="1.0" encoding="utf-8"?> <svg xmlns="http://www.w3.org/2000/svg" viewBox="0 0 100 100"><style type="text/css"> .st0{fill:#333333;} </style><path class="st0" d="m 0,6.25 0,37.5 C 0,47.201758 2.7982422,50 6.25,50 9.7017578,50 12.5,47.201758 12.5,43.75 L 12.5,21.339062 78.660938,87.5 56.25,87.5 c -3.451758,0 -6.25,2.798047 -6.25,6.25 0,3.451758 2.798242,6.25 6.25,6.25 l 37.5,0 c 3.451758,0 6.25,-2.798242 6.25,-6.25 l 0,-37.5 C 100,52.798047 97.201758,50 93.75,50 90.298242,50 87.5,52.798047 87.5,56.25 l 0,22.410938 L 21.339062,12.5 43.75,12.5 C 47.201758,12.5 50,9.701758 50,6.25 50,2.798242 47.201953,0 43.75,0 L 6.25,0 C 2.7982422,0 0,2.798242 0,6.25 Z" /> </svg>
