<?xml version="1.0" encoding="utf-8"?> <svg xmlns="http://www.w3.org/2000/svg" viewBox="0 0 100 100"><style type="text/css"> .st0{fill:#333333;} </style><path class="st0" d="M 50,0 C 22.385742,0 0,22.385547 0,50 0,77.614258 22.385547,100 50,100 77.614258,100 100,77.614258 100,50 100,22.385547 77.614258,0 50,0 Z m 0,92.1875 C 26.700586,92.1875 7.8125,73.299609 7.8125,50 7.8125,26.700586 26.700586,7.8125 50,7.8125 73.299805,7.8125 92.1875,26.700586 92.1875,50 92.1875,73.299609 73.299805,92.1875 50,92.1875 Z M 37.5,31.25 c 0,3.451758 -2.798242,6.25 -6.25,6.25 C 27.798242,37.5 25,34.701758 25,31.25 25,27.798242 27.798242,25 31.25,25 c 3.451758,0 6.25,2.798242 6.25,6.25 z m 37.5,0 c 0,3.451758 -2.798047,6.25 -6.25,6.25 -3.451953,0 -6.25,-2.798242 -6.25,-6.25 0,-3.451758 2.798047,-6.25 6.25,-6.25 3.451953,0 6.25,2.798242 6.25,6.25 z M 50,63.671875 c 13.776758,0 25.653125,-5.618359 31.099805,-12.030469 C 79.061523,68.362109 65.837305,81.25 50,81.25 34.168164,81.25 20.947461,68.356836 18.901953,51.64375 24.349805,58.054492 36.224805,63.671875 50,63.671875 Z" /> </svg>
