<?xml version="1.0" encoding="utf-8"?> <svg xmlns="http://www.w3.org/2000/svg" viewBox="0 0 100 100"><style type="text/css"> .st0{fill:#333333;} </style><path class="st0" d="M 96.019253,46.207227 C 87.438059,28.293164 69.251471,12.208203 49.999967,0 30.748463,12.208203 12.562137,28.293164 3.9806818,46.207227 -1.3261539,57.284961 -1.8505211,69.308984 5.6229506,79.937695 14.216151,92.158398 31.545323,100 49.999967,100 c 18.454644,0 35.783817,-7.841602 44.376756,-20.0625 7.473997,-10.628711 6.949367,-22.652539 1.64253,-33.730273 z m -16.42556,27.90957 C 73.877335,82.246875 62.261128,87.5 49.999967,87.5 c -7.193409,0 -14.162872,-1.810156 -19.851303,-4.946484 1.728141,0.168359 3.475596,0.258984 5.234797,0.258984 15.324624,0 29.842207,-6.563867 36.985241,-16.722852 5.856782,-8.329296 5.347814,-16.977343 3.116709,-23.861132 1.899885,2.749023 3.511355,5.488086 4.808831,8.196484 2.950185,6.158398 5.223312,15.267578 -0.700549,23.691797 z" /> </svg>
