<?xml version="1.0" encoding="utf-8"?> <svg xmlns="http://www.w3.org/2000/svg" viewBox="0 0 100 100"><style type="text/css"> .st0{fill:#333333;} </style><path class="st0" d="M 100,57.857227 100,42.142773 84.458594,40.588672 C 83.65918,37.654883 82.496875,34.871094 81.020117,32.289844 L 91.23457,19.805664 80.194336,8.765625 67.710352,18.980078 C 65.128906,17.503125 62.344922,16.34082 59.411328,15.541797 L 57.857227,0 42.142773,0 40.588672,15.541602 c -2.933789,0.799414 -5.717578,1.961523 -8.298828,3.438281 L 19.805664,8.765625 8.765625,19.805664 18.980078,32.289648 c -1.476953,2.58125 -2.639258,5.365235 -3.438476,8.298829 L 0,42.142773 0,57.857227 15.541602,59.411328 c 0.799414,2.933789 1.961523,5.717578 3.438476,8.299024 L 8.765625,80.194336 19.805469,91.23418 32.289648,81.019727 c 2.58125,1.476953 5.365235,2.639453 8.298829,3.438476 L 42.142773,100 l 15.714454,0 1.554101,-15.541406 c 2.933789,-0.799414 5.717578,-1.961719 8.299024,-3.438477 L 80.194336,91.23457 91.23418,80.194727 81.019727,67.710742 c 1.476953,-2.581445 2.639453,-5.36543 3.438476,-8.298828 L 100,57.857227 Z M 68.75,56.25 l -12.5,12.5 -12.5,0 -12.5,-12.5 0,-12.5 12.5,-12.5 12.5,0 12.5,12.5 0,12.5 z" /> </svg>
