<?xml version="1.0" encoding="utf-8"?> <svg xmlns="http://www.w3.org/2000/svg" viewBox="0 0 100 100"><style type="text/css"> .st0{fill:#333333;} </style><path class="st0" d="M 57.575758,0 C 81.006061,0 100,22.385714 100,50 c 0,27.614286 -18.993939,50 -42.424242,50 l 0,-10.714286 c 8.903787,0 17.274431,-4.086384 23.570265,-11.506473 C 87.441856,70.359152 90.909091,60.49375 90.909091,50 c 0,-10.493527 -3.467235,-20.359152 -9.763068,-27.779241 C 74.850189,14.80067 66.479545,10.714286 57.575758,10.714286 c -8.903599,0 -17.274432,4.086384 -23.570266,11.506473 -4.842803,5.707366 -8.009659,12.862277 -9.214583,20.636384 l 17.633333,0 L 21.212121,71.428571 0,42.857143 l 15.58428,0 C 18.525568,18.627009 36.203409,0 57.575758,0 Z m 18.181818,42.857143 0,14.285714 -24.242424,0 0,-35.714286 12.121212,0 0,21.428572 z" /> </svg>
