<?xml version="1.0" standalone="no"?>
<!DOCTYPE svg PUBLIC "-//W3C//DTD SVG 20010904//EN"
 "http://www.w3.org/TR/2001/REC-SVG-20010904/DTD/svg10.dtd">
<svg version="1.0" xmlns="http://www.w3.org/2000/svg"
 width="600.000000pt" height="600.000000pt" viewBox="0 0 600.000000 600.000000"
 preserveAspectRatio="xMidYMid meet">

<g transform="translate(0.000000,600.000000) scale(0.100000,-0.100000)"
fill="#000000" stroke="none">
<path d="M2469 5985 c-189 -31 -330 -78 -498 -166 -134 -70 -240 -149 -356
-264 -152 -153 -261 -319 -341 -520 -29 -72 -35 -81 -66 -89 -276 -72 -502
-195 -685 -370 -329 -314 -499 -727 -479 -1166 14 -317 115 -602 300 -847 l83
-109 -28 -110 c-104 -415 -27 -840 222 -1214 86 -130 272 -316 405 -403 166
-110 348 -186 546 -228 133 -29 372 -36 507 -15 l105 16 75 -73 c385 -371 913
-510 1436 -377 271 68 495 198 700 404 146 147 259 322 335 518 l28 73 99 28
c138 39 251 88 360 152 775 463 980 1497 438 2214 l-82 107 28 110 c163 650
-135 1338 -726 1678 -281 161 -640 229 -960 181 l-99 -15 -61 58 c-225 218
-469 350 -767 413 -124 27 -398 34 -519 14z m341 -386 c180 -22 335 -76 476
-167 141 -90 197 -40 -474 -427 -723 -417 -684 -392 -711 -447 -21 -44 -21
-46 -21 -906 0 -474 -4 -862 -8 -862 -4 0 -120 65 -257 144 l-250 144 -3 719
c-2 446 1 752 7 808 29 249 131 470 302 650 98 103 183 165 314 230 208 104
412 141 625 114z m1530 -483 c229 -44 430 -155 601 -332 196 -203 309 -483
309 -764 0 -98 -10 -190 -20 -190 -4 0 -276 156 -606 346 -329 191 -619 356
-643 367 -95 42 -46 67 -1513 -784 l-118 -68 0 297 0 297 628 362 c345 199
657 376 695 393 84 38 220 77 312 89 88 12 257 6 355 -13z m-3170 -1326 c0
-789 -1 -767 53 -821 15 -14 357 -216 762 -450 404 -233 735 -426 734 -429 0
-7 -495 -290 -508 -290 -16 0 -1236 706 -1311 759 -83 58 -192 167 -252 251
-56 79 -128 221 -156 310 -82 253 -72 537 27 777 82 200 246 400 419 510 54
35 209 113 224 113 4 0 8 -329 8 -730z m3237 59 c334 -192 639 -371 677 -397
208 -140 382 -390 446 -641 117 -461 -70 -953 -462 -1214 -79 -53 -204 -117
-228 -117 -7 0 -10 240 -10 730 0 802 3 767 -61 826 -19 17 -361 219 -761 450
-400 230 -724 422 -719 427 15 15 486 286 498 286 6 1 285 -157 620 -350z
m-1078 -289 l321 -185 0 -375 0 -375 -325 -188 -325 -187 -325 187 -325 188 0
375 0 375 323 187 c177 103 325 186 329 185 3 -1 151 -85 327 -187z m868 -501
l243 -141 0 -722 c0 -464 -4 -753 -11 -811 -60 -488 -415 -870 -903 -972 -100
-21 -301 -23 -406 -4 -105 19 -210 54 -315 106 -80 40 -205 122 -205 135 0 3
269 160 598 349 328 190 617 358 641 374 86 58 81 -4 81 976 0 803 1 863 17
857 9 -4 126 -70 260 -147z m-547 -1047 l0 -299 -482 -278 c-266 -153 -552
-318 -636 -367 -174 -100 -262 -140 -372 -168 -316 -81 -645 -25 -915 155
-344 229 -538 651 -488 1063 5 43 9 52 22 47 9 -3 284 -161 612 -351 328 -189
614 -351 635 -360 85 -36 70 -43 866 416 403 232 737 426 743 431 5 5 10 9 12
9 2 0 3 -134 3 -298z"/>
</g>
</svg>
