<svg id="05a76bb1-d443-4ffd-b1ff-f90ecb222441" data-name="Layer 1" xmlns="http://www.w3.org/2000/svg" viewBox="0 0 24.63 25.36"><title>contenttype-event</title><path d="M5.81,5.68a0.5,0.5,0,0,1-.5-0.5v-4a0.5,0.5,0,0,1,1,0v4A0.5,0.5,0,0,1,5.81,5.68Z"/><path d="M18.81,5.68a0.5,0.5,0,0,1-.5-0.5v-4a0.5,0.5,0,0,1,1,0v4A0.5,0.5,0,0,1,18.81,5.68Z"/><path d="M24.31,8.68V6.18a3.5,3.5,0,0,0-3.5-3.5h-0.5v2.5a1.5,1.5,0,1,1-3,0V2.68h-10v2.5a1.5,1.5,0,0,1-3,0V2.68H3.81a3.5,3.5,0,0,0-3.5,3.5v2.5h24Z"/><path d="M0.31,9.68v11.5a3.5,3.5,0,0,0,3.5,3.5h17a3.5,3.5,0,0,0,3.5-3.5V9.68h-24Zm12,10a3,3,0,1,1-6,0,0.5,0.5,0,0,1,1,0,2,2,0,1,0,2-2H7.81a0.5,0.5,0,1,1,0-1h1.5a2,2,0,1,0-2-2,0.5,0.5,0,1,1-1,0A3,3,0,1,1,11,17.18,3,3,0,0,1,12.31,19.68Zm5,2.5a0.5,0.5,0,0,1-1,0V13.39l-1.15,1.15a0.5,0.5,0,0,1-.71-0.71l2-2a0.5,0.5,0,0,1,.85.35v10Z"/></svg>