<svg xmlns="http://www.w3.org/2000/svg" viewBox="0 0 100 81.6"><style type="text/css"> 
 .st0{fill:#292929;}
 </style><title> collection</title><path class="st0" d="M74.2 1.5c-0.6-0.7-1.4-1.2-2.2-1.4C71.5 0 71 0 70.5 0H28.7c-1 0.2-1.9 0.8-2.5 1.5 -0.9 1-1.4 2.2-1.3 3.6h50.8C75.7 3.8 75.2 2.5 74.2 1.5z"/><path class="st0" d="M99.7 25.1c-0.3-1-1.6-2.5-3.9-4.7l-3.1-3.1v8.2H7.5v-8.2l-3.1 3.1 -1 1c-0.8 0.6-1.5 1.3-2.1 2 -0.4 0.8-0.8 1.7-1 2.6 -0.5 1.5-0.4 3.1 0.3 4.5 0.4 2 1.7 9.8 4 23.1 2.3 13.4 3.6 21 4 22.7 0.5 3.4 2.6 5.1 6.1 5.1H87c1.1-0.3 2.1-0.8 2.9-1.5 1.1-0.9 1.8-2.2 2-3.6l7.8-45.9C100.1 28.8 100.1 26.9 99.7 25.1zM70.5 47.9l-0.2 1.4c-0.1 1-0.6 1.9-1.3 2.4 -1 0.8-2.3 1.3-3.6 1.2H34.8c-3.2 0-4.8-1.7-4.8-5.1V37.7h6.9v8.2h26.5v-8.2h7.1V47.9z"/><path class="st0" d="M85.7 15.3L85.7 15.3c0-1.3-0.5-2.6-1.5-3.6 -0.6-0.7-1.4-1.2-2.2-1.4 -0.5-0.1-1-0.1-1.4-0.1h-62c-1 0.2-1.9 0.8-2.6 1.5 -0.9 1-1.4 2.2-1.3 3.6v5.1h71V15.3z"/></svg>
