<?xml version="1.0" encoding="utf-8"?> <svg xmlns="http://www.w3.org/2000/svg" viewBox="0 0 100 100"><style type="text/css"> .st0{fill:#292929;} </style><path class="st0" d="M54.9 43c2.8-2.8 2.8-7.2 0-10 -2.8-2.8-7.2-2.8-10 0 -2.8 2.8-2.8 7.2 0 10S52.1 45.8 54.9 43z"/><path class="st0" d="M65.9 83c-0.1-0.1-0.1-0.3-0.2-0.4l-13-22.9c-0.5-1-1.6-1.6-2.7-1.6s-2.2 0.6-2.7 1.6l-36.1 63.8c-0.9 1.5-0.3 3.4 1.2 4.3 1.5 0.8 3.4 0.3 4.3-1.2l7.4-13h52 0l7.4 13c0.6 1 1.6 1.6 2.7 1.6 0.5 0 1.1-0.1 1.5-0.4 1.5-0.9 2-2.8 1.2-4.2L65.9 83zM49.9 67.5l7.8 13.7H42.2L49.9 67.5zM27.4 107.2l11.2-19.8h22.6l11.2 19.8H27.4z"/><path class="st0" d="M87.9 38c0 10.4-4 20.2-11.4 27.6 -0.4 0.4-0.6 0.9-0.6 1.4 0 0.5 0.2 1 0.6 1.4l5.8 5.8c0.4 0.4 0.9 0.6 1.4 0.6 0.5 0 1-0.2 1.4-0.6 9.6-9.6 14.9-22.4 14.9-36.1 0-13.6-5.3-26.5-14.9-36.1 -0.4-0.4-0.9-0.6-1.4-0.6 -0.5 0-1 0.2-1.4 0.6l-5.8 5.8c-0.8 0.8-0.8 2 0 2.7C83.8 17.8 87.9 27.6 87.9 38z"/><path class="st0" d="M61 52.3l5.8 5.8c0.4 0.4 0.9 0.6 1.4 0.6 0.5 0 1-0.2 1.4-0.5 5.3-5.3 8.3-12.4 8.3-20s-2.9-14.7-8.3-20c-0.8-0.8-2-0.8-2.7 0L61 23.8c-0.4 0.4-0.6 0.9-0.6 1.4 0 0.5 0.2 1 0.6 1.4 3.1 3.1 4.8 7.1 4.8 11.5S64 46.5 61 49.5C60.2 50.3 60.2 51.5 61 52.3z"/><path class="st0" d="M16.2 74.7c0.5 0 1-0.2 1.4-0.6l5.8-5.8c0.4-0.4 0.6-0.9 0.6-1.4 0-0.5-0.2-1-0.6-1.4C16 58.3 11.9 48.5 11.9 38c0-10.4 4.1-20.2 11.4-27.6 0.8-0.8 0.8-2 0-2.7L17.5 2c-0.4-0.4-0.8-0.6-1.4-0.6 -0.5 0-1 0.2-1.4 0.6C5.2 11.6-0.1 24.4-0.1 38s5.3 26.5 14.9 36.1C15.2 74.5 15.7 74.7 16.2 74.7z"/><path class="st0" d="M30.3 58.1c0.3 0.3 0.8 0.5 1.4 0.5 0.5 0 1-0.2 1.4-0.6l5.8-5.8c0.8-0.8 0.8-2 0-2.7 -3.1-3.1-4.8-7.1-4.8-11.5s1.7-8.4 4.8-11.5c0.4-0.4 0.6-0.9 0.6-1.4 0-0.5-0.2-1-0.6-1.4L33.1 18c-0.8-0.8-2-0.8-2.7 0 -5.3 5.3-8.3 12.4-8.3 20S25 52.7 30.3 58.1z"/></svg>
