<?xml version="1.0" encoding="utf-8"?> <svg xmlns="http://www.w3.org/2000/svg" viewBox="0 0 100 100"><style type="text/css"> .st0{fill:#292929;} </style><path class="st0" d="M99.2 24.6c-0.5-0.8-1.3-1.3-2.3-1.7 -0.6-0.2-1.4-0.3-2.2-0.3H33.3c-2.4 0-5 1-7.3 2.7 -2.2 1.7-4.1 4-4.9 6.5L8.2 69.3h77.9l13.4-39.1c0.3-1 0.5-1.9 0.5-2.7C100 26.4 99.7 25.4 99.2 24.6zM68.1 65.1c-9.5 0-17.2-7.7-17.2-17.2s7.7-17.2 17.2-17.2c9.5 0 17.2 7.7 17.2 17.2S77.6 65.1 68.1 65.1z"/><path class="st0" d="M23.2 21.4c3-2.2 6.6-3.6 10.1-3.6h52.1v-1.4c0-2.7-2.2-4.9-4.9-4.9h-41L31 1H6C3.3 1 1.1 3.2 1.1 5.9v52.4c0 2.4 1.8 4.5 4.2 4.9l11.3-33C17.7 26.8 20.2 23.7 23.2 21.4z"/><path class="st0" d="M77.2 45.1h-5.9v-5.9c0-1.6-1.3-2.9-2.9-2.9 -1.6 0-2.9 1.3-2.9 2.9v5.9h-5.9c-1.6 0-2.9 1.3-2.9 2.9 0 1.6 1.3 2.9 2.9 2.9h5.9v5.9c0 1.6 1.3 2.9 2.9 2.9 1.6 0 2.9-1.3 2.9-2.9V51h5.9c1.6 0 2.9-1.3 2.9-2.9C80.1 46.4 78.8 45.1 77.2 45.1z"/></svg>
