<svg xmlns="http://www.w3.org/2000/svg" viewBox="0 0 100 100"><style type="text/css"> 
 .st0{fill:#292929;}
 </style><path class="st0" d="M22.9 37.4c3-2.3 6.6-3.7 10.1-3.7h52.3v-1.4c0-2.7-2.2-4.9-4.9-4.9H39.2l-8.4-10.5H5.6c-2.7 0-4.9 2.2-4.9 4.9v52.7c0 2.5 1.8 4.5 4.2 4.9l11.3-33.1C17.4 42.7 19.8 39.6 22.9 37.4z"/><path class="st0" d="M99.2 40.5c-0.5-0.8-1.3-1.3-2.3-1.7 -0.6-0.2-1.4-0.3-2.2-0.3H33c-2.5 0-5.1 1-7.3 2.7 -2.3 1.7-4.1 4-4.9 6.5L7.9 85.4h78.2l13.4-39.2c0.3-1 0.5-1.9 0.5-2.7C100 42.3 99.7 41.3 99.2 40.5z"/></svg>
