<?xml version="1.0" encoding="utf-8"?>
 <svg xmlns="http://www.w3.org/2000/svg" viewBox="0 0 79.7 100"><style type="text/css"> 
 .st0{fill:#BCBCBC;}
 </style><path class="st0" d="M62.7 76.6H17.1c-0.7 0-1.3 0.6-1.3 1.3v3.9c0 0.7 0.6 1.3 1.3 1.3h45.7c0.7 0 1.3-0.6 1.3-1.3v-3.9C64 77.2 63.5 76.6 62.7 76.6z"/><path class="st0" d="M15.6 40.5v3.9c0 0.7 0.6 1.3 1.3 1.3h45.7c0.7 0 1.3-0.6 1.3-1.3v-3.9c0-0.7-0.6-1.3-1.3-1.3H17.1C16.3 39.2 15.6 39.8 15.6 40.5z"/><path class="st0" d="M55.3 2.7H1.6v95.1h77V26L55.3 2.7zM57.7 16.8l4.6 4.6 2.2 2.2h-6.7C57.7 23.5 57.7 16.8 57.7 16.8zM70.3 89.4H9.9V10.9h39.5v16.7c0 2.3 1.9 4.2 4.2 4.2h16.7V89.4z"/><path class="st0" d="M62.7 64.1H17.1c-0.7 0-1.3 0.6-1.3 1.3v3.9c0 0.7 0.6 1.3 1.3 1.3h45.7c0.7 0 1.3-0.6 1.3-1.3v-3.9C64 64.7 63.5 64.1 62.7 64.1z"/><path class="st0" d="M62.7 51.6H17.1c-0.7 0-1.3 0.6-1.3 1.3v3.9c0 0.7 0.6 1.3 1.3 1.3h45.7c0.7 0 1.3-0.6 1.3-1.3V53C64 52.3 63.5 51.6 62.7 51.6z"/></svg>
