<?xml version="1.0" encoding="utf-8"?> <svg xmlns="http://www.w3.org/2000/svg" viewBox="0 0 77 100"><style type="text/css"> .st0{fill:#BCBCBC;} </style><path class="st0" d="M49.1 12.9c0.5-1.2 0.4-2.6-0.3-3.8 -0.7-1.3-1.9-2.3-3.2-2.7L34.1 2.1c-1.4-0.5-2.9-0.5-4.2 0s-2.3 1.5-2.8 2.7l-1.8 5 22 8.1L49.1 12.9z"/><path class="st0" d="M73.4 90.3H28.8c-1.3 0-2.3 1.1-2.3 2.4 0 1.4 1 2.4 2.3 2.4h44.6c1.2 0 2.3-1.1 2.3-2.4C75.7 91.4 74.7 90.3 73.4 90.3z"/><path class="st0" d="M24.5 12.1L0.6 77c-0.1 0.2-0.2 0.4-0.2 0.5 0 0.2 0 0.4 0 0.5l2.3 16.3 0 0 0.6 2.8c0.2 0.9 0.8 1.7 1.7 2 0.9 0.3 1.8 0.2 2.6-0.5l2.3-1.7 0 0L22 86.1c0.2-0.2 0.2-0.2 0.4-0.4 0.1-0.2 0.2-0.3 0.2-0.5l24-64.9L24.5 12.1zM9.1 94.7L4.5 93 2.8 78.5l17.3 6.3L9.1 94.7z"/></svg>
