<?xml version="1.0" encoding="utf-8"?>
 <svg xmlns="http://www.w3.org/2000/svg" viewBox="0 0 83.3 100"><style type="text/css"> 
 .st0{fill:#292929;}
 </style><path class="st0" d="M31 40.2c-0.6 2.3-0.1 4.7 1.5 6.6 1.5 1.7 3.6 2.5 5.7 2.4 5.1-4.2 12.6-3.7 17 1.4 4.5 5.1 3.9 12.8-1.1 17.3L34.3 85.3c-5.1 4.5-12.8 3.9-17.3-1.1 -4.4-5.1-3.9-12.8 1.1-17.3l2.4-2.1c-1.5-1.1-2.9-2.4-4.2-3.8 -1.4-1.5-2.5-3.3-3.5-5l-2.4 2.1c-9.8 8.7-10.8 23.8-2 33.8s23.8 10.9 33.8 2.3L62 76.8c9.9-8.7 10.9-23.9 2.2-33.8C55.6 33.2 41 32.1 31 40.2z"/><path class="st0" d="M76 8.8C67.4-1.1 52.2-2.1 42.3 6.6L22.5 24c-9.9 8.7-11 23.8-2.3 33.8 8.6 9.8 23.2 10.9 33.2 2.8 0.6-2.3 0.1-4.7-1.5-6.6 -1.5-1.7-3.7-2.5-5.8-2.4 -5.1 4.2-12.6 3.7-17-1.4 -4.4-5.1-3.9-12.8 1.1-17.3L50 15.4c5.1-4.5 12.8-3.9 17.3 1.1 4.4 5.1 3.9 12.8-1.1 17.3l-2.4 2c1.5 1.1 2.9 2.4 4.1 3.8 1.4 1.5 2.5 3.3 3.5 5l2.4-2.1C83.8 33.9 84.7 18.8 76 8.8z"/></svg>
