<?xml version="1.0" encoding="utf-8"?> <svg xmlns="http://www.w3.org/2000/svg" viewBox="0 0 100 93.5"><style type="text/css"> .st0{fill:#BCBCBC;} </style><path class="st0" d="M50.3 1.5c-27.4 0-49.7 17-49.7 37.9 0 12.7 8.2 24 20.7 30.8v20.5c0.1 2.5 2.9 3.5 4.6 2l18.2-15.7c2 0.2 4 0.3 6.1 0.3 27.4 0 49.7-17 49.7-38C100 18.5 77.8 1.5 50.3 1.5zM73.2 52.5H27.5c-2.2 0-4-1.8-4-4s1.8-4 4-4h45.8c2.2 0 4 1.8 4 4S75.4 52.5 73.2 52.5zM73.2 34.4H27.5c-2.2 0-4-1.8-4-4s1.8-4 4-4h45.8c2.2 0 4 1.8 4 4S75.4 34.4 73.2 34.4z"/></svg>
