<svg xmlns="http://www.w3.org/2000/svg" viewBox="0 0 62 100"><style type="text/css"> .st0{fill:#292929;} </style><path class="st0" d="M31 65.2c8 0 14.6-6.6 14.6-14.6V16.5c0-8-6.6-14.6-14.6-14.6S16.4 8.5 16.4 16.5v34.1C16.4 58.6 23 65.2 31 65.2z"/><path class="st0" d="M58.3 36.1h-3.9c-1.1 0-1.9 0.9-1.9 1.9v5.4 5.4V51l0 0C52.3 62.7 42.7 72.2 31 72.2S9.8 62.7 9.6 51.1l0 0v-2.2 -5.4 -5.4c0-1.1-0.9-1.9-1.9-1.9h-4c-1.1 0-1.9 0.9-1.9 1.9v10.7c0 0.1 0 0.2 0.1 0.4 0 0.5-0.1 1-0.1 1.5 0 14.8 11.1 27 25.3 29v12h-8.8c-1.1 0-1.9 0.9-1.9 1.9v3.9c0 1.1 0.9 1.9 1.9 1.9h8.8 7.8 8.8c1.1 0 1.9-0.9 1.9-1.9v-3.9c0-1.1-0.9-1.9-1.9-1.9h-8.8v-12c14.3-1.9 25.3-14.2 25.3-29 0-0.5 0-1-0.1-1.5 0-0.1 0.1-0.2 0.1-0.4l0 0V38.1C60.3 37 59.4 36.1 58.3 36.1z"/></svg>
