<svg xmlns="http://www.w3.org/2000/svg" viewBox="0 0 100 80.1"><style type="text/css"> .st0{fill:#BCBCBC;} </style><path class="st0" d="M23.4 33.4c2.7 0 5.2-1.1 7.1-3 1.9-1.9 2.9-4.4 2.9-7.1 0-2.6-1-5.2-2.9-7 -1.8-2-4.4-3-7.1-3s-5.3 1-7.1 3c-1.9 1.8-2.9 4.4-2.9 7 0 2.7 1 5.2 2.9 7.1C18.1 32.4 20.7 33.5 23.4 33.4z"/><path class="st0" d="M97.6 2.5C96.1 0.9 93.9 0 91.7 0H8.3C6.1 0 4 0.9 2.4 2.5S0 6.2 0 8.4v63.3c-0.1 2.2 0.8 4.4 2.4 5.9 1.5 1.6 3.7 2.5 5.9 2.5h83.4c2.2 0 4.3-0.9 5.9-2.5 1.6-1.5 2.5-3.7 2.4-5.9V8.4C100 6.2 99.1 4.1 97.6 2.5zM92.9 72.9c-0.3 0.3-0.8 0.5-1.2 0.5H8.3c-0.4 0-0.8-0.2-1.1-0.5 -0.4-0.3-0.6-0.7-0.6-1.2V8.4c0-0.5 0.2-0.9 0.6-1.2 0.3-0.3 0.7-0.5 1.1-0.5h83.4c0.5-0.1 0.9 0.1 1.2 0.5 0.3 0.3 0.5 0.8 0.5 1.2v63.3C93.4 72.2 93.3 72.6 92.9 72.9z"/><polygon class="st0" points="38.4 48.4 30 40 13.4 56.8 13.4 66.8 86.7 66.8 86.7 43.4 65 21.8 "/></svg>
