<svg xmlns="http://www.w3.org/2000/svg" viewBox="0 0 100 98.8"><style type="text/css"> .st0{fill:#BCBCBC;} </style><path class="st0" d="M17.3 42.1h18v27.3c0 3.8 2.6 6.8 5.9 6.8h17.5c3.2 0 5.9-3.1 5.9-6.8V42.1h18c5.4 0 6.9-3.3 3.2-7.3l-7.9-8.7c-3.7-4-9.7-10.5-13.3-14.5L56.6 3C53-1 47-1 43.3 3l-7.9 8.7c-3.7 4-9.7 10.5-13.3 14.5l-7.9 8.7C10.4 38.9 11.9 42.1 17.3 42.1z"/><path class="st0" d="M93.1 68.6c-3.8 0-6.8 3-6.8 6.8v9.9H13.6v-9.9c0-3.7-3-6.8-6.8-6.8-3.7 0-6.8 3-6.8 6.8v16.5c0 0 0 0.1 0 0.1 0 0 0 0 0 0.1 0 3.7 3 6.8 6.8 6.8h86.3c3.3 0 6.1-2.4 6.7-5.6 0.1-0.4 0.2-0.9 0.2-1.4V75.4C99.9 71.7 96.9 68.6 93.1 68.6z"/></svg>
