<?xml version="1.0" encoding="UTF-8" standalone="no"?>
<svg xmlns="http://www.w3.org/2000/svg" xml:space="preserve" viewBox="0 0 100 100"><style type="text/css">
	.st0{fill:#333333;}
</style><g transform="matrix(.65574 0 0 .57803 -147.08 -8.9017)"><path class="st0" d="m375 41.1c-7.7-0.3-47.5-3-70.7-22.2l-0.2-0.2c-0.9-0.7-2-1.7-2.3-2l-1.3-1.3-1.1 1s-1.4 1.3-2.6 2.2l-0.2 0.2c-23.2 19.2-63 21.9-70.7 22.2l-1.6 0.1v5.7c0 0.3 0.2 31.2 4.2 49.6 3.4 16.6 12.4 36.5 24.3 53 17.6 24.7 35.4 34.8 47.1 38.9l0.3 0.1h0.8l0.3-0.1c11.8-4.1 29.5-14.2 47.1-38.9 11.8-16.5 20.9-36.3 24.2-52.9 4-18.4 4.2-49.3 4.2-49.6v-5.7l-1.8-0.1zm-1.7 5.7c0 0.3-0.2 30.8-4.1 48.9-3.3 16.2-12.1 35.6-23.7 51.7-16.9 23.6-33.8 33.5-45.1 37.5-11.3-4.1-28.2-13.9-45.1-37.6-11.6-16.2-20.4-35.5-23.7-51.8-3.9-18.1-4.1-48.6-4.1-48.9v-2.6c43-2.2 65.3-18 71.1-22.9l0.1-0.1c0.5-0.4 1.1-0.9 1.6-1.3 0.5 0.4 1.1 1 1.7 1.4l0.1 0.1c5.9 4.8 28.1 20.6 71.1 22.9v2.7z"/><path class="st0" d="m300.4 30-1.6 1.4c-22.7 19.1-61.2 20.3-61.6 20.3l-2.3 0.1v2.5c0 17.7 1.5 37.3 7.1 58.4v-1.9c0-2.3 0-2.3 2.3-2.3h3.5c2.3 0 2.3 0 2.3 2.3v2.3h4.6v-2.3c0-2.3 0-2.3 2.3-2.3h1.5 2 1.5c2.3 0 2.3 0 2.3 2.3v2.3h4.6v-2.3c0-2.3 0-2.3 2.3-2.3h3.5c2.3 0 2.3 0 2.3 2.3v12.2h7.1v-12.4-27.7c0-2.1 0-2.1 2.1-2.1h3.2c2.1 0 2.1 0 2.1 2.1v2.1h4.2v-2.1c0-2.1 0-2.1 2.1-2.1h1.3 1.8 1.3c2.1 0 2.1 0 2.1 2.1v2.1h4.2v-2.1c0-2.1 0-2.1 2.1-2.1h3.2c2.1 0 2.1 0 2.1 2.1v27.7 12.4h7.7v-12.3c0-2.3 0-2.3 2.3-2.3h3.5c2.3 0 2.3 0 2.3 2.3v2.3h4.6v-2.3c0-2.3 0-2.3 2.3-2.3h1.5 2 1.5c2.3 0 2.3 0 2.3 2.3v2.3h4.6v-2.3c0-2.3 0-2.3 2.3-2.3h3.5c2.3 0 2.3 0 2.3 2.3v1.9c5.5-21.1 7.1-40.7 7.1-58.4v-2.5l-2.3-0.1c-0.4 0-39.1-1.3-61.7-20.3l-1.3-1.3zm2.6 26.2v4.5h4v-4.5h3.9l4.5 20.2h-29.2l4.5-20.2h3.9v4.5h4v-4.5h1.4v-11.2h11v6.7h-9.3v4.5h1.3z"/><path class="st0" id="path11" d="m325.1 145.8h-16.4v-0.4-25.7c0-4.8-3.9-8.8-8.8-8.8-4.8 0-8.8 3.9-8.8 8.8v25.7 0.4h-15.5-12.2c0.6 0.7 1.1 1.5 1.7 2.2 17 20.7 33.8 26.1 34.5 26.3l0.8 0.3 0.8-0.3c0.7-0.2 17.4-5.7 34.4-26.3 0.6-0.7 1.2-1.4 1.7-2.2h-10-2.2z"/></g></svg>
