<svg xmlns="http://www.w3.org/2000/svg"
  data-name="Layer 1"
  viewBox="0 0 128 160"
  x="0px"
  y="0px">
  <path d="M52.78,36.62A2,2,0,0,0,54.67,38H99.31s8.73-.83,12.95-2.64c7.15-3.08,9.6-6.45,8.49-8.11C109.67,10.82,89.86,0,68.5,0a61.56,61.56,0,0,0-29.2,7.32,2,2,0,0,0-.63,3A87.5,87.5,0,0,1,52.78,36.62ZM68.5,4c19,0,37.29,9.23,48,24.19a19.35,19.35,0,0,1-5.85,3.49c-2.9,1.25-9.15,2.08-11.56,2.32h-43A91.19,91.19,0,0,0,43.27,9.78,58,58,0,0,1,68.5,4Z" />
  <path d="M14.55,38H41.91a2,2,0,0,0,1.86-2.75,79.68,79.68,0,0,0-12-20.67,2,2,0,0,0-1.53-.73,2.06,2.06,0,0,0-1.32.48A61.74,61.74,0,0,0,12.74,35.14,2,2,0,0,0,14.55,38ZM29.94,18.73a75.6,75.6,0,0,1,9,15.27H17.81A58.29,58.29,0,0,1,29.94,18.73Z" />
  <path d="M112.26,92.64C108,90.83,99.31,90,99.31,90H54.95A2,2,0,0,0,53,91.4a87.47,87.47,0,0,1-13.93,26.51,2,2,0,0,0,.65,3A61.57,61.57,0,0,0,68.5,128c21.37,0,41.17-10.82,52.24-27.25C121.86,99.1,119.41,95.72,112.26,92.64ZM68.5,124a58,58,0,0,1-24.78-5.57A91.16,91.16,0,0,0,56.4,94H99.11c2.28.23,8.67,1.08,11.56,2.32a19.35,19.35,0,0,1,5.85,3.49C105.79,114.77,87.54,124,68.5,124Z" />
  <path d="M42.23,90H14.55a2,2,0,0,0-1.81,2.86,61.76,61.76,0,0,0,16.64,21.2,2,2,0,0,0,1.24.44,2,2,0,0,0,1.56-.75,79.64,79.64,0,0,0,11.91-21A2,2,0,0,0,42.23,90ZM30.32,109.61A58.24,58.24,0,0,1,17.81,94H39.27A75.51,75.51,0,0,1,30.32,109.61Z" />
  <path d="M47.67,80.42a79.63,79.63,0,0,0,1.63-16,79.63,79.63,0,0,0-1.81-16.85,2,2,0,0,0-2-1.56H11.19a2,2,0,0,0-1.93,1.44,61.72,61.72,0,0,0,0,33.11A2,2,0,0,0,11.19,82H45.71A2,2,0,0,0,47.67,80.42ZM44.06,78H12.72a57.74,57.74,0,0,1,0-28H43.91A75.76,75.76,0,0,1,45.3,64.42,75.74,75.74,0,0,1,44.06,78Z" />
  <path d="M57.92,82h35.5a18.07,18.07,0,0,0,18.14-18h0A18.07,18.07,0,0,0,93.42,46H57.77a2,2,0,0,0-2,2.34,88.3,88.3,0,0,1,1.47,16.08A88.48,88.48,0,0,1,56,79.63,2,2,0,0,0,57.92,82Zm35.5-32a14,14,0,1,1,0,28H60.27a93,93,0,0,0,1-13.58A92.71,92.71,0,0,0,60.14,50Z" />
</svg>