<svg xmlns="http://www.w3.org/2000/svg" viewBox="0 0 99.9 100"><style type="text/css"> 
 .st0{fill:#333333;}
 </style><path class="st0" d="M97.7 86.8L77.1 66.2c4.9-7.2 7.4-15.2 7.4-24 0.2-5.6-0.9-11-3.2-16.4 -2.3-5.4-5.3-9.9-9-13.6 -3.8-3.6-8.3-6.6-13.6-9C53.3 1 47.9-0.1 42.4 0c-5.6 0.2-11 1.4-16.4 3.4 -5.4 2-10 5-13.6 9 -3.6 4-6.6 8.5-8.9 13.6C1.2 31 0 36.5 0 42.3s1.2 11.3 3.3 16.5c2.1 5.2 5.1 9.7 8.9 13.5s8.4 6.8 13.6 9c5.3 2.2 10.8 3.3 16.5 3.3 8.8 0 16.7-2.4 23.9-7.4l20.7 20.6c1.5 1.5 3.2 2.3 5.4 2.3 2.1 0 3.9-0.8 5.4-2.3s2.3-3.3 2.3-5.4C99.9 90.1 99.2 88.3 97.7 86.8zM61.3 61.3c-5.1 5-11.4 7.6-18.9 7.9 -7.7 0.2-14-2.4-19.1-7.9 -5.1-5.5-7.7-11.8-8-19.1 -0.1-7.2 2.5-13.5 7.9-18.9 5.4-5.4 11.8-8.1 19.1-8s13.6 2.8 18.9 8 8 11.5 8 18.9C68.9 50 66.4 56.3 61.3 61.3z"/></svg>
