<svg xmlns="http://www.w3.org/2000/svg" viewBox="0 0 100 100"><style type="text/css"> 
 .st0{fill:#333333;}
 </style><path class="st0" d="M91.6 59.7c-5.1-11.4-12.1-21.5-20.9-30.2 -8.9-8.9-19-15.9-30.2-20.9 -11.2-5-23.1-7.8-35.3-8.5H4.9c-1.3 0-2.3 0.4-3.2 1.3C0.8 2.2 0.3 3.3 0.1 4.7v10.1c0 1.2 0.5 2.3 1.3 3.1 0.9 0.8 1.9 1.3 3.1 1.4 10.2 0.7 19.8 3.1 28.9 7.3 9.2 4.1 17.1 9.6 23.7 16.4 6.7 6.8 12.1 14.7 16.4 23.8 4.3 9.2 6.7 18.8 7.3 28.9 0.1 1.1 0.6 2.1 1.4 2.9 0.9 0.9 1.9 1.3 3.1 1.3h10.2c1.3 0 2.5-0.5 3.3-1.4 1-0.9 1.4-2 1.3-3.3C99.5 82.8 96.7 71 91.6 59.7z"/><path class="st0" d="M13.9 72.8c-3.8 0-7 1.3-9.7 3.9 -2.6 2.7-3.9 5.9-3.9 9.7 0 3.8 1.2 7.1 3.9 9.7s5.9 3.9 9.7 3.9c3.8 0 7.1-1.3 9.7-3.9 2.6-2.7 3.9-5.9 3.9-9.7 0-3.8-1.3-7.1-3.9-9.7C20.8 74 17.7 72.8 13.9 72.8z"/><path class="st0" d="M45.2 54.9c-5.4-5.3-11.5-9.6-18.4-12.8C20 38.9 12.8 37 5.3 36.4H4.9c-1.3 0-2.3 0.4-3.1 1.3 -1 0.8-1.5 1.9-1.5 3.3v9.4c-0.1 1.2 0.3 2.3 1.1 3.1 0.9 0.8 1.9 1.3 3.1 1.4 10.7 1 20 5.4 27.6 13.1 7.7 7.8 12.1 17 13.1 27.8 0.1 1.2 0.6 2.1 1.4 2.9 0.9 0.7 1.9 1.1 3.1 1.1h9.5c1.4 0 2.6-0.5 3.4-1.5 0.8-0.9 1.2-2 1.1-3.3C63 87.4 61.1 80.2 58 73.3 54.9 66.4 50.6 60.2 45.2 54.9z"/></svg>
